<?xml version="1.0" standalone="no"?>
<!DOCTYPE svg PUBLIC "-//W3C//DTD SVG 1.1//EN" "http://www.w3.org/Graphics/SVG/1.1/DTD/svg11.dtd" >
<svg xmlns="http://www.w3.org/2000/svg" xmlns:xlink="http://www.w3.org/1999/xlink" version="1.1">
<metadata>
Created by FontForge 20170731 at Thu Dec  9 02:23:51 2021
 By Aleksey,,,
Copyright (c) 2021 by Hoengseong-gun. All rights reserved.
</metadata>
<defs>
<font id="HoengseongHanu" horiz-adv-x="1142" >
  <font-face 
    font-family="Hoengseong Hanu"
    font-weight="400"
    font-stretch="normal"
    units-per-em="1000"
    panose-1="0 0 0 0 0 0 0 0 0 0"
    ascent="800"
    descent="-200"
    x-height="527"
    cap-height="727"
    bbox="-2 -201 1000 900"
    underline-thickness="50"
    underline-position="-175"
    unicode-range="U+0020-FFE6"
  />
<missing-glyph horiz-adv-x="1000" 
 />
    <glyph glyph-name=".notdef" horiz-adv-x="1000" 
 />
    <glyph glyph-name=".null" horiz-adv-x="0" 
 />
    <glyph glyph-name="nonmarkingreturn" horiz-adv-x="333" 
 />
    <glyph glyph-name="space" unicode=" " horiz-adv-x="280" 
 />
    <glyph glyph-name="space" unicode="&#xa0;" horiz-adv-x="280" 
 />
    <glyph glyph-name="exclam" unicode="!" horiz-adv-x="284" 
d="M142 -67q-35 0 -58.5 23t-23.5 59t23.5 59t58.5 23t58.5 -23t23.5 -59t-23.5 -59t-58.5 -23zM48 716q-4 2 -4 5t4 5q20 10 46.5 16.5t52.5 6.5q31 0 51.5 -18.5t19.5 -69.5l-10 -464h-123l-12 457q-1 32 -8 44.5t-17 17.5z" />
    <glyph glyph-name="quotedbl" unicode="&#x22;" horiz-adv-x="395" 
d="M30 751h140l-22 -307h-96zM365 751l-22 -307h-96l-22 307h140z" />
    <glyph glyph-name="numbersign" unicode="#" horiz-adv-x="780" 
d="M358 548h156l40 179h126l-40 -179h98v-109h-123l-36 -164h119v-109h-144l-46 -205h-126l46 205h-156l-46 -205h-126l46 205h-108v109h133l36 164h-129v109h154l40 179h126zM453 275l36 164h-156l-36 -164h156z" />
    <glyph glyph-name="dollar" unicode="$" horiz-adv-x="625" 
d="M366 711q47 -6 83 -21t60 -35t36.5 -44t12.5 -48q0 -43 -21 -59.5t-54 -17.5q-10 0 -10 8q-2 36 -29 64t-78 39v-192q52 -15 94.5 -36t72.5 -49t46 -62.5t16 -76.5q0 -47 -16 -85t-46 -66.5t-72.5 -47t-94.5 -25.5v-54h-119v53q-49 6 -88.5 23.5t-67.5 43t-43 58
t-15 68.5q0 39 21.5 56t54.5 21q10 2 10 -6q3 -60 36.5 -98.5t91.5 -50.5v243q-45 11 -84.5 29t-69 42.5t-46.5 56.5t-17 71q0 79 58.5 132t158.5 66v53h119v-53zM158 521q0 -27 20.5 -46.5t68.5 -36.5v159q-48 -8 -68.5 -28.5t-20.5 -47.5zM366 72q53 11 77 36.5t24 60.5
q0 68 -101 110v-207z" />
    <glyph glyph-name="percent" unicode="%" horiz-adv-x="865" 
d="M276 -59h-136l449 786h136zM40 532q0 101 43.5 157t121.5 56t121.5 -56t43.5 -157t-43.5 -157t-121.5 -56t-121.5 56t-43.5 157zM164 532q0 -63 10.5 -85t30.5 -22t30.5 22t10.5 85t-10.5 85t-30.5 22t-30.5 -22t-10.5 -85zM495 136q0 101 43.5 157t121.5 56t121.5 -56
t43.5 -157t-43.5 -157t-121.5 -56t-121.5 56t-43.5 157zM619 136q0 -63 10.5 -85t30.5 -22t30.5 22t10.5 85t-10.5 85t-30.5 22t-30.5 -22t-10.5 -85z" />
    <glyph glyph-name="ampersand" unicode="&#x26;" horiz-adv-x="695" 
d="M299 37q35 0 66.5 10t57.5 27l-170 201q-42 -29 -63.5 -58.5t-21.5 -65.5q0 -54 36.5 -84t94.5 -30zM36 144q0 71 38 125t107 97q-40 57 -54 100.5t-14 84.5q0 42 16 77t44 61t66.5 40.5t84.5 14.5q49 0 87 -13t64.5 -36.5t40.5 -55t14 -68.5q0 -64 -40.5 -123.5
t-131.5 -113.5l145 -171q17 32 26.5 67.5t9.5 71.5q0 25 -5 37t-16 17q-8 3 -1 9q11 8 26.5 13.5t35.5 5.5q33 0 57.5 -22t24.5 -74q0 -57 -19.5 -114t-57.5 -107l107 -126h-156l-37 44q-43 -29 -95 -45.5t-114 -16.5q-55 0 -101.5 15.5t-80 44.5t-52.5 69.5t-19 91.5z
M237 549q0 -24 9.5 -53t41.5 -73q63 35 89.5 68t26.5 71q0 32 -21 52.5t-61 20.5q-42 0 -63.5 -24t-21.5 -62z" />
    <glyph glyph-name="quotesingle" unicode="'" horiz-adv-x="200" 
d="M30 751h140l-22 -307h-96z" />
    <glyph glyph-name="parenleft" unicode="(" horiz-adv-x="312" 
d="M40 344q0 136 43 245.5t116 175.5l83 -49q-50 -63 -77.5 -156t-27.5 -216q0 -121 27.5 -211t77.5 -161l-83 -49q-73 66 -116 175.5t-43 245.5z" />
    <glyph glyph-name="parenright" unicode=")" horiz-adv-x="312" 
d="M272 344q0 -136 -43 -245.5t-116 -175.5l-83 49q50 71 77.5 161t27.5 211q0 123 -27.5 216t-77.5 156l83 49q73 -66 116 -175.5t43 -245.5z" />
    <glyph glyph-name="asterisk" unicode="*" horiz-adv-x="503" 
d="M189 305l11 131l-108 -75l-62 108l119 56l-119 56l62 108l108 -75l-11 131h125l-11 -131l108 75l62 -108l-119 -56l119 -56l-62 -108l-108 75l11 -131h-125z" />
    <glyph glyph-name="plus" unicode="+" horiz-adv-x="634" 
d="M567 271h-185v-184h-130v184h-185v125h185v179h130v-179h185v-125z" />
    <glyph glyph-name="comma" unicode="," horiz-adv-x="280" 
d="M94 -154q-16 0 -27 8q-6 4 1 8q5 3 14.5 15t9.5 32q0 19 -4 33t-9.5 26t-9.5 25t-4 30q0 29 19.5 48t50.5 19q33 0 56.5 -22t23.5 -70q0 -33 -11.5 -61t-29 -48.5t-39 -31.5t-41.5 -11z" />
    <glyph glyph-name="hyphen" unicode="-" horiz-adv-x="634" 
d="M567 269h-500v129h500v-129z" />
    <glyph glyph-name="period" unicode="." horiz-adv-x="280" 
d="M140 -74q-35 0 -58.5 23t-23.5 59t23.5 59t58.5 23t58.5 -23t23.5 -59t-23.5 -59t-58.5 -23z" />
    <glyph glyph-name="slash" unicode="/" horiz-adv-x="400" 
d="M156 -49h-136l224 786h136z" />
    <glyph glyph-name="zero" unicode="0" horiz-adv-x="634" 
d="M317 -77q-137 0 -214.5 103.5t-77.5 307.5t77.5 307.5t214.5 103.5t214.5 -103.5t77.5 -307.5t-77.5 -307.5t-214.5 -103.5zM157 334q0 -150 41 -221t119 -71t119 71t41 221q0 149 -41 220.5t-119 71.5t-119 -71.5t-41 -220.5z" />
    <glyph glyph-name="one" unicode="1" horiz-adv-x="534" 
d="M308 727h97v-786h-135v622l-167 -106l-62 103z" />
    <glyph glyph-name="two" unicode="2" horiz-adv-x="634" 
d="M49 -59v35q0 57 18 106t50.5 93t76.5 84t96 78q43 31 71.5 56.5t45.5 47t24.5 42t7.5 41.5q0 44 -31.5 74.5t-94.5 30.5q-39 0 -69.5 -12.5t-50 -34t-26.5 -50.5t1 -62q1 -5 -0.5 -7t-7.5 -4q-23 -6 -43.5 -4t-36.5 12.5t-25 30t-9 47.5q0 39 18 75t53 64t85 44.5
t115 16.5q62 0 109.5 -18.5t80 -48.5t49 -69t16.5 -81q0 -80 -48 -145.5t-143 -131.5q-70 -49 -115 -95t-64 -96h298q22 0 33.5 4.5t19.5 15.5q5 7 10 0q9 -13 16 -33.5t7 -46.5q0 -30 -18 -44.5t-62 -14.5h-457z" />
    <glyph glyph-name="three" unicode="3" horiz-adv-x="634" 
d="M294 409q39 0 66 10t44.5 27t25 39t7.5 45q0 45 -30 72.5t-96 27.5q-38 0 -66 -11t-45.5 -30t-23.5 -45.5t2 -57.5q1 -5 -0.5 -7t-7.5 -4q-23 -6 -43.5 -4t-36.5 12.5t-25 30t-9 47.5q0 37 17 70t50 58.5t81 40.5t111 15q64 0 111.5 -17t79.5 -46t48 -67t16 -80
q0 -50 -24.5 -98t-80.5 -82q61 -27 96.5 -74.5t35.5 -118.5q0 -50 -20 -93.5t-57.5 -75.5t-90.5 -51t-118 -19q-64 0 -115 16.5t-86 45t-54 65t-19 77.5q0 28 9 47.5t25 30t36.5 12.5t43.5 -4q6 -2 7.5 -4t0.5 -7q-8 -35 -0.5 -65t27.5 -52t51 -34.5t70 -12.5q34 0 63 9.5
t50 26.5t32.5 40.5t11.5 51.5q0 58 -44 95.5t-126 37.5h-42v110h42v0z" />
    <glyph glyph-name="four" unicode="4" horiz-adv-x="634" 
d="M509 96v-155h-129v155h-357v81l391 550h95v-512h32q22 0 33.5 4.5t19.5 15.5q5 7 10 0q9 -13 16 -33.5t7 -46.5q0 -30 -18 -44.5t-62 -14.5h-38zM380 215v274l-197 -274h197z" />
    <glyph glyph-name="five" unicode="5" horiz-adv-x="634" 
d="M240 608l-15 -175q23 14 53 22t66 8q52 0 98.5 -19.5t80.5 -54t54 -82.5t20 -106q0 -62 -21 -113t-60 -87.5t-94 -57t-122 -20.5q-60 0 -107 15t-78.5 40t-48 58t-16.5 69q0 28 9 47.5t25 30t36.5 12.5t43.5 -4q11 -3 8 -11q-8 -31 -1.5 -57t25 -45t46.5 -29.5t64 -10.5
q35 0 64 12t50 33.5t32.5 52t11.5 67.5q0 66 -39.5 108.5t-113.5 42.5q-42 0 -73 -14.5t-47 -36.5l-109 20l38 404h354q22 0 33.5 4.5t19.5 15.5q5 7 10 0q9 -13 16 -33.5t7 -46.5q0 -30 -18 -44.5t-62 -14.5h-240z" />
    <glyph glyph-name="six" unicode="6" horiz-adv-x="634" 
d="M348 626q-86 0 -130.5 -64t-53.5 -183q35 48 87 69.5t108 21.5q49 0 92 -16t75 -49t50.5 -82.5t18.5 -116.5q0 -60 -19 -111.5t-55 -90t-88 -60t-118 -21.5q-65 0 -118 25t-90 75t-57 125.5t-20 177.5q0 91 19.5 168t59 132.5t99 87t138.5 31.5q54 0 94 -13.5t67 -35
t40 -49.5t13 -57q0 -38 -27.5 -55t-68.5 -15q-13 0 -10 11q4 17 -0.5 34t-17.5 30.5t-35 22t-53 8.5zM178 198q0 -33 10.5 -61.5t29.5 -49.5t45 -33t57 -12q36 0 63 13t44.5 35t26.5 51.5t9 62.5q0 76 -37 115t-94 39q-37 0 -66 -13t-48.5 -35.5t-29.5 -51.5t-10 -60z" />
    <glyph glyph-name="seven" unicode="7" horiz-adv-x="634" 
d="M121 608q-44 0 -62 14.5t-18 44.5q0 26 7 46.5t16 33.5q5 7 10 0q8 -11 19.5 -15.5t33.5 -4.5h452v-80l-324 -706h-150l310 667h-294v0z" />
    <glyph glyph-name="eight" unicode="8" horiz-adv-x="634" 
d="M317 -77q-66 0 -120 18.5t-92 51t-59 76.5t-21 96q0 65 32.5 117t89.5 84q-44 29 -68.5 71t-24.5 92t19 90t53.5 68t83 43t107.5 15t107.5 -15t83 -43t53.5 -68t19 -90t-24.5 -92t-68.5 -71q57 -32 89.5 -84t32.5 -117q0 -52 -21 -96t-59 -76.5t-92 -51t-120 -18.5z
M157 172q0 -60 43 -95t117 -35t117 35t43 95q0 62 -43 99t-117 37t-117 -37t-43 -99zM186 524q0 -51 36 -79.5t95 -28.5t95 28.5t36 79.5q0 48 -36 75t-95 27t-95 -27t-36 -75z" />
    <glyph glyph-name="nine" unicode="9" horiz-adv-x="634" 
d="M275 42q43 0 76 19t56 53.5t36.5 83t17.5 107.5q-35 -47 -87 -67t-108 -20q-49 0 -92 15.5t-75 47t-50.5 79t-18.5 112.5q0 58 19 108t55 86.5t88 57.5t118 21q65 0 118 -24t90 -73t57 -123t20 -174q0 -92 -19.5 -170.5t-59.5 -135.5t-101 -89.5t-144 -32.5q-49 0 -86 13
t-61.5 35t-37.5 50t-14 57q-1 19 6 32.5t20 22t30.5 12.5t37.5 3q13 0 10 -11q-4 -17 0 -34t16 -30.5t32.5 -22t50.5 -8.5zM162 474q0 -72 37 -108t94 -36q37 0 66 12.5t48.5 33t29.5 47.5t10 57q0 31 -10.5 57.5t-29.5 46t-45 31t-57 11.5q-36 0 -63 -12t-44.5 -33
t-26.5 -48.5t-9 -58.5z" />
    <glyph glyph-name="colon" unicode=":" horiz-adv-x="280" 
d="M140 16q-35 0 -58.5 23t-23.5 59t23.5 59t58.5 23t58.5 -23t23.5 -59t-23.5 -59t-58.5 -23zM58 518q0 36 23.5 59t58.5 23t58.5 -23t23.5 -59t-23.5 -59t-58.5 -23t-58.5 23t-23.5 59z" />
    <glyph glyph-name="semicolon" unicode=";" horiz-adv-x="280" 
d="M140 436q-35 0 -58.5 23t-23.5 59t23.5 59t58.5 23t58.5 -23t23.5 -59t-23.5 -59t-58.5 -23zM65 113q0 29 19.5 48t50.5 19q33 0 56.5 -22t23.5 -70q0 -33 -11.5 -61t-29 -48.5t-39 -31.5t-41.5 -11q-16 0 -27 8q-6 4 1 8q5 3 14.5 15t9.5 32q0 19 -4 33t-9.5 26t-9.5 25
t-4 30z" />
    <glyph glyph-name="less" unicode="&#x3c;" horiz-adv-x="634" 
d="M67 394l500 215v-131l-359 -144l359 -145v-130l-500 215v120z" />
    <glyph glyph-name="equal" unicode="=" horiz-adv-x="634" 
d="M567 391h-500v121h500v-121zM67 276h500v-121h-500v121z" />
    <glyph glyph-name="greater" unicode="&#x3e;" horiz-adv-x="634" 
d="M67 59v130l359 145l-359 144v131l500 -215v-120z" />
    <glyph glyph-name="question" unicode="?" horiz-adv-x="489" 
d="M222 -67q-35 0 -58.5 23t-23.5 59t23.5 59t58.5 23t58.5 -23t23.5 -59t-23.5 -59t-58.5 -23zM20 575q0 37 16 70t45.5 57.5t71 38.5t91.5 14q55 0 97 -15t70.5 -42t43 -63t14.5 -78q0 -44 -13 -79.5t-33 -66t-43.5 -58t-44.5 -56.5t-36 -60.5t-17 -69.5h-120
q-3 44 9 79.5t31.5 66t42.5 58t43.5 55t34 56.5t13.5 63q0 49 -26 71.5t-71 22.5q-26 0 -47.5 -9t-35 -27t-18 -44t3.5 -59q1 -5 -0.5 -7t-7.5 -4q-23 -6 -43.5 -4t-36.5 12.5t-25 30t-9 47.5z" />
    <glyph glyph-name="at" unicode="@" horiz-adv-x="944" 
d="M431 63q-40 0 -70 16t-49 44t-26 66t-1 82t24 82.5t44.5 66.5t61 44t74.5 16q43 0 75 -18l1 10h121l-32 -228q-6 -45 4 -62.5t30 -17.5q31 0 61.5 32.5t40.5 100.5q10 74 -4.5 135t-49.5 104t-87.5 66.5t-117.5 23.5t-124.5 -24t-106.5 -69t-79.5 -109.5t-43.5 -146.5
q-12 -82 2 -147t48 -110t84 -68.5t112 -23.5q54 0 102.5 12.5t88.5 35.5l34 -97q-51 -35 -113 -52.5t-128 -17.5q-89 0 -162 33.5t-122.5 95t-71 148t-6.5 191.5t60.5 191.5t112.5 148t151.5 95t177.5 33.5t168 -33.5t125.5 -93t72.5 -141.5t9 -180q-8 -53 -30.5 -98
t-56.5 -79t-78 -53t-93 -19q-43 0 -70 16.5t-41 43.5q-25 -21 -55.5 -33t-66.5 -12zM406 271q-14 -103 51 -103q32 0 54.5 26t29.5 77q8 51 -7.5 77t-47.5 26q-65 0 -80 -103z" />
    <glyph glyph-name="A" unicode="A" horiz-adv-x="681" 
d="M218 606q13 41 15 67t-9 34q-9 7 1 12q20 11 48 18.5t60 7.5q41 0 67.5 -24t47.5 -88l228 -694h-138l-65 209h-267l-63 -209h-138zM437 264l-99 320l-97 -320h196z" />
    <glyph glyph-name="B" unicode="B" horiz-adv-x="704" 
d="M366 58q83 0 122 29.5t39 89.5q0 59 -40.5 89t-125.5 30h-150v-238h155zM80 727h271q137 0 205 -53.5t68 -148.5q0 -57 -24 -99.5t-76 -68.5q135 -53 135 -192q0 -51 -19 -92t-57 -70.5t-94.5 -45.5t-132.5 -16h-276v786zM356 411q70 0 103 23.5t33 75.5q0 51 -31.5 75.5
t-99.5 24.5h-150v-199h145z" />
    <glyph glyph-name="C" unicode="C" horiz-adv-x="676" 
d="M392 626q-103 0 -159 -71.5t-56 -220.5t55 -220.5t151 -71.5q42 0 72.5 14t49 34t25.5 43.5t1 42.5q-3 12 9 12q45 1 73 -21t28 -62q0 -31 -16.5 -63.5t-49.5 -58.5t-81 -43t-111 -17q-74 0 -136 27.5t-107 80t-70 129t-25 174.5t24 174.5t68.5 129t107 80t139.5 27.5
q61 0 107 -16t77 -42t47 -58t16 -63q0 -40 -27.5 -57.5t-68.5 -15.5q-13 0 -10 11q4 18 -3 39t-24 39.5t-43.5 31t-62.5 12.5z" />
    <glyph glyph-name="D" unicode="D" horiz-adv-x="704" 
d="M309 727q85 0 150.5 -26.5t109.5 -76.5t67 -123.5t23 -166.5t-23 -166.5t-67 -123.5t-109.5 -76.5t-150.5 -26.5h-229v786h229zM309 60q116 0 167 66.5t51 207.5q0 140 -51 207t-167 67h-98v-548h98z" />
    <glyph glyph-name="E" unicode="E" horiz-adv-x="641" 
d="M211 292v-234h309q22 0 33.5 4.5t19.5 15.5q5 7 10 0q9 -13 16 -33t7 -46q0 -30 -18 -44t-62 -14h-446v786h426q22 0 33.5 4.5t19.5 15.5q5 7 10 0q9 -13 16 -33t7 -46q0 -30 -18 -44t-62 -14h-301v-203h280q22 0 33.5 4.5t19.5 15.5q5 7 10 0q9 -13 16 -32.5t7 -45.5
q0 -30 -18 -43.5t-62 -13.5h-286z" />
    <glyph glyph-name="F" unicode="F" horiz-adv-x="631" 
d="M510 727q22 0 33.5 4.5t19.5 15.5q5 7 10 0q9 -13 16 -33t7 -46q0 -30 -18 -44t-62 -14h-305v-228h276q22 0 33.5 4.5t19.5 15.5q5 7 10 0q9 -13 16 -33t7 -46q0 -30 -18 -44t-62 -14h-282v-324h-131v786h430v0z" />
    <glyph glyph-name="G" unicode="G" horiz-adv-x="722" 
d="M399 626q-105 0 -163.5 -71.5t-58.5 -220.5t53 -220.5t142 -71.5q72 0 112.5 39.5t40.5 100.5v85h-153v120h280v-446h-117l-6 64q-26 -38 -68 -60t-102 -22q-66 0 -123 27.5t-99.5 80t-67 129t-24.5 174.5t25 174.5t70.5 129t109 80t141.5 27.5q58 0 103 -13t76 -34.5
t47 -49.5t16 -59q0 -40 -26 -59.5t-64 -17.5q-11 0 -11 10q1 19 -7 37.5t-24.5 33.5t-42 24t-59.5 9z" />
    <glyph glyph-name="H" unicode="H" horiz-adv-x="728" 
d="M517 654q0 23 -5 34.5t-15 17.5q-8 5 0 10q14 9 38.5 16t47.5 7q27 0 46 -17t19 -61v-720h-131v352h-307v-352h-131v713q0 23 -5 34.5t-15 17.5q-8 5 0 10q14 9 38.5 16t47.5 7q27 0 46 -17t19 -61v-248h307v241v0z" />
    <glyph glyph-name="I" unicode="I" horiz-adv-x="292" 
d="M79 654q0 23 -5 34.5t-15 17.5q-8 5 0 10q14 9 39 16t48 7q28 0 47 -17t19 -61v-720h-133v713v0z" />
    <glyph glyph-name="J" unicode="J" horiz-adv-x="595" 
d="M515 224q0 -152 -71.5 -226.5t-195.5 -74.5q-58 0 -100.5 17.5t-71 44.5t-42.5 61t-14 67q0 57 29.5 81.5t75.5 23.5q12 0 9 -12q-6 -26 -4 -54.5t15 -53t38 -40.5t64 -16q66 0 101 43t35 134v435q0 23 -5 34.5t-15 17.5q-8 5 0 10q14 9 39 16t48 7q28 0 46.5 -17
t18.5 -61v-437v0z" />
    <glyph glyph-name="K" unicode="K" horiz-adv-x="716" 
d="M681 15q11 0 10 -13q-4 -34 -24.5 -56.5t-59.5 -22.5q-50 0 -80 48t-35 142q-3 55 -12 92.5t-24.5 60t-36.5 32.5t-48 10q-48 0 -87.5 -26t-71.5 -69v-272h-133v713q0 23 -5 34.5t-15 17.5q-8 5 0 10q14 9 39 16t48 7q28 0 47 -17t19 -61v-282l258 275q17 17 23 32.5
t-4 21.5q-8 5 0 10q21 11 51.5 17t59.5 1q21 -4 32.5 -16t12.5 -29.5t-9.5 -38.5t-32.5 -42l-209 -203q18 3 38 3q89 0 133.5 -62t54.5 -177q7 -81 22.5 -118.5t38.5 -37.5z" />
    <glyph glyph-name="L" unicode="L" horiz-adv-x="621" 
d="M213 62h297q22 0 33.5 4.5t19.5 15.5q5 7 10 0q9 -13 16 -34t7 -47q0 -30 -18 -45t-62 -15h-436v713q0 23 -5 34.5t-15 17.5q-8 5 0 10q14 9 39 16t48 7q28 0 47 -17t19 -61v-599z" />
    <glyph glyph-name="M" unicode="M" horiz-adv-x="937" 
d="M79 654q0 23 -5 34.5t-15 17.5q-8 5 0 10q12 9 35.5 16t46.5 7q15 0 29.5 -4t28 -14.5t26 -28.5t23.5 -47l220 -572l259 654h130v-786h-129v496l-197 -496h-127l-196 496v-496h-129v713v0z" />
    <glyph glyph-name="N" unicode="N" horiz-adv-x="733" 
d="M522 654q0 23 -5 34.5t-15 17.5q-8 5 0 10q14 9 38.5 16t47.5 7q27 0 46 -17t19 -61v-720h-110l-333 566v-566h-131v713q0 23 -5 34.5t-15 17.5q-8 5 0 10q12 9 34.5 16t45.5 7q28 0 53 -14t50 -55l280 -471v455v0z" />
    <glyph glyph-name="O" unicode="O" horiz-adv-x="744" 
d="M372 -77q-70 0 -130 27.5t-103.5 80t-68.5 129t-25 174.5t25 174.5t68.5 129t103.5 80t130 27.5t130 -27.5t103.5 -80t68.5 -129t25 -174.5t-25 -174.5t-68.5 -129t-103.5 -80t-130 -27.5zM177 334q0 -75 14.5 -130t40.5 -91t61.5 -53.5t78.5 -17.5t78.5 17.5t61.5 53.5
t40.5 91t14.5 130q0 74 -14.5 129t-40.5 91t-61.5 54t-78.5 18t-78.5 -18t-61.5 -54t-40.5 -91t-14.5 -129z" />
    <glyph glyph-name="P" unicode="P" horiz-adv-x="679" 
d="M80 727h259q76 0 132.5 -19t94 -52.5t55.5 -79.5t18 -101q0 -56 -18 -104t-55.5 -83t-94 -55t-132.5 -20h-128v-272h-131v786zM349 330q84 0 121 37t37 103t-37 103t-121 37h-138v-280h138z" />
    <glyph glyph-name="Q" unicode="Q" horiz-adv-x="744" 
d="M567 334q0 74 -14.5 129t-40.5 91t-61.5 54t-78.5 18t-78.5 -18t-61.5 -54t-40.5 -91t-14.5 -129q0 -75 14.5 -130t40.5 -91t61.5 -53.5t78.5 -17.5t78.5 17.5t61.5 53.5t40.5 91t14.5 130zM45 334q0 98 25 174.5t68.5 129t103.5 80t130 27.5t130 -27.5t103.5 -80
t68.5 -129t25 -174.5q0 -149 -55 -247t-146 -138q29 -9 56.5 -15t59.5 -6q23 0 34 6t13 17q2 9 11 0q16 -16 21.5 -40t-2 -46.5t-29 -39t-60.5 -16.5q-45 0 -78 13.5t-65 32.5t-68.5 39.5t-88.5 35.5q-57 13 -104 45.5t-81 84t-53 120.5t-19 154z" />
    <glyph glyph-name="R" unicode="R" horiz-adv-x="703" 
d="M371 727q61 0 111 -15t86 -43.5t55.5 -69.5t19.5 -93q0 -65 -31.5 -114.5t-85.5 -79.5q49 -20 68.5 -60.5t23.5 -100.5q5 -74 16 -105t34 -31q11 0 10 -13q-4 -34 -24.5 -56.5t-59.5 -22.5q-50 0 -76 41t-30 129q-2 50 -10 84t-24.5 55t-42.5 30t-65 9h-135v-330h-131
v786h291zM366 385q75 0 110 31.5t35 85.5q0 51 -35 79t-110 28h-155v-224h155z" />
    <glyph glyph-name="S" unicode="S" horiz-adv-x="633" 
d="M331 428q63 -19 112.5 -43t83 -55t51.5 -70.5t18 -88.5q0 -57 -20.5 -103t-59 -78t-92.5 -49.5t-120 -17.5q-59 0 -107.5 16.5t-83 45.5t-53.5 67t-19 82q0 39 23 57.5t56 22.5q10 2 10 -6q3 -37 16 -68t35 -53.5t52 -35t68 -12.5q40 0 70.5 9.5t51.5 25.5t31.5 38
t10.5 47q0 103 -198 158q-56 15 -98.5 34t-71.5 44.5t-44 58t-15 75.5q0 46 19.5 85.5t55.5 68.5t86 45.5t111 16.5q60 0 106.5 -15.5t78 -39.5t48 -54t16.5 -58q0 -43 -22.5 -61t-55.5 -19q-10 0 -10 8q-2 24 -13 46t-30.5 39t-48 27.5t-65.5 10.5q-35 0 -62 -7.5
t-45.5 -20t-28 -29t-9.5 -33.5q0 -37 38 -61.5t124 -49.5z" />
    <glyph glyph-name="T" unicode="T" horiz-adv-x="655" 
d="M544 727q22 0 33.5 4.5t19.5 15.5q5 7 10 0q9 -13 16 -34t7 -47q0 -31 -18 -45.5t-62 -14.5h-156v-665h-133v665h-156q-44 0 -62 14.5t-18 45.5q0 26 7 47t16 34q5 7 10 0q8 -11 19.5 -15.5t33.5 -4.5h433v0z" />
    <glyph glyph-name="U" unicode="U" horiz-adv-x="745" 
d="M534 654q0 23 -5 34.5t-15 17.5q-8 5 0 10q14 9 38.5 16t47.5 7q27 0 46 -17t19 -61v-402q0 -170 -77 -253t-216 -83t-216 83t-77 253v395q0 23 -5 34.5t-15 17.5q-8 5 0 10q14 9 38.5 16t47.5 7q27 0 46 -17t19 -61v-402q0 -107 40.5 -162t121.5 -55t121.5 55t40.5 162
v395v0z" />
    <glyph glyph-name="V" unicode="V" horiz-adv-x="686" 
d="M530 654q8 22 6 34t-10 18q-8 5 0 10q14 9 40 16t49 7q13 0 25.5 -5t20 -17t8 -32t-10.5 -51l-244 -693h-132l-243 713q-8 22 -14.5 34t-16.5 18q-8 5 0 10q14 9 39.5 16t48.5 7q27 0 46.5 -18t33.5 -60l172 -540l182 533v0z" />
    <glyph glyph-name="W" unicode="W" horiz-adv-x="941" 
d="M405 654q5 22 4.5 34t-8.5 18q-8 5 0 10q14 9 37.5 16t46.5 7q27 0 44.5 -18t26.5 -60l112 -509l117 502q5 22 4.5 34t-8.5 18q-8 5 0 10q14 9 40 16t49 7q13 0 24.5 -5t18 -17t7 -32t-7.5 -51l-174 -693h-131l-127 565l-132 -565h-131l-173 713q-5 22 -13 34t-18 18
q-8 5 0 10q14 9 39 16t48 7q27 0 47.5 -18t29.5 -60l110 -508l118 501v0z" />
    <glyph glyph-name="X" unicode="X" horiz-adv-x="683" 
d="M518 -59l-176 288l-179 -288h-151l252 399l-182 306q-17 29 -27 40t-20 14q-9 4 -1 10q14 12 38.5 20.5t47.5 8.5q28 0 48 -16t43 -54l138 -225l137 210q25 40 9 56q-7 7 1 10q15 8 41 13.5t49 5.5q15 0 29.5 -7t21.5 -21t4 -34.5t-21 -47.5l-199 -295l246 -393h-149z
" />
    <glyph glyph-name="Y" unicode="Y" horiz-adv-x="663" 
d="M501 646q13 25 13 40.5t-8 21.5q-8 5 0 10q15 8 38.5 14.5t48.5 6.5q16 0 29 -6t20 -19t5 -33t-16 -47l-225 -447v-246h-133v246l-225 467q-11 23 -20.5 34.5t-19.5 14.5q-4 2 -4 5t4 5q14 11 37 18.5t49 7.5q29 0 48.5 -18t39.5 -60l157 -337l162 322v0z" />
    <glyph glyph-name="Z" unicode="Z" horiz-adv-x="654" 
d="M40 21l382 590h-360v116h537v-80l-384 -590h323q22 0 33.5 4.5t19.5 15.5q5 7 10 0q9 -13 16 -32.5t7 -45.5q0 -30 -18 -44t-62 -14h-504v80z" />
    <glyph glyph-name="bracketleft" unicode="[" horiz-adv-x="342" 
d="M80 745h222v-106h-95v-590h95v-106h-222v802z" />
    <glyph glyph-name="backslash" unicode="\" horiz-adv-x="400" 
d="M156 737l224 -786h-136l-224 786h136z" />
    <glyph glyph-name="bracketright" unicode="]" horiz-adv-x="342" 
d="M40 -57v106h95v590h-95v106h222v-802h-222z" />
    <glyph glyph-name="asciicircum" unicode="^" horiz-adv-x="490" 
d="M305 745l165 -300h-151l-74 149l-75 -149h-150l165 300h120z" />
    <glyph glyph-name="underscore" unicode="_" horiz-adv-x="520" 
d="M460 -191h-400v129h400v-129z" />
    <glyph glyph-name="grave" unicode="`" horiz-adv-x="308" 
d="M30 751h150l98 -287h-106z" />
    <glyph glyph-name="a" unicode="a" horiz-adv-x="644" 
d="M286 -77q-56 0 -101.5 23.5t-78 64.5t-50.5 97.5t-18 122.5t18 122.5t50.5 98t78 64.5t101.5 23q48 0 87 -15.5t69 -43.5v47h129v-586h-117l-6 47q-31 -31 -71 -48t-91 -17zM168 231q0 -87 35 -139t101 -52q32 0 58.5 14t45 39t29 60.5t10.5 77.5t-10.5 77.5t-29 60.5
t-45 39t-58.5 14q-66 0 -101 -52t-35 -139z" />
    <glyph glyph-name="b" unicode="b" horiz-adv-x="644" 
d="M358 -77q-51 0 -91 17t-71 48l-6 -47h-117v723q0 23 -5 34.5t-15 17.5q-8 5 0 10q14 9 38 16t47 7q28 0 46 -17t18 -61v-191q30 28 69 43.5t87 15.5q55 0 101 -23t78.5 -64.5t50.5 -98t18 -122.5t-18 -122.5t-50.5 -97.5t-78.5 -64.5t-101 -23.5zM197 231
q0 -42 10.5 -77.5t29 -60.5t45 -39t58.5 -14q66 0 101 52t35 139t-35 139t-101 52q-32 0 -58.5 -14t-45 -39t-29 -60.5t-10.5 -77.5z" />
    <glyph glyph-name="c" unicode="c" horiz-adv-x="580" 
d="M329 421q-75 0 -118 -48.5t-43 -141.5q0 -94 44.5 -142t122.5 -48q59 0 88 29t33 70q0 6 10 6q36 -2 59 -20t23 -50q0 -30 -15 -57.5t-43.5 -49t-69.5 -34t-93 -12.5q-65 0 -118.5 22t-91.5 62t-58.5 97t-20.5 127q0 69 21 125.5t60 97t93.5 63t120.5 22.5q45 0 82 -12.5
t63.5 -32.5t40.5 -45t14 -49q0 -35 -25.5 -54t-58.5 -21q-10 0 -10 6q-4 41 -30.5 65.5t-79.5 24.5z" />
    <glyph glyph-name="d" unicode="d" horiz-adv-x="644" 
d="M286 -77q-56 0 -101.5 23.5t-78 64.5t-50.5 97.5t-18 122.5t18 122.5t50.5 98t78 64.5t101.5 23q48 0 87 -15.5t69 -43.5v184q0 23 -5 34.5t-15 17.5q-8 5 0 10q14 9 38 16t47 7q28 0 46 -17t18 -61v-730h-117l-6 47q-31 -31 -71 -48t-91 -17zM168 231q0 -87 35 -139
t101 -52q32 0 58.5 14t45 39t29 60.5t10.5 77.5t-10.5 77.5t-29 60.5t-45 39t-58.5 14q-66 0 -101 -52t-35 -139z" />
    <glyph glyph-name="e" unicode="e" horiz-adv-x="609" 
d="M38 231q0 69 20.5 125.5t57 97t87 63t110.5 22.5q58 0 105.5 -22t81.5 -59.5t52.5 -87.5t18.5 -106q0 -43 -6 -74h-395q10 -75 52 -113.5t111 -38.5q52 0 83.5 21t38.5 54q1 7 10 6q32 -4 51.5 -20.5t19.5 -48.5q0 -27 -15 -50t-42.5 -40.5t-66.5 -27t-87 -9.5
q-65 0 -118 22t-90.5 62t-58 97t-20.5 127zM438 297q-9 60 -40.5 93.5t-84.5 33.5q-52 0 -88.5 -32t-50.5 -95h264z" />
    <glyph glyph-name="f" unicode="f" horiz-adv-x="398" 
d="M95 538q0 46 13.5 85t39 67t63.5 43.5t86 15.5q31 0 54 -7.5t38 -19.5t22 -27.5t7 -31.5q0 -24 -18 -40.5t-47 -22.5q-9 -2 -10 5q-6 32 -42 32q-33 0 -55 -26t-22 -75v-9h146v-112h-146v-474h-129v474h-80v112h80v11v0z" />
    <glyph glyph-name="g" unicode="g" horiz-adv-x="625" 
d="M276 14q-54 0 -99 19.5t-76.5 54.5t-49 83t-17.5 105t17.5 105t49 83.5t76.5 55t99 19.5q45 0 81.5 -12.5t65.5 -34.5v35h129v-468q0 -65 -19 -113.5t-54 -81t-84.5 -48.5t-109.5 -16q-97 0 -149.5 35t-52.5 89q0 28 16.5 48t45.5 24q9 1 10 -6q7 -35 40.5 -56t91.5 -21
q30 0 55 7t43 23.5t28 45t10 70.5v2q-29 -22 -65.5 -34.5t-81.5 -12.5zM164 276q0 -34 8.5 -62.5t25 -49.5t40.5 -33t56 -12q30 0 54.5 12t42.5 33.5t27.5 50t9.5 61.5q0 66 -37 106t-97 40q-63 0 -96.5 -39t-33.5 -107z" />
    <glyph glyph-name="h" unicode="h" horiz-adv-x="630" 
d="M432 289q0 73 -25.5 104t-66.5 31q-27 0 -52 -10t-44.5 -27.5t-31 -42t-11.5 -53.5v-350h-129v723q0 23 -5 34.5t-15 17.5q-8 5 0 10q14 9 38 16t47 7q27 0 45.5 -17t18.5 -61v-215q33 39 79.5 61t97.5 22q85 0 134 -63t49 -181v-354h-129v348v0z" />
    <glyph glyph-name="i" unicode="i" horiz-adv-x="276" 
d="M72 454q0 23 -5 34.5t-15 17.5q-8 5 0 10q14 9 38.5 16t47.5 7q27 0 46 -17t19 -61v-520h-131v513zM49 686q0 35 23 56.5t57 21.5t57 -21.5t23 -56.5t-23 -56.5t-57 -21.5t-57 21.5t-23 56.5z" />
    <glyph glyph-name="j" unicode="j" horiz-adv-x="285" 
d="M81 454q0 23 -5 34.5t-15 17.5q-8 5 0 10q14 9 38.5 16t47.5 7q27 0 46 -17t19 -61v-441q0 -59 -9 -100.5t-25 -68t-38 -39t-48 -12.5q-42 0 -65 24.5t-27 66.5q-2 11 9 8t24 0.5t23.5 16.5t17.5 37.5t7 64.5v436zM58 686q0 35 23 56.5t57 21.5t57 -21.5t23 -56.5
t-23 -56.5t-57 -21.5t-57 21.5t-23 56.5z" />
    <glyph glyph-name="k" unicode="k" horiz-adv-x="590" 
d="M565 13q11 0 10 -13q-4 -34 -24.5 -55.5t-59.5 -21.5q-48 0 -73 41t-32 119q-3 33 -7.5 54t-12 33.5t-17.5 17t-23 4.5q-33 0 -66 -25t-59 -66v-160h-129v723q0 23 -5 34.5t-15 17.5q-8 5 0 10q14 9 38 16t47 7q28 0 46 -17t18 -61v-406l166 189q16 17 22 32.5t-4 21.5
q-8 5 0 10q21 12 50 18t58 1q42 -8 40 -45t-44 -82l-112 -121q6 1 12.5 1h12.5q28 0 47.5 -11.5t32 -32.5t19.5 -50t11 -65q12 -118 53 -118z" />
    <glyph glyph-name="l" unicode="l" horiz-adv-x="276" 
d="M72 664q0 23 -5 34.5t-15 17.5q-8 5 0 10q14 9 38.5 16t47.5 7q28 0 46.5 -17t18.5 -61v-730h-131v723v0z" />
    <glyph glyph-name="m" unicode="m" horiz-adv-x="856" 
d="M363 304q0 66 -16.5 93t-50.5 27q-20 0 -38 -9t-31 -25t-20.5 -37.5t-7.5 -46.5v-365h-127v513q0 23 -5 34.5t-15 17.5q-8 5 0 10q14 9 37.5 16t46.5 7q26 0 43 -15t20 -52q26 32 60.5 49.5t74.5 17.5q50 0 83 -27t51 -75q26 48 68 75t93 27q78 0 118 -59t40 -170v-369
h-127v363q0 66 -17.5 93t-51.5 27q-21 0 -39.5 -9t-32.5 -25t-22.5 -37.5t-8.5 -46.5v-365h-125v363v0z" />
    <glyph glyph-name="n" unicode="n" horiz-adv-x="630" 
d="M432 289q0 73 -25.5 104t-66.5 31q-27 0 -52 -10t-44.5 -27.5t-31 -42t-11.5 -53.5v-350h-129v513q0 23 -5 34.5t-15 17.5q-8 5 0 10q14 9 38 16t47 7q27 0 45.5 -17t18.5 -61v-5q33 39 79.5 61t97.5 22q85 0 134 -63t49 -181v-354h-129v348v0z" />
    <glyph glyph-name="o" unicode="o" horiz-adv-x="630" 
d="M315 -76q-61 0 -112 22t-87.5 62.5t-57 97t-20.5 125.5t20.5 125.5t57 97t87.5 63t112 22.5t111.5 -22.5t87.5 -63t57.5 -97t20.5 -125.5t-20.5 -125.5t-57.5 -97t-87.5 -62.5t-111.5 -22zM168 231q0 -92 40.5 -141t106.5 -49t106.5 49t40.5 141t-40.5 141.5t-106.5 49.5
t-106.5 -49.5t-40.5 -141.5z" />
    <glyph glyph-name="p" unicode="p" horiz-adv-x="644" 
d="M358 -77q-48 0 -87 15.5t-69 43.5v-182h-129v654q0 23 -5 34.5t-15 17.5q-8 5 0 10q14 9 38 16t47 7q25 0 42 -13.5t21 -46.5q30 29 69.5 44.5t87.5 15.5q55 0 101 -23t78.5 -64.5t50.5 -98t18 -122.5t-18 -122.5t-50.5 -97.5t-78.5 -64.5t-101 -23.5zM197 231
q0 -42 10.5 -77.5t29 -60.5t45 -39t58.5 -14q66 0 101 52t35 139t-35 139t-101 52q-32 0 -58.5 -14t-45 -39t-29 -60.5t-10.5 -77.5z" />
    <glyph glyph-name="q" unicode="q" horiz-adv-x="644" 
d="M286 -77q-56 0 -101.5 23.5t-78 64.5t-50.5 97.5t-18 122.5t18 122.5t50.5 98t78 64.5t101.5 23q48 0 87 -15.5t69 -43.5v47h129v-727h-129v182q-30 -28 -69 -43.5t-87 -15.5zM168 231q0 -87 35 -139t101 -52q32 0 58.5 14t45 39t29 60.5t10.5 77.5t-10.5 77.5t-29 60.5
t-45 39t-58.5 14q-66 0 -101 -52t-35 -139z" />
    <glyph glyph-name="r" unicode="r" horiz-adv-x="484" 
d="M72 454q0 23 -5 34.5t-15 17.5q-8 5 0 10q14 9 38 16t47 7q27 0 45.5 -17t18.5 -61v-26q31 50 75 77t95 27q48 0 74.5 -25.5t26.5 -65.5q0 -42 -23.5 -65t-64.5 -29q-9 -2 -9 6q0 25 -12 39.5t-35 14.5q-24 0 -46.5 -14t-40.5 -40t-29 -63.5t-11 -85.5v-270h-129v513v0z
" />
    <glyph glyph-name="s" unicode="s" horiz-adv-x="539" 
d="M290 301q56 -14 95.5 -31t64 -39.5t36 -51.5t11.5 -66q0 -41 -17 -75.5t-48 -60t-74.5 -40t-97.5 -14.5q-48 0 -88 12t-69 32.5t-45 46.5t-16 54q0 32 19.5 49t51.5 21q9 1 10 -6q7 -44 41 -70t88 -26q56 0 85.5 21.5t29.5 53.5q0 24 -31 43.5t-110 39.5
q-98 25 -138.5 65.5t-40.5 103.5q0 39 16.5 71.5t46 55.5t70.5 36t89 13q47 0 85.5 -11.5t65.5 -30t42 -43t15 -50.5q0 -30 -19.5 -46.5t-51.5 -19.5q-8 -1 -10 7q-7 36 -38 58.5t-83 22.5q-48 0 -73 -16.5t-25 -41.5q0 -22 24 -36.5t89 -30.5z" />
    <glyph glyph-name="t" unicode="t" horiz-adv-x="403" 
d="M95 586q0 23 -5 34.5t-15 17.5q-8 5 0 10q14 9 38.5 16t47.5 7q28 0 46.5 -17t18.5 -61v-66h133v-112h-133v-287q0 -49 14.5 -65.5t36.5 -16.5q16 0 25 8t11 22q1 5 3.5 6t7.5 0q27 -4 43 -21.5t16 -43.5q0 -42 -31 -68t-90 -26q-82 0 -124.5 48t-42.5 153v291h-80v112
h80v59v0z" />
    <glyph glyph-name="u" unicode="u" horiz-adv-x="625" 
d="M197 173q0 -73 25 -104t65 -31q27 0 51.5 10t43 27.5t30 42t11.5 53.5v283q0 23 -5 34.5t-15 17.5q-8 5 0 10q14 9 38 16t47 7q27 0 45.5 -17t18.5 -61v-520h-117l-8 69q-33 -41 -79.5 -64t-98.5 -23q-85 0 -133 63t-48 181v287q0 23 -5 34.5t-15 17.5q-8 5 0 10
q14 9 38 16t47 7q27 0 45.5 -17t18.5 -61v-288v0z" />
    <glyph glyph-name="v" unicode="v" horiz-adv-x="556" 
d="M411 454q8 21 6 33.5t-10 18.5q-8 5 0 10q14 9 39 16t48 7q13 0 25.5 -5t19.5 -17t7 -32.5t-12 -50.5l-185 -493h-128l-184 513q-8 20 -14.5 33t-16.5 19q-8 5 0 10q14 9 37.5 16t46.5 7q27 0 45 -17t32 -61l119 -360l125 353v0z" />
    <glyph glyph-name="w" unicode="w" horiz-adv-x="815" 
d="M344 454q12 41 -4 52q-8 5 0 10q14 9 36 16t45 7q27 0 42 -18t26 -60l85 -326l101 319q13 40 -4 52q-8 5 0 10q14 9 38 16t47 7q13 0 24.5 -5t18 -17.5t6.5 -32.5t-10 -50l-159 -493h-117l-104 385l-107 -385h-117l-154 513q-11 40 -31 52q-8 5 0 10q14 9 37.5 16t46.5 7
q27 0 44.5 -18.5t28.5 -59.5l91 -325l90 318v0z" />
    <glyph glyph-name="x" unicode="x" horiz-adv-x="540" 
d="M388 -59l-116 193l-123 -193h-146l194 298l-124 207q-18 31 -27.5 41t-19.5 13q-9 4 -1 10q14 12 37 20.5t46 8.5q28 0 46.5 -15.5t42.5 -54.5l80 -131l79 116q26 39 9 56q-7 7 1 10q15 8 40 13.5t48 5.5q15 0 29.5 -7t21 -20.5t3 -34.5t-22.5 -48l-139 -195l186 -293
h-144z" />
    <glyph glyph-name="y" unicode="y" horiz-adv-x="550" 
d="M396 454q16 41 1 52q-8 5 0 10q14 9 40 16t49 7q13 0 26 -5t20.5 -17t7 -32.5t-13.5 -50.5l-168 -393q-29 -67 -55.5 -113t-52.5 -74.5t-53 -41.5t-55 -13q-42 0 -64 26t-26 71q-2 11 9 8q36 -11 73.5 9t75.5 89l-168 452q-15 39 -36 52q-8 5 0 10q14 9 37.5 16t46.5 7
q27 0 47 -18t35 -60l108 -297l116 290v0z" />
    <glyph glyph-name="z" unicode="z" horiz-adv-x="524" 
d="M25 21l285 392h-262v114h436v-80l-288 -392h222q22 0 33.5 4.5t19.5 15.5q5 7 10 0q9 -13 16 -32t7 -45q0 -30 -18 -43.5t-62 -13.5h-399v80z" />
    <glyph glyph-name="braceleft" unicode="{" horiz-adv-x="332" 
d="M30 384q27 9 38.5 29t14.5 47t1.5 58.5t0 63.5t9.5 61.5t30 52t62.5 36t105.5 13.5v-106q-42 0 -59.5 -16t-22 -42t-1.5 -58.5t1.5 -65t-12 -62.5t-41.5 -51q31 -21 41.5 -51t12 -62.5t-1.5 -65t1.5 -58.5t22 -42t59.5 -16v-106q-65 0 -105.5 13.5t-62.5 36t-30 52
t-9.5 61.5t0 63.5t-1.5 58.5t-14.5 47t-38.5 29v80v0z" />
    <glyph glyph-name="bar" unicode="|" horiz-adv-x="294" 
d="M214 770v-870h-134v870h134z" />
    <glyph glyph-name="braceright" unicode="}" horiz-adv-x="332" 
d="M40 49q42 0 59.5 16t22 42t1.5 58.5t-1.5 65t12 62.5t41.5 51q-31 21 -41.5 51t-12 62.5t1.5 65t-1.5 58.5t-22 42t-59.5 16v106q65 0 105.5 -13.5t62.5 -36t30 -52t9.5 -61.5t0 -63.5t1.5 -58.5t14.5 -47t38.5 -29v-80q-27 -9 -38.5 -29t-14.5 -47t-1.5 -58.5t0 -63.5
t-9.5 -61.5t-30 -52t-62.5 -36t-105.5 -13.5v106v0z" />
    <glyph glyph-name="asciitilde" unicode="~" horiz-adv-x="634" 
d="M57 263q0 43 11.5 79.5t32 63t49 41t63.5 14.5q48 0 78 -19t50.5 -41.5t36 -41.5t36.5 -19q46 0 47 68l116 -14q0 -40 -11.5 -74.5t-32 -60t-49.5 -40t-63 -14.5q-48 0 -77.5 19t-50 41.5t-36.5 41.5t-37 19q-23 0 -34.5 -17.5t-12.5 -59.5l-116 14v0z" />
    <glyph glyph-name="exclamdown" unicode="&#xa1;" horiz-adv-x="284" 
d="M142 606q35 0 58.5 -23t23.5 -59t-23.5 -59t-58.5 -23t-58.5 23t-23.5 59t23.5 59t58.5 23zM76 342h123l12 -447q1 -32 8 -44.5t17 -17.5q4 -2 4 -5t-4 -5q-20 -10 -46.5 -16.5t-52.5 -6.5q-31 0 -51.5 18.5t-19.5 69.5z" />
    <glyph glyph-name="currency" unicode="&#xa4;" horiz-adv-x="600" 
d="M522 40l-77 78q-59 -31 -130 -31q-70 0 -126 29l-75 -76l-87 87l70 71q-39 59 -39 136t39 136l-70 71l87 87l75 -75q55 29 126 29q73 0 130 -31l77 77l87 -87l-74 -74q37 -59 37 -133q0 -75 -37 -132l74 -75zM188 334q0 -66 36 -98t91 -32t91 32t36 98t-36 98.5t-91 32.5
t-91 -32.5t-36 -98.5z" />
    <glyph glyph-name="section" unicode="&#xa7;" horiz-adv-x="534" 
d="M292 197q35 9 52.5 31t17.5 53q0 29 -24.5 54t-86.5 46q-36 -7 -55 -31t-19 -55q0 -33 24 -57t89 -40zM42 -55q0 32 19.5 49t51.5 21q9 1 10 -6q7 -44 41 -70t88 -26q26 0 45.5 7t33 19t20 27.5t6.5 31.5q0 24 -28 48.5t-103 44.5q-98 26 -138.5 75t-40.5 124
q0 45 19.5 81.5t54.5 61.5q-37 26 -53 60t-16 76q0 39 15.5 73t44 59t67 39.5t85.5 14.5t85.5 -11.5t65.5 -30t42 -43t15 -50.5q0 -30 -19.5 -46.5t-51.5 -19.5q-8 -1 -10 7q-7 36 -38 58.5t-83 22.5q-44 0 -66 -21.5t-22 -46.5q0 -22 21 -41t82 -36q111 -30 159 -81
t48 -133q0 -44 -19.5 -79.5t-54.5 -59.5q37 -27 53 -62.5t16 -81.5q0 -41 -16 -77.5t-45.5 -63.5t-71.5 -43t-94 -16q-48 0 -88 12t-69 32.5t-45 46.5t-16 54z" />
    <glyph glyph-name="dieresis" unicode="&#xa8;" horiz-adv-x="400" 
d="M104 652q-32 0 -53 21t-21 54t21 54t53 21t53.5 -21t21.5 -54t-21.5 -54t-53.5 -21zM221 727q0 33 21.5 54t53.5 21t53 -21t21 -54t-21 -54t-53 -21t-53.5 21t-21.5 54z" />
    <glyph glyph-name="ordfeminine" unicode="&#xaa;" horiz-adv-x="379" 
d="M180 397q-32 0 -58 12.5t-44 35t-28 52t-10 64.5t10 65t28 52t44 34.5t58 12.5q34 0 62 -14v8h97v-313h-90l-1 8q-29 -17 -68 -17zM137 561q0 -85 52 -85q25 0 40.5 22t15.5 63q0 42 -15.5 64t-40.5 22q-52 0 -52 -86z" />
    <glyph glyph-name="uni00AD" unicode="&#xad;" horiz-adv-x="634" 
d="M567 269h-500v129h500v-129z" />
    <glyph glyph-name="registered" unicode="&#xae;" horiz-adv-x="600" 
d="M330 185q-67 0 -120.5 22.5t-91 60.5t-58 89t-20.5 108t20.5 108t58 89t91 60.5t120.5 22.5t120.5 -22t91 -60t58 -89t20.5 -109q0 -57 -20.5 -108t-58 -89t-91 -60.5t-120.5 -22.5zM112 465q0 -49 16 -88.5t45 -68t69 -44t88 -15.5t88 15.5t69 44t45 68t16 88.5
t-16 88.5t-45 68t-69 44t-88 15.5t-88 -15.5t-69 -44t-45 -68t-16 -88.5zM234 607h108q45 0 72.5 -22t27.5 -60q0 -43 -35 -67q14 -8 20 -22t7 -34q2 -25 6 -33.5t9 -8.5q6 0 6 -7q0 -14 -9.5 -25t-26.5 -11q-41 0 -43 64q-2 38 -13.5 47.5t-42.5 9.5h-28v-115h-58v284z
M340 489q24 0 33.5 8.5t9.5 26.5q0 16 -9.5 23.5t-33.5 7.5h-48v-66h48z" />
    <glyph glyph-name="degree" unicode="&#xb0;" horiz-adv-x="400" 
d="M45 747q0 31 11.5 57t32 45t49 30t62.5 11q33 0 61.5 -11t49.5 -30t32.5 -45t11.5 -57t-11.5 -57.5t-32.5 -45.5t-49.5 -29.5t-61.5 -10.5q-34 0 -62.5 10.5t-49 29.5t-32 45.5t-11.5 57.5zM142 747q0 -28 16 -44.5t42 -16.5t41.5 16.5t15.5 44.5q0 27 -15.5 44t-41.5 17
t-42 -17t-16 -44z" />
    <glyph glyph-name="plusminus" unicode="&#xb1;" horiz-adv-x="600" 
d="M567 357h-185v-174h-130v174h-185v125h185v169h130v-169h185v-125zM67 144h500v-129h-500v129z" />
    <glyph glyph-name="uni00B2" unicode="&#xb2;" horiz-adv-x="400" 
d="M57 327v28q0 59 35.5 103.5t91.5 84.5q40 29 54 47.5t14 38.5q0 42 -47 42q-33 0 -49 -18t-8 -49l-1 1q5 -14 -15 -19q-13 -3 -26.5 -2t-25 7.5t-18.5 18.5t-7 29q0 21 10.5 41t30 35.5t47.5 24.5t64 9q34 0 61 -10t45 -26.5t27.5 -38t9.5 -43.5q0 -42 -25.5 -77
t-76.5 -70q-28 -20 -47.5 -38.5t-30.5 -38.5h128q14 0 17.5 2.5t4.5 4.5q5 8 13 2q10 -7 17 -21t7 -28q0 -40 -56 -40h-244z" />
    <glyph glyph-name="uni00B3" unicode="&#xb3;" horiz-adv-x="400" 
d="M189 577q32 0 43.5 13.5t11.5 36.5q0 21 -10.5 30.5t-36.5 9.5q-32 0 -47 -15t-5 -46q2 -8 -1 -11t-11 -5q-13 -4 -27 -3t-25.5 7.5t-19 18.5t-7.5 30q0 20 10 38.5t28.5 32.5t45.5 22.5t61 8.5q36 0 63 -9.5t45 -25.5t27 -37t9 -43q0 -23 -10.5 -47t-35.5 -42
q27 -16 43 -40t16 -58q0 -26 -11 -49.5t-32 -41t-50.5 -28t-65.5 -10.5q-35 0 -63 9t-48 24.5t-31 36t-11 42.5q0 17 7.5 28.5t19.5 17.5t26 7t27 -2q9 -2 11.5 -5.5t0.5 -11.5q-10 -31 8.5 -50t50.5 -19q29 0 46 14t17 40q0 27 -17 42t-52 15h-37v75h37v0z" />
    <glyph glyph-name="acute" unicode="&#xb4;" horiz-adv-x="400" 
d="M60 642l125 170h155l-180 -170h-100z" />
    <glyph glyph-name="paragraph" unicode="&#xb6;" horiz-adv-x="586" 
d="M205 -59v424q-78 10 -121.5 59t-43.5 121q0 40 14 73.5t39.5 57.5t62.5 37.5t84 13.5h86v-786h-121zM385 727h121v-786h-121v786z" />
    <glyph glyph-name="periodcentered" unicode="&#xb7;" horiz-adv-x="280" 
d="M140 262q-35 0 -58.5 23t-23.5 59t23.5 59t58.5 23t58.5 -23t23.5 -59t-23.5 -59t-58.5 -23z" />
    <glyph glyph-name="cedilla" unicode="&#xb8;" horiz-adv-x="400" 
d="M197 -84q0 16 -19 20.5t-53 -6.5l26 96h118l-15 -30q41 -10 57 -33t16 -51q0 -51 -42 -81.5t-120 -30.5q-31 0 -52 8v87q15 -7 38 -7q46 0 46 28z" />
    <glyph glyph-name="uni00B9" unicode="&#xb9;" horiz-adv-x="400" 
d="M221 736h70v-413h-99v297l-74 -47l-43 71z" />
    <glyph glyph-name="ordmasculine" unicode="&#xba;" horiz-adv-x="389" 
d="M194 398q-35 0 -63 12t-48.5 34t-31.5 51.5t-11 65.5t11 66t31.5 52t48.5 34t63 12q34 0 63 -12t49 -34t31.5 -52t11.5 -66t-11.5 -65.5t-31.5 -51.5t-49 -34t-63 -12zM137 561q0 -45 15.5 -65t41.5 -20t42 20t16 65t-16 65.5t-42 20.5t-41.5 -20.5t-15.5 -65.5z" />
    <glyph glyph-name="onequarter" unicode="&#xbc;" horiz-adv-x="865" 
d="M271 -59h-121l464 786h121zM211 736h70v-413h-99v297l-74 -47l-43 71zM478 71l202 283h73v-256q14 0 20.5 2.5t8.5 5.5q3 7 9 1q21 -21 21 -49q0 -40 -56 -40h-3v-77h-92v77h-183v53zM661 98v98l-70 -98h70z" />
    <glyph glyph-name="onehalf" unicode="&#xbd;" horiz-adv-x="865" 
d="M251 -59h-121l464 786h121zM211 736h70v-413h-99v297l-74 -47l-43 71zM515 253q0 21 10.5 41t30 35.5t47.5 24.5t64 9q34 0 61 -10t45 -26.5t27.5 -38t9.5 -43.5q0 -42 -25.5 -77t-76.5 -70q-28 -20 -47.5 -38.5t-30.5 -38.5h128q14 0 17.5 2.5t4.5 4.5q5 8 13 2
q10 -7 17 -21t7 -28q0 -40 -56 -40h-244v28q0 59 35.5 103.5t91.5 84.5q40 29 54 47.5t14 38.5q0 42 -47 42q-33 0 -49 -18t-8 -49l-1 1q5 -14 -15 -19q-13 -3 -26.5 -2t-25 7.5t-18.5 18.5t-7 29z" />
    <glyph glyph-name="threequarters" unicode="&#xbe;" horiz-adv-x="865" 
d="M271 -59h-121l464 786h121zM44 426q0 17 7.5 28.5t19.5 17.5t26 7t27 -2q9 -2 11.5 -5.5t0.5 -11.5q-10 -31 8.5 -50t50.5 -19q29 0 46 14t17 40q0 27 -17 42t-52 15h-37v75h37q32 0 43.5 13.5t11.5 36.5q0 21 -10.5 30.5t-36.5 9.5q-32 0 -47 -15t-5 -46q2 -8 -1 -11
t-11 -5q-13 -4 -27 -3t-25.5 7.5t-19 18.5t-7.5 30q0 20 10 38.5t28.5 32.5t45.5 22.5t61 8.5q36 0 63 -9.5t45 -25.5t27 -37t9 -43q0 -23 -10.5 -47t-35.5 -42q27 -16 43 -40t16 -58q0 -26 -11 -49.5t-32 -41t-50.5 -28t-65.5 -10.5q-35 0 -63 9t-48 24.5t-31 36t-11 42.5z
M478 71l202 283h73v-256q14 0 20.5 2.5t8.5 5.5q3 7 9 1q21 -21 21 -49q0 -40 -56 -40h-3v-77h-92v77h-183v53zM661 98v98l-70 -98h70z" />
    <glyph glyph-name="questiondown" unicode="&#xbf;" horiz-adv-x="489" 
d="M267 606q35 0 58.5 -23t23.5 -59t-23.5 -59t-58.5 -23t-58.5 23t-23.5 59t23.5 59t58.5 23zM20 -6q0 43 13 77.5t33 64t43.5 56t44.5 54.5t35.5 58.5t17.5 67.5h120q2 -43 -9.5 -77.5t-31 -64t-42.5 -56t-43.5 -53t-34 -54.5t-13.5 -61q0 -49 26 -69.5t71 -20.5
q26 0 47.5 9t35 27t18 44t-3.5 59q-1 5 0.5 7t7.5 4q23 6 43.5 4t36.5 -12.5t25 -30t9 -47.5q0 -37 -16 -70t-45.5 -57.5t-71 -38.5t-91.5 -14q-55 0 -97 14.5t-70.5 40.5t-43 61.5t-14.5 77.5z" />
    <glyph glyph-name="AE" unicode="&#xc6;" horiz-adv-x="879" 
d="M308 588q19 40 18 66.5t-12 34.5q-9 7 1 12q20 11 48 18.5t60 7.5h326q22 0 33.5 4.5t19.5 15.5q5 7 10 0q9 -13 16 -33t7 -46q0 -30 -18 -44t-62 -14h-201v-203h180q22 0 33.5 4.5t19.5 15.5q5 7 10 0q9 -13 16 -32.5t7 -45.5q0 -30 -18 -43.5t-62 -13.5h-186v-234h209
q22 0 33.5 4.5t19.5 15.5q5 7 10 0q9 -13 16 -33t7 -46q0 -30 -18 -44t-62 -14h-346v198h-188l-89 -200h-141zM423 255v303l-136 -303h136z" />
    <glyph glyph-name="Eth" unicode="&#xd0;" horiz-adv-x="734" 
d="M339 727q85 0 150.5 -26.5t109.5 -76.5t67 -123.5t23 -166.5t-23 -166.5t-67 -123.5t-109.5 -76.5t-150.5 -26.5h-229v328h-70v129h70v329h229zM339 60q116 0 167 66.5t51 207.5q0 140 -51 207t-167 67h-98v-210h166v-129h-166v-209h98z" />
    <glyph glyph-name="multiply" unicode="&#xd7;" horiz-adv-x="634" 
d="M472 90l-154 156l-154 -156l-87 87l155 157l-155 157l87 87l154 -156l154 156l87 -87l-155 -157l155 -157z" />
    <glyph glyph-name="Oslash" unicode="&#xd8;" horiz-adv-x="744" 
d="M372 -77q-83 0 -147 36l-39 -66l-111 56l54 93q-40 53 -62 125.5t-22 166.5q0 98 25 174.5t68.5 129t103.5 80t130 27.5q82 0 147 -36l39 66l111 -56l-54 -93q40 -53 62 -125.5t22 -166.5q0 -98 -25 -174.5t-68.5 -129t-103.5 -80t-130 -27.5zM177 334q0 -100 26 -166
l255 436q-37 22 -86 22q-43 0 -78.5 -18t-61.5 -54t-40.5 -91t-14.5 -129zM286 64q37 -22 86 -22q43 0 78.5 17.5t61.5 53.5t40.5 91t14.5 130q0 99 -26 166z" />
    <glyph glyph-name="Thorn" unicode="&#xde;" horiz-adv-x="679" 
d="M211 597h128q76 0 132.5 -19t94 -52.5t55.5 -79.5t18 -101q0 -56 -18 -104t-55.5 -83t-94 -55t-132.5 -20h-128v-142h-131v786h131v-130zM349 200q84 0 121 37t37 103t-37 103t-121 37h-138v-280h138z" />
    <glyph glyph-name="germandbls" unicode="&#xdf;" horiz-adv-x="704" 
d="M80 477q0 52 17 98t52 79.5t88 53t124 19.5q130 0 196.5 -53.5t66.5 -148.5q0 -57 -24 -99.5t-76 -68.5q135 -53 135 -192q0 -51 -19 -92t-57 -70.5t-94.5 -45.5t-132.5 -16q-29 0 -56.5 3.5t-48.5 11.5v117q23 -8 53.5 -11.5t61.5 -3.5q83 0 122 29.5t39 89.5
q0 59 -40.5 89t-125.5 30h-62v115h57q70 0 103 23.5t33 75.5q0 51 -31.5 75.5t-99.5 24.5q-41 0 -69.5 -10.5t-46.5 -29.5t-26 -44.5t-8 -55.5v-529h-131v536v0z" />
    <glyph glyph-name="ae" unicode="&#xe6;" horiz-adv-x="916" 
d="M35 108q0 50 20 84.5t62 56t108 31.5t159 12q-20 132 -131 132q-27 0 -46.5 -7t-33 -19t-21.5 -27.5t-11 -31.5q-1 -7 -10 -6q-32 4 -51.5 20.5t-19.5 48.5q0 27 14.5 52t40.5 43.5t63.5 30t82.5 11.5q64 0 113 -23t81 -65q34 42 81.5 65t106.5 23q55 0 99 -22t75 -59.5
t47.5 -87.5t16.5 -106q0 -43 -6 -74h-355q15 -152 143 -152q47 0 71 21t31 54q1 7 10 6q32 -4 51.5 -20.5t19.5 -48.5q0 -54 -50 -90.5t-141 -36.5q-65 0 -115.5 23.5t-85.5 66.5q-32 -43 -79 -66.5t-107 -23.5q-53 0 -96 13.5t-73.5 38t-47 58.5t-16.5 75zM164 107
q0 -32 25 -50.5t79 -18.5q52 0 81.5 37.5t36.5 109.5q-64 -1 -107 -5.5t-68.5 -13.5t-36 -23.5t-10.5 -35.5zM749 297q-7 60 -32.5 93.5t-73.5 33.5t-78.5 -32t-41.5 -95h226z" />
    <glyph glyph-name="eth" unicode="&#xf0;" horiz-adv-x="635" 
d="M277 626q-31 0 -53 -8.5t-35 -22t-17.5 -30.5t-0.5 -34q3 -11 -10 -11q-41 -2 -68.5 15t-27.5 55q0 29 13 57t40 49.5t67 35t94 13.5q95 0 164 -46l91 61l61 -86l-76 -51q38 -56 57 -131t19 -166q0 -102 -20 -177.5t-57 -125.5t-90 -75t-118 -25q-66 0 -118 21.5t-88 60
t-55 90t-19 111.5q0 67 18.5 116.5t50.5 82.5t75 49t92 16q56 0 108 -21.5t87 -69.5q-5 55 -16.5 98.5t-31.5 75.5l-111 -75l-61 86l84 56q-23 6 -48 6zM162 204q0 -33 9 -62.5t26.5 -51.5t44.5 -35t63 -13q31 0 57 12t45 33t29.5 49.5t10.5 61.5q0 31 -10 60t-29.5 51.5
t-48.5 35.5t-66 13q-57 0 -94 -39t-37 -115z" />
    <glyph glyph-name="divide" unicode="&#xf7;" horiz-adv-x="634" 
d="M567 273h-500v121h500v-121zM235 134q0 36 23.5 59t58.5 23t58.5 -23t23.5 -59t-23.5 -59t-58.5 -23t-58.5 23t-23.5 59zM235 533q0 36 23.5 59t58.5 23t58.5 -23t23.5 -59t-23.5 -59t-58.5 -23t-58.5 23t-23.5 59z" />
    <glyph glyph-name="oslash" unicode="&#xf8;" horiz-adv-x="630" 
d="M315 -76q-55 0 -100 18l-29 -49l-111 56l38 63q-35 41 -55 96t-20 123q0 69 20.5 125.5t57 97t87.5 63t112 22.5q55 0 100 -18l29 49l111 -56l-38 -63q35 -41 55 -96.5t20 -123.5q0 -69 -20.5 -125.5t-57.5 -97t-87.5 -62.5t-111.5 -22zM168 231q0 -55 16 -98l169 284
q-20 5 -38 5q-66 0 -106.5 -49.5t-40.5 -141.5zM277 46q20 -5 38 -5q66 0 106.5 49t40.5 141q0 56 -17 99z" />
    <glyph glyph-name="thorn" unicode="&#xfe;" horiz-adv-x="600" 
d="M358 -77q-48 0 -87 15.5t-69 43.5v-182h-129v864q0 23 -5 34.5t-15 17.5q-8 5 0 10q14 9 38 16t47 7q28 0 46 -17t18 -61v-191q30 28 69 43.5t87 15.5q55 0 101 -23t78.5 -64.5t50.5 -98t18 -122.5t-18 -122.5t-50.5 -97.5t-78.5 -64.5t-101 -23.5zM197 231
q0 -42 10.5 -77.5t29 -60.5t45 -39t58.5 -14q66 0 101 52t35 139t-35 139t-101 52q-32 0 -58.5 -14t-45 -39t-29 -60.5t-10.5 -77.5z" />
    <glyph glyph-name="dcroat" unicode="&#x111;" horiz-adv-x="661" 
d="M286 -77q-56 0 -101.5 23.5t-78 64.5t-50.5 97.5t-18 122.5t18 122.5t50.5 98t78 64.5t101.5 23q48 0 87 -15.5t69 -43.5v89h-188v119h186q-4 20 -18 28q-8 5 0 10q14 9 38 16t47 7q25 0 42 -13.5t21 -47.5h51v-119h-50v-628h-117l-6 47q-31 -31 -71 -48t-91 -17z
M168 231q0 -87 35 -139t101 -52q32 0 58.5 14t45 39t29 60.5t10.5 77.5t-10.5 77.5t-29 60.5t-45 39t-58.5 14q-66 0 -101 -52t-35 -139z" />
    <glyph glyph-name="Hbar" unicode="&#x126;" horiz-adv-x="728" 
d="M517 654q0 23 -5 34.5t-15 17.5q-8 5 0 10q14 9 38.5 16t47.5 7q27 0 46 -17t19 -61v-13h50v-119h-50v-588h-131v352h-307v-352h-131v588h-50v119h50v6q0 23 -5 34.5t-15 17.5q-8 5 0 10q14 9 38.5 16t47.5 7q27 0 46 -17t19 -61v-13h307v6zM517 413v116h-307v-116h307z
" />
    <glyph glyph-name="hbar" unicode="&#x127;" horiz-adv-x="630" 
d="M432 289q0 73 -25.5 104t-66.5 31q-27 0 -52 -10t-44.5 -27.5t-31 -42t-11.5 -53.5v-350h-129v628h-50v119h48q-4 20 -18 28q-8 5 0 10q14 9 38 16t47 7q24 0 41.5 -13.5t21.5 -47.5h189v-119h-188v-113q33 39 79.5 61t97.5 22q85 0 134 -63t49 -181v-354h-129v348v0z
" />
    <glyph glyph-name="dotlessi" unicode="&#x131;" horiz-adv-x="283" 
d="M72 454q0 23 -5 34.5t-15 17.5q-8 5 0 10q14 9 38.5 16t47.5 7q27 0 46 -17t19 -61v-520h-131v513v0z" />
    <glyph glyph-name="IJ" unicode="&#x132;" horiz-adv-x="837" 
d="M79 654q0 23 -5 34.5t-15 17.5q-8 5 0 10q14 9 39 16t48 7q28 0 47 -17t19 -61v-720h-133v713zM262 113q0 57 29.5 81.5t75.5 23.5q12 0 9 -12q-6 -26 -4 -54.5t15 -53t38 -40.5t64 -16q66 0 101 43t35 134v435q0 23 -5 34.5t-15 17.5q-8 5 0 10q14 9 39 16t48 7
q28 0 46.5 -17t18.5 -61v-437q0 -152 -71.5 -226.5t-195.5 -74.5q-58 0 -100.5 17.5t-71 44.5t-42.5 61t-14 67z" />
    <glyph glyph-name="ij" unicode="&#x133;" horiz-adv-x="506" 
d="M72 454q0 23 -5 34.5t-15 17.5q-8 5 0 10q14 9 38.5 16t47.5 7q27 0 46 -17t19 -61v-520h-131v513zM49 686q0 35 23 56.5t57 21.5t57 -21.5t23 -56.5t-23 -56.5t-57 -21.5t-57 21.5t-23 56.5zM221 -109q-2 11 9 8t24 0.5t23.5 16.5t17.5 37.5t7 64.5v436q0 23 -5 34.5
t-15 17.5q-8 5 0 10q14 9 38.5 16t47.5 7q27 0 46 -17t19 -61v-441q0 -59 -9 -100.5t-25 -68t-38 -39t-48 -12.5q-42 0 -65 24.5t-27 66.5zM279 686q0 35 23 56.5t57 21.5t57 -21.5t23 -56.5t-23 -56.5t-57 -21.5t-57 21.5t-23 56.5z" />
    <glyph glyph-name="kgreenlandic" unicode="&#x138;" horiz-adv-x="600" 
d="M565 13q11 0 10 -13q-4 -34 -24.5 -55.5t-59.5 -21.5q-48 0 -73 41t-32 119q-3 33 -7.5 54t-12 33.5t-17.5 17t-23 4.5q-33 0 -66 -25t-59 -66v-160h-129v513q0 23 -5 34.5t-15 17.5q-8 5 0 10q14 9 38 16t47 7q28 0 46 -17t18 -61v-196l166 189q16 17 22 32.5t-4 21.5
q-8 5 0 10q21 12 50 18t58 1q42 -8 40 -45t-44 -82l-112 -121q6 1 12.5 1h12.5q28 0 47.5 -11.5t32 -32.5t19.5 -50t11 -65q12 -118 53 -118z" />
    <glyph glyph-name="Ldot" unicode="&#x13f;" horiz-adv-x="621" 
d="M213 62h297q22 0 33.5 4.5t19.5 15.5q5 7 10 0q9 -13 16 -34t7 -47q0 -30 -18 -45t-62 -15h-436v713q0 23 -5 34.5t-15 17.5q-8 5 0 10q14 9 39 16t48 7q28 0 47 -17t19 -61v-599zM309 366q0 35 23 56.5t57 21.5t57 -21.5t23 -56.5t-23 -56.5t-57 -21.5t-57 21.5
t-23 56.5z" />
    <glyph glyph-name="ldot" unicode="&#x140;" horiz-adv-x="439" 
d="M72 664q0 23 -5 34.5t-15 17.5q-8 5 0 10q14 9 38.5 16t47.5 7q28 0 46.5 -17t18.5 -61v-730h-131v723zM249 366q0 35 23 56.5t57 21.5t57 -21.5t23 -56.5t-23 -56.5t-57 -21.5t-57 21.5t-23 56.5z" />
    <glyph glyph-name="Lslash" unicode="&#x141;" horiz-adv-x="670" 
d="M262 489l71 31l51 -106l-122 -53v-299h297q22 0 33.5 4.5t19.5 15.5q5 7 10 0q9 -13 16 -34t7 -47q0 -30 -18 -45t-62 -15h-436v362l-58 -25l-51 106l109 47v223q0 23 -5 34.5t-15 17.5q-8 5 0 10q14 9 39 16t48 7q28 0 47 -17t19 -61v-172z" />
    <glyph glyph-name="lslash" unicode="&#x142;" horiz-adv-x="404" 
d="M136 664q0 23 -5 34.5t-15 17.5q-8 5 0 10q14 9 38.5 16t47.5 7q28 0 46.5 -17t18.5 -61v-180l66 29l51 -106l-117 -51v-422h-131v365l-65 -28l-51 106l116 50v230v0z" />
    <glyph glyph-name="napostrophe" unicode="&#x149;" horiz-adv-x="720" 
d="M522 289q0 73 -25.5 104t-66.5 31q-27 0 -52 -10t-44.5 -27.5t-31 -42t-11.5 -53.5v-350h-129v513q0 23 -5 34.5t-15 17.5q-8 5 0 10q14 9 38 16t47 7q27 0 45.5 -17t18.5 -61v-5q33 39 79.5 61t97.5 22q85 0 134 -63t49 -181v-354h-129v348zM25 682q0 29 19.5 48
t50.5 19q33 0 56.5 -22t23.5 -70q0 -33 -11.5 -61t-29 -48.5t-39 -31.5t-41.5 -11q-16 0 -27 8q-6 4 1 8q5 3 14.5 15t9.5 32q0 19 -4 33t-9.5 26t-9.5 25t-4 30z" />
    <glyph glyph-name="Eng" unicode="&#x14a;" horiz-adv-x="733" 
d="M522 654q0 23 -5 34.5t-15 17.5q-8 5 0 10q14 9 38.5 16t47.5 7q27 0 46 -17t19 -61v-641q0 -59 -9 -100.5t-25 -68t-38 -39t-48 -12.5q-42 0 -65 24.5t-27 66.5q-2 11 9 8q10 -3 21 -1t20.5 11t17.5 26.5t11 44.5l-310 527v-566h-131v713q0 23 -5 34.5t-15 17.5
q-8 5 0 10q12 9 34.5 16t45.5 7q28 0 53 -14t50 -55l280 -471v455v0z" />
    <glyph glyph-name="eng" unicode="&#x14b;" horiz-adv-x="630" 
d="M432 289q0 73 -25.5 104t-66.5 31q-27 0 -52 -10t-44.5 -27.5t-31 -42t-11.5 -53.5v-350h-129v513q0 23 -5 34.5t-15 17.5q-8 5 0 10q14 9 38 16t47 7q27 0 45.5 -17t18.5 -61v-5q33 39 79.5 61t97.5 22q85 0 134 -63t49 -181v-275q0 -59 -8.5 -100.5t-24.5 -68
t-37.5 -39t-47.5 -12.5q-42 0 -65 24.5t-27 66.5q-2 11 9 8t24 0.5t23.5 16.5t17.5 37.5t7 64.5v271v0z" />
    <glyph glyph-name="OE" unicode="&#x152;" horiz-adv-x="871" 
d="M541 292v-234h209q22 0 33.5 4.5t19.5 15.5q5 7 10 0q9 -13 16 -33t7 -46q0 -30 -18 -44t-62 -14h-309q-45 -18 -95 -18q-66 0 -122.5 27.5t-97.5 80t-64 129t-23 174.5t23 174.5t64 129t97.5 80t122.5 27.5q51 0 95 -18h289q22 0 33.5 4.5t19.5 15.5q5 7 10 0
q9 -13 16 -33t7 -46q0 -30 -18 -44t-62 -14h-201v-203h180q22 0 33.5 4.5t19.5 15.5q5 7 10 0q9 -13 16 -32.5t7 -45.5q0 -30 -18 -43.5t-62 -13.5h-186zM177 334q0 -149 48.5 -220.5t126.5 -71.5q32 0 58 14v556q-26 14 -58 14q-78 0 -126.5 -71.5t-48.5 -220.5z" />
    <glyph glyph-name="oe" unicode="&#x153;" horiz-adv-x="933" 
d="M285 -76q-56 0 -102 22t-78 62.5t-49.5 97t-17.5 125.5t17.5 125.5t49.5 97t78 63t102 22.5q58 0 104.5 -23.5t78.5 -66.5q34 43 81.5 66.5t107.5 23.5q55 0 99 -22t75 -59.5t47.5 -87.5t16.5 -106q0 -43 -6 -74h-355q15 -152 143 -152q47 0 71 21t31 54q1 7 10 6
q32 -4 51.5 -20.5t19.5 -48.5q0 -54 -50 -90.5t-141 -36.5q-65 0 -115.5 23.5t-85.5 66.5q-32 -42 -78.5 -65.5t-104.5 -23.5zM168 231q0 -92 30 -141t87 -49t87 49t30 141t-30 141.5t-87 49.5t-87 -49.5t-30 -141.5zM763 297q-7 60 -32.5 93.5t-73.5 33.5t-78.5 -32
t-41.5 -95h226z" />
    <glyph glyph-name="Tbar" unicode="&#x166;" horiz-adv-x="655" 
d="M544 727q22 0 33.5 4.5t19.5 15.5q5 7 10 0q9 -13 16 -34t7 -47q0 -31 -18 -45.5t-62 -14.5h-156v-118h137v-119h-137v-428h-133v428h-137v119h137v118h-156q-44 0 -62 14.5t-18 45.5q0 26 7 47t16 34q5 7 10 0q8 -11 19.5 -15.5t33.5 -4.5h433v0z" />
    <glyph glyph-name="tbar" unicode="&#x167;" horiz-adv-x="408" 
d="M95 586q0 23 -5 34.5t-15 17.5q-8 5 0 10q14 9 38.5 16t47.5 7q28 0 46.5 -17t18.5 -61v-66h133v-112h-133v-68h133v-112h-133v-107q0 -49 14.5 -65.5t36.5 -16.5q16 0 25 8t11 22q1 5 3.5 6t7.5 0q27 -4 43 -21.5t16 -43.5q0 -42 -31 -68t-90 -26q-82 0 -124.5 48
t-42.5 153v111h-80v112h80v68h-80v112h80v59v0z" />
    <glyph glyph-name="caron" unicode="&#x2c7;" horiz-adv-x="400" 
d="M20 822h124l56 -99l56 99h124l-120 -190h-120z" />
    <glyph glyph-name="uni02D0" unicode="&#x2d0;" horiz-adv-x="390" 
d="M195 372l-125 238h250zM195 287l125 -237h-250z" />
    <glyph glyph-name="breve" unicode="&#x2d8;" horiz-adv-x="400" 
d="M144 822q0 -49 13.5 -69t42.5 -20q28 0 42 20t14 69h124q0 -97 -49.5 -143.5t-130.5 -46.5t-130.5 46.5t-49.5 143.5h124v0z" />
    <glyph glyph-name="dotaccent" unicode="&#x2d9;" horiz-adv-x="400" 
d="M200 636q-38 0 -64.5 25.5t-26.5 65.5t26.5 65.5t64.5 25.5t64.5 -25.5t26.5 -65.5t-26.5 -65.5t-64.5 -25.5z" />
    <glyph glyph-name="ring" unicode="&#x2da;" horiz-adv-x="400" 
d="M200 616q-25 0 -46.5 8.5t-37 23t-24 35t-8.5 44.5t8.5 44.5t24 35t37 23t46.5 8.5t46.5 -8.5t37 -23t24 -35t8.5 -44.5t-8.5 -44.5t-24 -35t-37 -23t-46.5 -8.5zM143 727q0 -27 15.5 -44t41.5 -17t41.5 17t15.5 44t-15.5 44t-41.5 17t-41.5 -17t-15.5 -44z" />
    <glyph glyph-name="ogonek" unicode="&#x2db;" horiz-adv-x="400" 
d="M218 -68q0 -33 32 -33q28 0 52 18v-95q-30 -22 -87 -22q-55 0 -86 24.5t-31 69.5q0 40 22 73.5t57 58.5h84q-25 -26 -34 -50.5t-9 -43.5z" />
    <glyph glyph-name="hungarumlaut" unicode="&#x2dd;" horiz-adv-x="400" 
d="M20 642l70 170h130l-110 -170h-90zM260 812h130l-110 -170h-90z" />
    <glyph glyph-name="Alpha" unicode="&#x391;" horiz-adv-x="681" 
d="M218 606q13 41 15 67t-9 34q-9 7 1 12q20 11 48 18.5t60 7.5q41 0 67.5 -24t47.5 -88l228 -694h-138l-65 209h-267l-63 -209h-138zM437 264l-99 320l-97 -320h196z" />
    <glyph glyph-name="Beta" unicode="&#x392;" horiz-adv-x="704" 
d="M366 58q83 0 122 29.5t39 89.5q0 59 -40.5 89t-125.5 30h-150v-238h155zM80 727h271q137 0 205 -53.5t68 -148.5q0 -57 -24 -99.5t-76 -68.5q135 -53 135 -192q0 -51 -19 -92t-57 -70.5t-94.5 -45.5t-132.5 -16h-276v786zM356 411q70 0 103 23.5t33 75.5q0 51 -31.5 75.5
t-99.5 24.5h-150v-199h145z" />
    <glyph glyph-name="Gamma" unicode="&#x393;" horiz-adv-x="631" 
d="M510 727q22 0 33.5 4.5t19.5 15.5q5 7 10 0q9 -13 16 -33t7 -46q0 -30 -18 -44t-62 -14h-305v-669h-131v786h430v0z" />
    <glyph glyph-name="uni0394" unicode="&#x394;" horiz-adv-x="681" 
d="M218 606q13 41 15 67t-9 34q-9 7 1 12q20 11 48 18.5t60 7.5q41 0 67.5 -24t47.5 -88l228 -694h-671zM502 55l-164 529l-160 -529h324z" />
    <glyph glyph-name="Epsilon" unicode="&#x395;" horiz-adv-x="641" 
d="M211 292v-234h309q22 0 33.5 4.5t19.5 15.5q5 7 10 0q9 -13 16 -33t7 -46q0 -30 -18 -44t-62 -14h-446v786h426q22 0 33.5 4.5t19.5 15.5q5 7 10 0q9 -13 16 -33t7 -46q0 -30 -18 -44t-62 -14h-301v-203h280q22 0 33.5 4.5t19.5 15.5q5 7 10 0q9 -13 16 -32.5t7 -45.5
q0 -30 -18 -43.5t-62 -13.5h-286z" />
    <glyph glyph-name="Zeta" unicode="&#x396;" horiz-adv-x="644" 
d="M35 21l382 590h-360v116h537v-80l-384 -590h323q22 0 33.5 4.5t19.5 15.5q5 7 10 0q9 -13 16 -32.5t7 -45.5q0 -30 -18 -44t-62 -14h-504v80z" />
    <glyph glyph-name="Eta" unicode="&#x397;" horiz-adv-x="728" 
d="M517 654q0 23 -5 34.5t-15 17.5q-8 5 0 10q14 9 38.5 16t47.5 7q27 0 46 -17t19 -61v-720h-131v352h-307v-352h-131v713q0 23 -5 34.5t-15 17.5q-8 5 0 10q14 9 38.5 16t47.5 7q27 0 46 -17t19 -61v-248h307v241v0z" />
    <glyph glyph-name="Theta" unicode="&#x398;" horiz-adv-x="744" 
d="M372 -77q-70 0 -130 27.5t-103.5 80t-68.5 129t-25 174.5t25 174.5t68.5 129t103.5 80t130 27.5t130 -27.5t103.5 -80t68.5 -129t25 -174.5t-25 -174.5t-68.5 -129t-103.5 -80t-130 -27.5zM177 334q0 -75 14.5 -130t40.5 -91t61.5 -53.5t78.5 -17.5t78.5 17.5t61.5 53.5
t40.5 91t14.5 130q0 74 -14.5 129t-40.5 91t-61.5 54t-78.5 18t-78.5 -18t-61.5 -54t-40.5 -91t-14.5 -129zM237 398h270v-129h-270v129z" />
    <glyph glyph-name="Iota" unicode="&#x399;" horiz-adv-x="292" 
d="M79 654q0 23 -5 34.5t-15 17.5q-8 5 0 10q14 9 39 16t48 7q28 0 47 -17t19 -61v-720h-133v713v0z" />
    <glyph glyph-name="Kappa" unicode="&#x39a;" horiz-adv-x="716" 
d="M681 15q11 0 10 -13q-4 -34 -24.5 -56.5t-59.5 -22.5q-50 0 -80 48t-35 142q-3 55 -12 92.5t-24.5 60t-36.5 32.5t-48 10q-48 0 -87.5 -26t-71.5 -69v-272h-133v713q0 23 -5 34.5t-15 17.5q-8 5 0 10q14 9 39 16t48 7q28 0 47 -17t19 -61v-282l258 275q17 17 23 32.5
t-4 21.5q-8 5 0 10q21 11 51.5 17t59.5 1q21 -4 32.5 -16t12.5 -29.5t-9.5 -38.5t-32.5 -42l-209 -203q18 3 38 3q89 0 133.5 -62t54.5 -177q7 -81 22.5 -118.5t38.5 -37.5z" />
    <glyph glyph-name="Lambda" unicode="&#x39b;" horiz-adv-x="681" 
d="M218 606q13 41 15 67t-9 34q-9 7 1 12q20 11 48 18.5t60 7.5q41 0 67.5 -24t47.5 -88l228 -694h-138l-200 645l-195 -645h-138l213 667v0z" />
    <glyph glyph-name="Mu" unicode="&#x39c;" horiz-adv-x="937" 
d="M79 654q0 23 -5 34.5t-15 17.5q-8 5 0 10q12 9 35.5 16t46.5 7q15 0 29.5 -4t28 -14.5t26 -28.5t23.5 -47l220 -572l259 654h130v-786h-129v496l-197 -496h-127l-196 496v-496h-129v713v0z" />
    <glyph glyph-name="Nu" unicode="&#x39d;" horiz-adv-x="733" 
d="M522 654q0 23 -5 34.5t-15 17.5q-8 5 0 10q14 9 38.5 16t47.5 7q27 0 46 -17t19 -61v-720h-110l-333 566v-566h-131v713q0 23 -5 34.5t-15 17.5q-8 5 0 10q12 9 34.5 16t45.5 7q28 0 53 -14t50 -55l280 -471v455v0z" />
    <glyph glyph-name="Xi" unicode="&#x39e;" horiz-adv-x="655" 
d="M534 727q22 0 33.5 4.5t19.5 15.5q5 7 10 0q9 -13 16 -34t7 -47q0 -31 -18 -45.5t-62 -14.5h-425q-44 0 -62 14.5t-18 45.5q0 26 7 47t16 34q5 7 10 0q8 -11 19.5 -15.5t33.5 -4.5h413zM25 1q0 26 7 47t16 34q5 7 10 0q8 -11 19.5 -15.5t33.5 -4.5h433q22 0 33.5 4.5
t19.5 15.5q5 7 10 0q9 -13 16 -34t7 -47q0 -31 -18 -45.5t-62 -14.5h-445q-44 0 -62 14.5t-18 45.5zM55 351q0 26 7 47t16 34q5 7 10 0q8 -11 19.5 -15.5t33.5 -4.5h373q22 0 33.5 4.5t19.5 15.5q5 7 10 0q9 -13 16 -34t7 -47q0 -31 -18 -45.5t-62 -14.5h-385
q-44 0 -62 14.5t-18 45.5z" />
    <glyph glyph-name="Omicron" unicode="&#x39f;" horiz-adv-x="744" 
d="M372 -77q-70 0 -130 27.5t-103.5 80t-68.5 129t-25 174.5t25 174.5t68.5 129t103.5 80t130 27.5t130 -27.5t103.5 -80t68.5 -129t25 -174.5t-25 -174.5t-68.5 -129t-103.5 -80t-130 -27.5zM177 334q0 -75 14.5 -130t40.5 -91t61.5 -53.5t78.5 -17.5t78.5 17.5t61.5 53.5
t40.5 91t14.5 130q0 74 -14.5 129t-40.5 91t-61.5 54t-78.5 18t-78.5 -18t-61.5 -54t-40.5 -91t-14.5 -129z" />
    <glyph glyph-name="Pi" unicode="&#x3a0;" horiz-adv-x="729" 
d="M649 -59h-131v666h-307v-666h-131v786h569v-786z" />
    <glyph glyph-name="Rho" unicode="&#x3a1;" horiz-adv-x="679" 
d="M80 727h259q76 0 132.5 -19t94 -52.5t55.5 -79.5t18 -101q0 -56 -18 -104t-55.5 -83t-94 -55t-132.5 -20h-128v-272h-131v786zM349 330q84 0 121 37t37 103t-37 103t-121 37h-138v-280h138z" />
    <glyph glyph-name="Sigma" unicode="&#x3a3;" horiz-adv-x="647" 
d="M80 27l235 299l-234 304v97h522v-117h-354l214 -278l-220 -274h374v-116h-537v85z" />
    <glyph glyph-name="Tau" unicode="&#x3a4;" horiz-adv-x="655" 
d="M544 727q22 0 33.5 4.5t19.5 15.5q5 7 10 0q9 -13 16 -34t7 -47q0 -31 -18 -45.5t-62 -14.5h-156v-665h-133v665h-156q-44 0 -62 14.5t-18 45.5q0 26 7 47t16 34q5 7 10 0q8 -11 19.5 -15.5t33.5 -4.5h433v0z" />
    <glyph glyph-name="Upsilon" unicode="&#x3a5;" horiz-adv-x="658" 
d="M497 646q13 25 13 40.5t-8 21.5q-8 5 0 10q15 8 38.5 14.5t48.5 6.5q16 0 29 -6t20 -19t5 -33t-16 -47l-225 -447v-246h-133v246l-225 467q-11 23 -20.5 34.5t-19.5 14.5q-4 2 -4 5t4 5q14 11 37 18.5t49 7.5q29 0 48.5 -18t39.5 -60l157 -337l162 322v0z" />
    <glyph glyph-name="Phi" unicode="&#x3a6;" horiz-adv-x="804" 
d="M637 334q0 49 -12.5 84t-34.5 58.5t-53 36.5t-68 19v-396q37 6 68 19t53 36.5t34.5 58.5t12.5 84zM35 334q0 73 22.5 129t62.5 95.5t95 62t120 30.5v76h134v-76q65 -8 120 -30.5t95 -62t62.5 -95.5t22.5 -129q0 -74 -22.5 -129.5t-62.5 -95t-95 -62.5t-120 -30v-76h-134
v76q-65 7 -120 30t-95 62.5t-62.5 95t-22.5 129.5zM167 334q0 -49 12.5 -84t34.5 -58.5t53 -36.5t68 -19v396q-37 -6 -68 -19t-53 -36.5t-34.5 -58.5t-12.5 -84z" />
    <glyph glyph-name="Chi" unicode="&#x3a7;" horiz-adv-x="675" 
d="M516 -59l-176 288l-179 -288h-151l252 399l-182 306q-17 29 -27 40t-20 14q-9 4 -1 10q14 12 38.5 20.5t47.5 8.5q28 0 48 -16t43 -54l138 -225l137 210q25 40 9 56q-7 7 1 10q15 8 41 13.5t49 5.5q15 0 29.5 -7t21.5 -21t4 -34.5t-21 -47.5l-199 -295l246 -393h-149z
" />
    <glyph glyph-name="Psi" unicode="&#x3a8;" horiz-adv-x="600" 
d="M574 654q0 23 -5 34.5t-15 17.5q-8 5 0 10q14 9 38.5 16t47.5 7q27 0 46 -17t19 -61v-192q0 -151 -71.5 -233.5t-196.5 -98.5v-196h-131v196q-125 16 -196 98.5t-71 233.5v185q0 23 -5 34.5t-15 17.5q-8 5 0 10q14 9 38.5 16t47.5 7q27 0 46 -17t19 -61v-192
q0 -87 35 -139.5t101 -69.5v394q0 23 -5 34.5t-15 17.5q-8 5 0 10q14 9 38.5 16t47.5 7q27 0 46 -17t19 -61v-401q66 17 101.5 69t35.5 140v185v0z" />
    <glyph glyph-name="uni03A9" unicode="&#x3a9;" horiz-adv-x="1000" 
d="M502 637q-34 0 -64 -15t-52.5 -42.5t-35.5 -68t-13 -91.5q0 -53 11.5 -94.5t31.5 -71.5t46 -47.5t56 -23.5v-233h-251v82h118v102q-74 45 -110.5 119t-36.5 167q0 71 22.5 128t63 97t95 61.5t119.5 21.5q64 0 119 -21.5t95.5 -61.5t63 -97t22.5 -128q0 -93 -36.5 -167
t-110.5 -119v-102h118v-82h-251v233q30 6 56 23.5t46 47.5t31.5 71.5t11.5 94.5q0 51 -13 91.5t-35.5 68t-52.5 42.5t-64 15z" />
    <glyph glyph-name="alpha" unicode="&#x3b1;" horiz-adv-x="635" 
d="M174 216q2 -89 25.5 -136t81.5 -47q34 0 55.5 12.5t34 36t17.5 57.5t5 77q0 98 -28 140t-85 43q-29 1 -49.5 -12t-33.5 -37t-18.5 -58.5t-4.5 -75.5zM38 216q0 69 19 122.5t51 90.5t74.5 56.5t89.5 19.5q25 0 44 -3t36 -9t34 -16t37 -24q9 19 13.5 27t12.5 18h149
q-42 -50 -61.5 -121.5t-19.5 -162.5q0 -88 28 -131.5t64 -50.5l-86 -101q-35 23 -80 63q-20 -19 -38 -31.5t-37.5 -20.5t-42.5 -11.5t-53 -3.5q-51 0 -93.5 21.5t-74 60t-49 91.5t-17.5 116z" />
    <glyph glyph-name="beta" unicode="&#x3b2;" horiz-adv-x="552" 
d="M42 -200v744q0 42 10.5 78.5t34.5 63.5t62 42.5t93 15.5q47 0 86 -12t67.5 -35.5t44.5 -59t16 -81.5q0 -47 -22 -84t-57 -66q28 -16 52 -37t42 -46.5t28.5 -56t10.5 -65.5q0 -57 -20 -100.5t-54 -72t-80.5 -43t-98.5 -14.5q-16 0 -35.5 3t-45.5 8v-182h-134zM176 95
q40 -19 84 -19q118 0 118 125q0 43 -14 71t-36.5 45t-50.5 24t-56 7v99q45 0 73.5 25.5t28.5 83.5q0 47 -19.5 65.5t-61.5 18.5q-40 0 -53 -22.5t-13 -70.5v-452z" />
    <glyph glyph-name="gamma" unicode="&#x3b3;" horiz-adv-x="658" 
d="M321 -66q0 10 -3 26t-14 35q-17 -20 -27.5 -37.5t-10.5 -36.5q0 -20 20 -20q13 0 24 8.5t11 24.5zM33 454q14 27 30.5 43.5t34 26t35.5 12.5t36 3q25 0 47.5 -6t40.5 -21.5t32.5 -41t24.5 -64.5l37 -143l169 264l107 -54l-237 -355q17 -53 27 -105.5t10 -81.5
q0 -25 -9.5 -48.5t-28 -42t-45 -29.5t-60.5 -11q-40 0 -66 11.5t-41.5 29.5t-22 40t-6.5 43q0 90 105 214l-65 254q-6 23 -16.5 30t-18.5 7q-17 0 -23.5 -4.5t-13.5 -23.5z" />
    <glyph glyph-name="delta" unicode="&#x3b4;" horiz-adv-x="658" 
d="M37 202q0 81 30 145t93 102q-42 27 -60 60t-18 55q0 75 52.5 117t165.5 42q67 0 119.5 -24t88.5 -59l-75 -81q-39 31 -71 45t-66 14q-42 0 -58 -6.5t-16 -36.5q0 -22 21 -44t75 -36h13q66 0 119.5 -20t91.5 -57.5t58.5 -92t20.5 -123.5q0 -71 -20.5 -125.5t-58.5 -92
t-91 -56.5t-119 -19q-65 0 -119 19.5t-93 56.5t-61 91.5t-22 125.5zM171 202q0 -89 38.5 -135.5t119.5 -46.5t120 46.5t39 135.5q0 88 -39 134t-120 46t-119.5 -46.5t-38.5 -133.5z" />
    <glyph glyph-name="epsilon" unicode="&#x3b5;" horiz-adv-x="546" 
d="M238 178q-34 0 -49.5 -19t-13.5 -73q3 -40 30.5 -53t78.5 -13q24 0 41.5 3.5t32.5 11.5t30 21.5t33 33.5l87 -68q-27 -33 -53.5 -53.5t-54 -31.5t-56.5 -14.5t-60 -3.5q-111 0 -176 43t-65 123q0 54 20.5 89.5t52.5 57.5q-31 21 -46.5 52t-13.5 62q4 78 56.5 121.5
t157.5 43.5q76 0 135.5 -30.5t92.5 -81.5l-92 -60q-26 33 -59.5 52t-76.5 19q-26 0 -41.5 -3.5t-24 -11.5t-11.5 -20t-3 -30q0 -38 11 -53.5t37 -15.5h114v-98h-114v0z" />
    <glyph glyph-name="zeta" unicode="&#x3b6;" horiz-adv-x="627" 
d="M55 715q108 -24 218 -24q92 0 188 21l1 -103q-30 -8 -67.5 -12t-71.5 -6q-77 -23 -113.5 -88.5t-36.5 -162.5q0 -67 13 -114.5t40 -78t70 -44.5t103 -14q91 0 140 -31.5t49 -100.5q0 -77 -72 -118t-213 -39v99q45 0 74.5 2.5t47 8.5t24.5 16t7 24q0 23 -14 31.5t-43 8.5
q-77 0 -142.5 17.5t-114 58t-76 107t-27.5 164.5q0 68 23 132t77 127q-19 2 -35 5.5t-30 7.5q-3 0 -5 0.5t-5 1.5l-9 2v102v0z" />
    <glyph glyph-name="eta" unicode="&#x3b7;" horiz-adv-x="570" 
d="M397 328q0 27 -8 46t-22 30.5t-32.5 16.5t-40.5 5q-35 0 -64 -13.5t-55 -42.5v-429h-133v587h132v-32q23 13 41.5 21t34.5 13t31.5 6.5t33.5 1.5q35 -2 72.5 -12t69 -32.5t52 -58.5t20.5 -88v-547h-132v528v0z" />
    <glyph glyph-name="theta" unicode="&#x3b8;" horiz-adv-x="685" 
d="M36 313q0 91 21.5 165.5t61 127t96 81.5t126.5 29q75 0 132.5 -28.5t96.5 -81t59 -127t20 -166.5q0 -90 -20 -164.5t-59 -128t-96.5 -83t-132.5 -29.5q-70 0 -126.5 29.5t-96 83t-61 128t-21.5 164.5zM511 364q-9 113 -50 179t-120 66q-41 0 -71 -17t-50.5 -49
t-32.5 -77.5t-16 -101.5h340zM172 264q5 -55 17 -100.5t32.5 -78.5t50 -51t69.5 -18t70 18.5t51 51t32.5 78t16.5 100.5h-339z" />
    <glyph glyph-name="iota" unicode="&#x3b9;" horiz-adv-x="247" 
d="M58 497h131v-566h-131v566z" />
    <glyph glyph-name="kappa" unicode="&#x3ba;" horiz-adv-x="571" 
d="M178 498v-197q11 8 29 29t29 47q10 26 22 50t28.5 42.5t39.5 29.5t54 11q58 0 120 -48l-53 -85q-14 5 -30.5 7t-26.5 2q-14 0 -24 -4.5t-17.5 -13.5t-15 -23t-17.5 -32q-11 -22 -24 -46t-22 -35l278 -302h-156l-214 235v-235h-136l-1 568h137z" />
    <glyph glyph-name="lambda" unicode="&#x3bb;" horiz-adv-x="690" 
d="M87 717q50 -3 89 -26t68.5 -59t51.5 -80.5t37 -89.5l148 -415q6 -15 12 -23t11 -16v-1h4q14 1 21 0h9.5t9.5 3t11.5 9.5t15.5 18.5l10 14l3 3l70 -74q-21 -35 -54 -57.5t-96 -22.5q-21 0 -42.5 5t-41.5 17t-37 33t-28 54l-92 254l-104 -344h-133l166 533
q-26 82 -62.5 121.5t-84.5 52.5l38 90v0z" />
    <glyph glyph-name="uni03BC" unicode="&#x3bc;" horiz-adv-x="570" 
d="M42 -200v727h133v-395q0 -30 8 -47.5t21.5 -26.5t30 -11.5t34.5 -2.5q32 0 66 14t62 48v421h132v-585h-132v36q-23 -13 -41.5 -21.5t-35 -14t-31 -7.5t-30.5 -2q-20 0 -40.5 2t-45.5 8v-143h-131z" />
    <glyph glyph-name="nu" unicode="&#x3bd;" horiz-adv-x="587" 
d="M530 497q4 -11 7 -26t5 -31.5t3.5 -33.5t1.5 -31q0 -46 -13.5 -100t-38.5 -111.5t-60.5 -116.5t-79.5 -116h-96l-225 566h138l152 -418q42 75 68 143t26 140q0 13 -1.5 28t-3.5 30.5t-4 30t-4 26.5l-3 20h128v0z" />
    <glyph glyph-name="xi" unicode="&#x3be;" horiz-adv-x="631" 
d="M295 -99q38 -1 68.5 1.5t51.5 11t32.5 23.5t11.5 39q0 13 -1 21t-6 12.5t-16 5.5t-31 1h-58q-86 0 -144.5 21t-95.5 55t-53 78t-16 89q0 65 28 117t84 88q-26 27 -38 55.5t-12 57.5q0 17 4 35.5t16 40.5l-31.5 4.5t-40.5 7.5l2 98q47 -8 104.5 -13.5t114.5 -5.5
q21 0 46 1.5t50.5 4t49.5 6t42 7.5l4 -96q-15 -3 -36 -6.5t-45.5 -7t-50 -6t-48.5 -2.5q-29 0 -41 -19t-12 -47q0 -14 2 -26.5t8 -22t17 -15t29 -5.5h147v-99h-92q-37 0 -67.5 -10.5t-52.5 -29.5t-34.5 -46t-12.5 -61q0 -70 44.5 -109t130.5 -39h55q99 0 145 -36.5
t46 -110.5q0 -35 -15 -65.5t-49.5 -53.5t-91.5 -36t-142 -13v100v0z" />
    <glyph glyph-name="omicron" unicode="&#x3bf;" horiz-adv-x="658" 
d="M37 213q0 69 21.5 123.5t60 92.5t92.5 58t120 20t119.5 -20t91.5 -57.5t58.5 -92t20.5 -124.5q0 -71 -20.5 -125.5t-58.5 -92t-91 -57t-119 -19.5q-65 0 -119 20t-93 57.5t-61 92t-22 124.5zM171 213q0 -88 38.5 -135t119.5 -47t120 47t39 135t-39 134.5t-120 46.5
q-80 0 -119 -47t-39 -134z" />
    <glyph glyph-name="pi" unicode="&#x3c0;" horiz-adv-x="687" 
d="M520 397v-316q0 -34 10.5 -42.5t31.5 -8.5q14 0 24 1t19.5 3.5t20 7.5t25.5 13v-102q-29 -20 -49 -25t-48 -5q-85 0 -127.5 39t-42.5 113v322h-109v-314q0 -33 -10.5 -62t-29 -53t-44 -42.5t-54.5 -31.5l-79 94q45 6 63.5 31t18.5 62v316h-104v102h614v-102h-130z" />
    <glyph glyph-name="rho" unicode="&#x3c1;" horiz-adv-x="658" 
d="M37 256q0 68 21.5 120.5t60.5 88.5t93 55t119 19q66 0 119.5 -18.5t91.5 -54.5t58.5 -89t20.5 -121q0 -69 -20.5 -122t-58.5 -89t-91 -54.5t-119 -18.5q-47 0 -83 9t-80 28v-209h-132v456zM171 256q0 -84 38.5 -127.5t119.5 -43.5t120 43t39 128t-39 128t-120 43
t-119.5 -43.5t-38.5 -127.5z" />
    <glyph glyph-name="sigma" unicode="&#x3c3;" horiz-adv-x="693" 
d="M35 213q0 69 21.5 123.5t60 92.5t92.5 58t120 20h329v-108h-94q31 -39 43 -86t12 -100q0 -71 -20.5 -125.5t-58 -92t-90.5 -57t-119 -19.5q-65 0 -119.5 19.5t-93.5 57t-61 92.5t-22 125zM169 213q0 -88 38.5 -135t119.5 -47t120 47t39 135t-39 134.5t-120 46.5
q-79 0 -118.5 -47t-39.5 -134z" />
    <glyph glyph-name="tau" unicode="&#x3c4;" horiz-adv-x="537" 
d="M487 483v-107h-158v-321q0 -14 4 -15t17 -1q30 0 68 1.5t76 12.5v-95q-14 -11 -33 -17t-41 -9t-45.5 -3.5t-44.5 -0.5h-17t-18 1q-42 5 -70 30t-28 73v344h-154v107h444z" />
    <glyph glyph-name="upsilon" unicode="&#x3c5;" horiz-adv-x="570" 
d="M180 497v-363q0 -57 22.5 -82.5t75.5 -25.5q51 0 81.5 55.5t30.5 184.5q0 53 -15 100t-61 80l115 65q46 -47 73 -110t27 -135q0 -109 -25 -177t-63.5 -105.5t-84.5 -50.5t-87 -13t-82 11.5t-73 37t-52 66t-20 99.5v363h138z" />
    <glyph glyph-name="phi" unicode="&#x3c6;" horiz-adv-x="706" 
d="M282 -200v174q-59 4 -105 29t-77.5 63.5t-48 87t-16.5 99.5t11.5 93t31.5 77t48 63.5t61 51.5l72 -69q-24 -26 -41 -49t-28 -48t-16.5 -53.5t-5.5 -65.5q0 -67 26.5 -106t87.5 -59v304q0 78 40.5 112.5t103.5 34.5q48 0 92.5 -19.5t78 -56.5t54 -90.5t20.5 -122.5
q0 -57 -18.5 -105.5t-52 -85.5t-80 -59.5t-102.5 -26.5v-173h-136zM418 87q63 17 89.5 56.5t26.5 106.5q0 36 -3.5 69t-11.5 58.5t-23 41t-37 15.5q-23 0 -32 -11.5t-9 -44.5v-291z" />
    <glyph glyph-name="chi" unicode="&#x3c7;" horiz-adv-x="757" 
d="M298 170l-263 357h159l187 -264l183 264h158l-259 -357l279 -370h-159l-202 273l-207 -273h-159z" />
    <glyph glyph-name="psi" unicode="&#x3c8;" horiz-adv-x="664" 
d="M272 -200v150q-122 15 -178.5 91t-56.5 201v285h134v-285q0 -39 4.5 -68.5t16 -51.5t31 -38.5t49.5 -29.5v473h131v-469q30 19 48 38t27.5 40t12 46t2.5 58v287h134v-286q0 -120 -53.5 -195.5t-170.5 -94.5v-151h-131z" />
    <glyph glyph-name="omega" unicode="&#x3c9;" horiz-adv-x="730" 
d="M264 411q-28 6 -47.5 -12.5t-32 -52t-18 -76t-5.5 -82.5q0 -28 2.5 -56.5t10.5 -51.5t24.5 -37.5t43.5 -14.5q21 0 32 9t16 25t5.5 37t0.5 45v137h137v-138q0 -26 0.5 -47t5.5 -36t16 -23.5t31 -8.5q27 0 43.5 14.5t25.5 37t11.5 51t2.5 57.5q0 34 -4.5 74t-16.5 74
t-32.5 56t-51.5 19v96q67 1 111.5 -28t71.5 -75.5t38.5 -103.5t11.5 -112q0 -50 -12.5 -98t-39 -86t-66 -61.5t-93.5 -23.5q-35 0 -60.5 9t-59.5 35q-18 -13 -32.5 -21.5t-29 -13.5t-29.5 -7t-33 -2q-53 0 -92 23.5t-65 61.5t-39 86t-13 98q0 57 11 114t38 103t71.5 75
t110.5 28v-97v0z" />
    <glyph glyph-name="uni0401" unicode="&#x401;" horiz-adv-x="600" 
d="M211 292v-234h309q22 0 33.5 4.5t19.5 15.5q5 7 10 0q9 -13 16 -33t7 -46q0 -30 -18 -44t-62 -14h-446v786h426q22 0 33.5 4.5t19.5 15.5q5 7 10 0q9 -13 16 -33t7 -46q0 -30 -18 -44t-62 -14h-301v-203h280q22 0 33.5 4.5t19.5 15.5q5 7 10 0q9 -13 16 -32.5t7 -45.5
q0 -30 -18 -43.5t-62 -13.5h-286zM160 825q0 33 21 54t53 21t53.5 -21t21.5 -54t-21.5 -54t-53.5 -21t-53 21t-21 54zM351 825q0 33 21.5 54t53.5 21t53 -21t21 -54t-21 -54t-53 -21t-53.5 21t-21.5 54z" />
    <glyph glyph-name="uni0410" unicode="&#x410;" horiz-adv-x="681" 
d="M218 606q13 41 15 67t-9 34q-9 7 1 12q20 11 48 18.5t60 7.5q41 0 67.5 -24t47.5 -88l228 -694h-138l-65 209h-267l-63 -209h-138zM437 264l-99 320l-97 -320h196z" />
    <glyph glyph-name="uni0411" unicode="&#x411;" horiz-adv-x="674" 
d="M510 727q22 0 33.5 4.5t19.5 15.5q5 7 10 0q9 -13 16 -33t7 -46q0 -30 -18 -44t-62 -14h-305v-185h128q76 0 132.5 -18.5t94 -51.5t55.5 -78t18 -99q0 -52 -18 -95.5t-55.5 -75t-94 -49t-132.5 -17.5h-259v786h430zM349 58q85 0 121.5 32t36.5 93t-36.5 93t-121.5 32
h-138v-250h138z" />
    <glyph glyph-name="uni0412" unicode="&#x412;" horiz-adv-x="704" 
d="M366 58q83 0 122 29.5t39 89.5q0 59 -40.5 89t-125.5 30h-150v-238h155zM80 727h271q137 0 205 -53.5t68 -148.5q0 -57 -24 -99.5t-76 -68.5q135 -53 135 -192q0 -51 -19 -92t-57 -70.5t-94.5 -45.5t-132.5 -16h-276v786zM356 411q70 0 103 23.5t33 75.5q0 51 -31.5 75.5
t-99.5 24.5h-150v-199h145z" />
    <glyph glyph-name="uni0413" unicode="&#x413;" horiz-adv-x="631" 
d="M510 727q22 0 33.5 4.5t19.5 15.5q5 7 10 0q9 -13 16 -33t7 -46q0 -30 -18 -44t-62 -14h-305v-669h-131v786h430v0z" />
    <glyph glyph-name="uni0414" unicode="&#x414;" horiz-adv-x="709" 
d="M624 167h60v-226h-131v106h-397v-106h-131v226h60q19 22 28.5 55t11.5 90l20 415h479v-560zM493 167v440h-218l-15 -295q-3 -57 -12 -90t-26 -55h271z" />
    <glyph glyph-name="uni0415" unicode="&#x415;" horiz-adv-x="641" 
d="M211 292v-234h309q22 0 33.5 4.5t19.5 15.5q5 7 10 0q9 -13 16 -33t7 -46q0 -30 -18 -44t-62 -14h-446v786h426q22 0 33.5 4.5t19.5 15.5q5 7 10 0q9 -13 16 -33t7 -46q0 -30 -18 -44t-62 -14h-301v-203h280q22 0 33.5 4.5t19.5 15.5q5 7 10 0q9 -13 16 -32.5t7 -45.5
q0 -30 -18 -43.5t-62 -13.5h-286z" />
    <glyph glyph-name="uni0416" unicode="&#x416;" horiz-adv-x="965" 
d="M925 15q9 0 15 -1t5 -12q-3 -32 -21.5 -55.5t-59.5 -23.5q-51 0 -76.5 48.5t-30.5 141.5q-3 56 -10 93.5t-18.5 60t-26.5 32t-33 9.5q-33 0 -62 -23.5t-58 -68.5v-275h-133v275q-29 45 -58 68.5t-62 23.5q-18 0 -33.5 -9.5t-26.5 -32t-18 -60t-10 -93.5
q-5 -93 -30.5 -141.5t-76.5 -48.5q-41 0 -59.5 23.5t-21.5 55.5q-1 11 5 12t15 1q11 0 22 36.5t16 119.5q4 57 15.5 101t31.5 75t50 47t71 16h10t10 -1l-171 201q-40 48 -38 82t47 44q27 6 56 -1t46 -17q5 -4 5 -5t-5 -5q-6 -5 0 -22.5t17 -31.5l193 -248v248q0 24 -4 36.5
t-8 15.5q-5 4 -5 5t5 5q10 8 33 15.5t46 7.5q30 0 48 -18t18 -60v-255l193 248q11 14 17 31.5t0 22.5q-5 4 -5 5t5 5q17 10 46 17t56 1q45 -10 47 -44t-38 -82l-171 -201q5 1 10 1h10q82 0 121 -63t47 -176q5 -83 16 -119.5t22 -36.5z" />
    <glyph glyph-name="uni0417" unicode="&#x417;" horiz-adv-x="634" 
d="M294 409q39 0 66 10t44.5 27t25 39t7.5 45q0 45 -30 72.5t-96 27.5q-38 0 -66 -11t-45.5 -30t-23.5 -45.5t2 -57.5q1 -5 -0.5 -7t-7.5 -4q-23 -6 -43.5 -4t-36.5 12.5t-25 30t-9 47.5q0 37 17 70t50 58.5t81 40.5t111 15q64 0 111.5 -17t79.5 -46t48 -67t16 -80
q0 -50 -24.5 -98t-80.5 -82q61 -27 96.5 -74.5t35.5 -118.5q0 -50 -20 -93.5t-57.5 -75.5t-90.5 -51t-118 -19q-64 0 -115 16.5t-86 45t-54 65t-19 77.5q0 28 9 47.5t25 30t36.5 12.5t43.5 -4q6 -2 7.5 -4t0.5 -7q-8 -35 -0.5 -65t27.5 -52t51 -34.5t70 -12.5q34 0 63 9.5
t50 26.5t32.5 40.5t11.5 51.5q0 58 -44 95.5t-126 37.5h-42v110h42v0z" />
    <glyph glyph-name="uni0418" unicode="&#x418;" horiz-adv-x="733" 
d="M524 727h129v-786h-131v566l-333 -566h-110v713q0 23 -5 34.5t-15 17.5q-8 5 0 10q14 9 38.5 16t47.5 7q27 0 46 -17t19 -61v-462z" />
    <glyph glyph-name="uni0419" unicode="&#x419;" horiz-adv-x="733" 
d="M524 727h129v-786h-131v566l-333 -566h-110v713q0 23 -5 34.5t-15 17.5q-8 5 0 10q14 9 38.5 16t47.5 7q27 0 46 -17t19 -61v-462zM310 890q0 -49 13.5 -69t42.5 -20q28 0 42 20t14 69h124q0 -97 -49.5 -143.5t-130.5 -46.5t-130.5 46.5t-49.5 143.5h124z" />
    <glyph glyph-name="uni041A" unicode="&#x41a;" horiz-adv-x="716" 
d="M681 15q11 0 10 -13q-4 -34 -24.5 -56.5t-59.5 -22.5q-50 0 -80 48t-35 142q-3 55 -12 92.5t-24.5 60t-36.5 32.5t-48 10q-48 0 -87.5 -26t-71.5 -69v-272h-133v713q0 23 -5 34.5t-15 17.5q-8 5 0 10q14 9 39 16t48 7q28 0 47 -17t19 -61v-282l258 275q17 17 23 32.5
t-4 21.5q-8 5 0 10q21 11 51.5 17t59.5 1q21 -4 32.5 -16t12.5 -29.5t-9.5 -38.5t-32.5 -42l-209 -203q18 3 38 3q89 0 133.5 -62t54.5 -177q7 -81 22.5 -118.5t38.5 -37.5z" />
    <glyph glyph-name="uni041B" unicode="&#x41b;" horiz-adv-x="728" 
d="M648 -59h-131v666h-287v-445q0 -64 -15 -106.5t-42.5 -68t-65 -36t-82.5 -10.5v120q19 0 33 4.5t23 15.5t13.5 31t4.5 50v565h549v-786z" />
    <glyph glyph-name="uni041C" unicode="&#x41c;" horiz-adv-x="937" 
d="M79 654q0 23 -5 34.5t-15 17.5q-8 5 0 10q12 9 35.5 16t46.5 7q15 0 29.5 -4t28 -14.5t26 -28.5t23.5 -47l220 -572l259 654h130v-786h-129v496l-197 -496h-127l-196 496v-496h-129v713v0z" />
    <glyph glyph-name="uni041D" unicode="&#x41d;" horiz-adv-x="728" 
d="M517 654q0 23 -5 34.5t-15 17.5q-8 5 0 10q14 9 38.5 16t47.5 7q27 0 46 -17t19 -61v-720h-131v352h-307v-352h-131v713q0 23 -5 34.5t-15 17.5q-8 5 0 10q14 9 38.5 16t47.5 7q27 0 46 -17t19 -61v-248h307v241v0z" />
    <glyph glyph-name="uni041E" unicode="&#x41e;" horiz-adv-x="744" 
d="M372 -77q-70 0 -130 27.5t-103.5 80t-68.5 129t-25 174.5t25 174.5t68.5 129t103.5 80t130 27.5t130 -27.5t103.5 -80t68.5 -129t25 -174.5t-25 -174.5t-68.5 -129t-103.5 -80t-130 -27.5zM177 334q0 -75 14.5 -130t40.5 -91t61.5 -53.5t78.5 -17.5t78.5 17.5t61.5 53.5
t40.5 91t14.5 130q0 74 -14.5 129t-40.5 91t-61.5 54t-78.5 18t-78.5 -18t-61.5 -54t-40.5 -91t-14.5 -129z" />
    <glyph glyph-name="uni041F" unicode="&#x41f;" horiz-adv-x="729" 
d="M649 -59h-131v666h-307v-666h-131v786h569v-786z" />
    <glyph glyph-name="uni0420" unicode="&#x420;" horiz-adv-x="679" 
d="M80 727h259q76 0 132.5 -19t94 -52.5t55.5 -79.5t18 -101q0 -56 -18 -104t-55.5 -83t-94 -55t-132.5 -20h-128v-272h-131v786zM349 330q84 0 121 37t37 103t-37 103t-121 37h-138v-280h138z" />
    <glyph glyph-name="uni0421" unicode="&#x421;" horiz-adv-x="681" 
d="M392 626q-103 0 -159 -71.5t-56 -220.5t55 -220.5t151 -71.5q42 0 72.5 14t49 34t25.5 43.5t1 42.5q-3 12 9 12q45 1 73 -21t28 -62q0 -31 -16.5 -63.5t-49.5 -58.5t-81 -43t-111 -17q-74 0 -136 27.5t-107 80t-70 129t-25 174.5t24 174.5t68.5 129t107 80t139.5 27.5
q61 0 107 -16t77 -42t47 -58t16 -63q0 -40 -27.5 -57.5t-68.5 -15.5q-13 0 -10 11q4 18 -3 39t-24 39.5t-43.5 31t-62.5 12.5z" />
    <glyph glyph-name="uni0422" unicode="&#x422;" horiz-adv-x="655" 
d="M544 727q22 0 33.5 4.5t19.5 15.5q5 7 10 0q9 -13 16 -34t7 -47q0 -31 -18 -45.5t-62 -14.5h-156v-665h-133v665h-156q-44 0 -62 14.5t-18 45.5q0 26 7 47t16 34q5 7 10 0q8 -11 19.5 -15.5t33.5 -4.5h433v0z" />
    <glyph glyph-name="uni0423" unicode="&#x423;" horiz-adv-x="616" 
d="M457 660q17 41 1 52q-8 5 0 10q14 9 40 16t49 7q13 0 26 -5t20.5 -17t7 -32t-13.5 -51l-201 -475q-28 -67 -54.5 -113t-53 -74.5t-53.5 -41.5t-55 -13q-42 0 -64 26t-26 71q-2 11 9 8q36 -11 73.5 9t75.5 89l-198 534q-14 39 -36 52q-8 5 0 10q14 9 37.5 16t46.5 7
q27 0 47 -18t35 -60l138 -379l149 372v0z" />
    <glyph glyph-name="uni0424" unicode="&#x424;" horiz-adv-x="804" 
d="M637 334q0 49 -12.5 84t-34.5 58.5t-53 36.5t-68 19v-396q37 6 68 19t53 36.5t34.5 58.5t12.5 84zM35 334q0 73 22.5 129t62.5 95.5t95 62t120 30.5v76h134v-76q65 -8 120 -30.5t95 -62t62.5 -95.5t22.5 -129q0 -74 -22.5 -129.5t-62.5 -95t-95 -62.5t-120 -30v-76h-134
v76q-65 7 -120 30t-95 62.5t-62.5 95t-22.5 129.5zM167 334q0 -49 12.5 -84t34.5 -58.5t53 -36.5t68 -19v396q-37 -6 -68 -19t-53 -36.5t-34.5 -58.5t-12.5 -84z" />
    <glyph glyph-name="uni0425" unicode="&#x425;" horiz-adv-x="675" 
d="M516 -59l-176 288l-179 -288h-151l252 399l-182 306q-17 29 -27 40t-20 14q-9 4 -1 10q14 12 38.5 20.5t47.5 8.5q28 0 48 -16t43 -54l138 -225l137 210q25 40 9 56q-7 7 1 10q15 8 41 13.5t49 5.5q15 0 29.5 -7t21.5 -21t4 -34.5t-21 -47.5l-199 -295l246 -393h-149z
" />
    <glyph glyph-name="uni0426" unicode="&#x426;" horiz-adv-x="719" 
d="M80 727h131v-666h287v666h131v-666h70v-261h-131v141h-488v786z" />
    <glyph glyph-name="uni0427" unicode="&#x427;" horiz-adv-x="630" 
d="M198 383q0 -73 25.5 -104t66.5 -31q27 0 52 10t44.5 27.5t31 42t11.5 53.5v346h129v-719q0 -23 5 -34.5t15 -17.5q8 -5 0 -10q-14 -9 -38 -16t-47 -7q-27 0 -45.5 17t-18.5 61v215q-33 -39 -79.5 -61t-97.5 -22q-85 0 -134 63t-49 181v350h129v-344v0z" />
    <glyph glyph-name="uni0428" unicode="&#x428;" horiz-adv-x="829" 
d="M80 727h131v-666h138v666h131v-666h138v666h131v-786h-669v786z" />
    <glyph glyph-name="uni0429" unicode="&#x429;" horiz-adv-x="839" 
d="M80 727h131v-666h138v666h131v-666h138v666h131v-666h70v-261h-131v141h-608v786z" />
    <glyph glyph-name="uni042A" unicode="&#x42a;" horiz-adv-x="728" 
d="M265 425h128q76 0 132.5 -18.5t94 -51.5t55.5 -78t18 -99q0 -52 -18 -95.5t-55.5 -75t-94 -49t-132.5 -17.5h-259v669h-114v117h245v-302zM403 58q85 0 121.5 32t36.5 93t-36.5 93t-121.5 32h-138v-250h138z" />
    <glyph glyph-name="uni042B" unicode="&#x42b;" horiz-adv-x="901" 
d="M211 727v-302h128q76 0 132.5 -18.5t94 -51.5t55.5 -78t18 -99q0 -52 -18 -95.5t-55.5 -75t-94 -49t-132.5 -17.5h-259v786h131zM349 58q85 0 121.5 32t36.5 93t-36.5 93t-121.5 32h-138v-250h138zM690 727h131v-786h-131v786z" />
    <glyph glyph-name="uni042C" unicode="&#x42c;" horiz-adv-x="674" 
d="M211 727v-302h128q76 0 132.5 -18.5t94 -51.5t55.5 -78t18 -99q0 -52 -18 -95.5t-55.5 -75t-94 -49t-132.5 -17.5h-259v786h131zM349 58q85 0 121.5 32t36.5 93t-36.5 93t-121.5 32h-138v-250h138z" />
    <glyph glyph-name="uni042D" unicode="&#x42d;" horiz-adv-x="681" 
d="M289 626q-36 0 -62.5 -12.5t-43.5 -31t-24 -39.5t-3 -39q3 -11 -10 -11q-41 -2 -68.5 15.5t-27.5 57.5q0 31 16 63t47 58t77 42t107 16q77 0 139.5 -27.5t107 -80t68.5 -129t24 -174.5t-25 -174.5t-70 -129t-107 -80t-136 -27.5q-63 0 -111 17t-81 43t-49.5 58.5
t-16.5 63.5q0 40 28 62t73 21q12 0 9 -12q-6 -19 1 -42.5t25.5 -43.5t49 -34t72.5 -14q90 0 143.5 61t61.5 189h-312v115h309q-14 112 -67.5 165.5t-143.5 53.5z" />
    <glyph glyph-name="uni042E" unicode="&#x42e;" horiz-adv-x="944" 
d="M79 654q0 23 -5 34.5t-15 17.5q-8 5 0 10q14 9 39 16t48 7q28 0 47 -17t19 -61v-254h77q8 81 34 144t65.5 106t91.5 65.5t112 22.5q66 0 122.5 -27.5t97.5 -80t64 -129t23 -174.5t-23 -174.5t-64 -129t-97.5 -80t-122.5 -27.5q-63 0 -116.5 24.5t-94 72t-65.5 116
t-30 156.5h-74v-351h-133v713zM417 334q0 -149 48.5 -220.5t126.5 -71.5t126.5 71.5t48.5 220.5t-48.5 220.5t-126.5 71.5t-126.5 -71.5t-48.5 -220.5z" />
    <glyph glyph-name="uni042F" unicode="&#x42f;" horiz-adv-x="703" 
d="M623 -59h-131v330h-135q-39 0 -65 -9t-42.5 -30t-24.5 -55t-10 -84q-4 -88 -30 -129t-76 -41q-39 0 -59.5 22.5t-24.5 56.5q-1 13 10 13q23 0 34 31t16 105q4 60 23.5 100.5t68.5 60.5q-54 30 -85.5 79.5t-31.5 114.5q0 52 19.5 93t55.5 69.5t86 43.5t111 15h291v-786z
M192 502q0 -54 35 -85.5t110 -31.5h155v224h-155q-75 0 -110 -28t-35 -79z" />
    <glyph glyph-name="uni0430" unicode="&#x430;" horiz-adv-x="644" 
d="M286 -77q-56 0 -101.5 23.5t-78 64.5t-50.5 97.5t-18 122.5t18 122.5t50.5 98t78 64.5t101.5 23q48 0 87 -15.5t69 -43.5v47h129v-586h-117l-6 47q-31 -31 -71 -48t-91 -17zM168 231q0 -87 35 -139t101 -52q32 0 58.5 14t45 39t29 60.5t10.5 77.5t-10.5 77.5t-29 60.5
t-45 39t-58.5 14q-66 0 -101 -52t-35 -139z" />
    <glyph glyph-name="uni0431" unicode="&#x431;" horiz-adv-x="630" 
d="M315 -76q-61 0 -112 22t-87.5 62.5t-57 97t-20.5 125.5q0 119 15.5 203.5t47.5 139t82.5 83t121.5 36.5q62 7 118.5 23.5t109.5 46.5v-113q-26 -15 -51 -25.5t-50 -18t-52 -12t-58 -8.5q-83 -10 -118 -69q53 22 111 22q61 0 111.5 -22.5t87.5 -63t57.5 -97t20.5 -125.5
t-20.5 -125.5t-57.5 -97t-87.5 -62.5t-111.5 -22zM168 231q0 -92 40.5 -141t106.5 -49t106.5 49t40.5 141t-40.5 141.5t-106.5 49.5t-106.5 -49.5t-40.5 -141.5z" />
    <glyph glyph-name="uni0432" unicode="&#x432;" horiz-adv-x="634" 
d="M321 527q122 0 182.5 -42.5t60.5 -114.5q0 -41 -24 -73t-67 -49q26 -7 49 -19.5t40 -29.5t27 -39.5t10 -49.5q0 -79 -68 -124t-205 -45h-256v586h251zM336 58q68 0 99.5 13.5t31.5 50.5q0 36 -33 50t-103 14h-130v-128h135zM326 301q55 0 80.5 12.5t25.5 41.5t-24 42
t-77 13h-130v-109h125z" />
    <glyph glyph-name="uni0433" unicode="&#x433;" horiz-adv-x="541" 
d="M420 527q22 0 33.5 4.5t19.5 15.5q5 7 10 0q9 -13 16 -33t7 -46q0 -30 -18 -44t-62 -14h-225v-469h-131v586h350v0z" />
    <glyph glyph-name="uni0434" unicode="&#x434;" horiz-adv-x="609" 
d="M524 147h60v-206h-131v86h-297v-86h-131v206h61q17 19 25 42t10 53l24 285h379v-380zM393 147v260h-121l-15 -165q-2 -30 -10 -53t-25 -42h171z" />
    <glyph glyph-name="uni0435" unicode="&#x435;" horiz-adv-x="609" 
d="M38 231q0 69 20.5 125.5t57 97t87 63t110.5 22.5q58 0 105.5 -22t81.5 -59.5t52.5 -87.5t18.5 -106q0 -43 -6 -74h-395q10 -75 52 -113.5t111 -38.5q52 0 83.5 21t38.5 54q1 7 10 6q32 -4 51.5 -20.5t19.5 -48.5q0 -27 -15 -50t-42.5 -40.5t-66.5 -27t-87 -9.5
q-65 0 -118 22t-90.5 62t-58 97t-20.5 127zM438 297q-9 60 -40.5 93.5t-84.5 33.5q-52 0 -88.5 -32t-50.5 -95h264z" />
    <glyph glyph-name="uni0436" unicode="&#x436;" horiz-adv-x="927" 
d="M892 13q11 0 10 -13q-4 -34 -24.5 -55.5t-59.5 -21.5q-48 0 -73 41t-32 119q-3 33 -7.5 54t-12 33.5t-17.5 17t-23 4.5q-33 0 -66 -25t-59 -66v-160h-129v160q-26 41 -59 66t-66 25q-14 0 -23.5 -4.5t-17 -17t-12 -33.5t-7.5 -54q-7 -78 -32 -119t-73 -41
q-39 0 -59.5 21.5t-24.5 55.5q-1 13 10 13q41 0 53 118q4 36 11 65t19.5 50t31.5 32.5t48 11.5h12.5t12.5 -1l-112 121q-42 45 -44 82t40 45q29 5 58 -1t50 -18q8 -5 0 -10q-10 -6 -4 -21.5t22 -32.5l166 -189v189q0 23 -5 34.5t-15 17.5q-8 5 0 10q14 9 38 16t47 7
q28 0 46 -17t18 -61v-196l166 189q16 17 22 32.5t-4 21.5q-8 5 0 10q21 12 50 18t58 1q42 -8 40 -45t-44 -82l-112 -121q6 1 12.5 1h12.5q28 0 47.5 -11.5t32 -32.5t19.5 -50t11 -65q12 -118 53 -118z" />
    <glyph glyph-name="uni0437" unicode="&#x437;" horiz-adv-x="496" 
d="M231 297q50 0 69 22t19 54q0 29 -16.5 44t-58.5 15q-49 0 -70 -23.5t-11 -65.5q4 -16 -16 -21t-38.5 -3.5t-33 10.5t-23 25.5t-8.5 39.5q0 29 13.5 55.5t39.5 46.5t64 31.5t86 11.5q49 0 86.5 -13.5t62.5 -36t37.5 -52t12.5 -60.5q0 -35 -15.5 -69t-50.5 -60
q40 -23 63 -57.5t23 -83.5q0 -38 -16 -71t-45 -58.5t-70 -40t-91 -14.5t-89.5 13t-67.5 35t-42.5 50.5t-14.5 59.5q0 24 9 40t23.5 25t33 11t38.5 -3q19 -5 16 -21q-11 -46 14.5 -74.5t76.5 -28.5q45 0 71.5 21.5t26.5 59.5t-27 60.5t-81 22.5h-46v103h46v0z" />
    <glyph glyph-name="uni0438" unicode="&#x438;" horiz-adv-x="623" 
d="M424 527h129v-586h-131v386l-233 -386h-110v513q0 23 -5 34.5t-15 17.5q-8 5 0 10q14 9 38.5 16t47.5 7q27 0 46 -17t19 -61v-282z" />
    <glyph glyph-name="uni0439" unicode="&#x439;" horiz-adv-x="623" 
d="M424 527h129v-586h-131v386l-233 -386h-110v513q0 23 -5 34.5t-15 17.5q-8 5 0 10q14 9 38.5 16t47.5 7q27 0 46 -17t19 -61v-282zM270 765q0 -49 13.5 -69t42.5 -20q28 0 42 20t14 69h124q0 -97 -49.5 -143.5t-130.5 -46.5t-130.5 46.5t-49.5 143.5h124z" />
    <glyph glyph-name="uni043A" unicode="&#x43a;" horiz-adv-x="600" 
d="M565 13q11 0 10 -13q-4 -34 -24.5 -55.5t-59.5 -21.5q-48 0 -73 41t-32 119q-3 33 -7.5 54t-12 33.5t-17.5 17t-23 4.5q-33 0 -66 -25t-59 -66v-160h-129v513q0 23 -5 34.5t-15 17.5q-8 5 0 10q14 9 38 16t47 7q28 0 46 -17t18 -61v-196l166 189q16 17 22 32.5t-4 21.5
q-8 5 0 10q21 12 50 18t58 1q42 -8 40 -45t-44 -82l-112 -121q6 1 12.5 1h12.5q28 0 47.5 -11.5t32 -32.5t19.5 -50t11 -65q12 -118 53 -118z" />
    <glyph glyph-name="uni043B" unicode="&#x43b;" horiz-adv-x="618" 
d="M548 -59h-131v466h-187v-245q0 -64 -15 -106.5t-42.5 -68t-65 -36t-82.5 -10.5v120q19 0 33 4.5t23 15.5t13.5 31t4.5 50v365h449v-586z" />
    <glyph glyph-name="uni043C" unicode="&#x43c;" horiz-adv-x="807" 
d="M79 454q0 23 -5 34.5t-15 17.5q-8 5 0 10q12 9 35.5 16t46.5 7q15 0 29 -4t27.5 -14.5t26 -28.5t24.5 -47l160 -387l199 469h130v-586h-129v318l-137 -318h-127l-136 317v-317h-129v513v0z" />
    <glyph glyph-name="uni043D" unicode="&#x43d;" horiz-adv-x="618" 
d="M417 454q0 23 -5 34.5t-15 17.5q-8 5 0 10q14 9 38.5 16t47.5 7q27 0 46 -17t19 -61v-520h-131v252h-207v-252h-131v513q0 23 -5 34.5t-15 17.5q-8 5 0 10q14 9 38.5 16t47.5 7q27 0 46 -17t19 -61v-148h207v141v0z" />
    <glyph glyph-name="uni043E" unicode="&#x43e;" horiz-adv-x="630" 
d="M315 -76q-61 0 -112 22t-87.5 62.5t-57 97t-20.5 125.5t20.5 125.5t57 97t87.5 63t112 22.5t111.5 -22.5t87.5 -63t57.5 -97t20.5 -125.5t-20.5 -125.5t-57.5 -97t-87.5 -62.5t-111.5 -22zM168 231q0 -92 40.5 -141t106.5 -49t106.5 49t40.5 141t-40.5 141.5t-106.5 49.5
t-106.5 -49.5t-40.5 -141.5z" />
    <glyph glyph-name="uni043F" unicode="&#x43f;" horiz-adv-x="609" 
d="M539 -59h-131v466h-207v-466h-131v586h469v-586z" />
    <glyph glyph-name="uni0440" unicode="&#x440;" horiz-adv-x="644" 
d="M358 -77q-48 0 -87 15.5t-69 43.5v-182h-129v654q0 23 -5 34.5t-15 17.5q-8 5 0 10q14 9 38 16t47 7q25 0 42 -13.5t21 -46.5q30 29 69.5 44.5t87.5 15.5q55 0 101 -23t78.5 -64.5t50.5 -98t18 -122.5t-18 -122.5t-50.5 -97.5t-78.5 -64.5t-101 -23.5zM197 231
q0 -42 10.5 -77.5t29 -60.5t45 -39t58.5 -14q66 0 101 52t35 139t-35 139t-101 52q-32 0 -58.5 -14t-45 -39t-29 -60.5t-10.5 -77.5z" />
    <glyph glyph-name="uni0441" unicode="&#x441;" horiz-adv-x="580" 
d="M329 421q-75 0 -118 -48.5t-43 -141.5q0 -94 44.5 -142t122.5 -48q59 0 88 29t33 70q0 6 10 6q36 -2 59 -20t23 -50q0 -30 -15 -57.5t-43.5 -49t-69.5 -34t-93 -12.5q-65 0 -118.5 22t-91.5 62t-58.5 97t-20.5 127q0 69 21 125.5t60 97t93.5 63t120.5 22.5q45 0 82 -12.5
t63.5 -32.5t40.5 -45t14 -49q0 -35 -25.5 -54t-58.5 -21q-10 0 -10 6q-4 41 -30.5 65.5t-79.5 24.5z" />
    <glyph glyph-name="uni0442" unicode="&#x442;" horiz-adv-x="555" 
d="M444 527q22 0 33.5 4.5t19.5 15.5q5 7 10 0q9 -13 16 -34t7 -47q0 -31 -18 -45.5t-62 -14.5h-106v-465h-133v465h-106q-44 0 -62 14.5t-18 45.5q0 26 7 47t16 34q5 7 10 0q8 -11 19.5 -15.5t33.5 -4.5h333v0z" />
    <glyph glyph-name="uni0443" unicode="&#x443;" horiz-adv-x="550" 
d="M396 454q16 41 1 52q-8 5 0 10q14 9 40 16t49 7q13 0 26 -5t20.5 -17t7 -32.5t-13.5 -50.5l-168 -393q-29 -67 -55.5 -113t-52.5 -74.5t-53 -41.5t-55 -13q-42 0 -64 26t-26 71q-2 11 9 8q36 -11 73.5 9t75.5 89l-168 452q-15 39 -36 52q-8 5 0 10q14 9 37.5 16t46.5 7
q27 0 47 -18t35 -60l108 -297l116 290v0z" />
    <glyph glyph-name="uni0444" unicode="&#x444;" horiz-adv-x="744" 
d="M577 234q0 131 -138 157v-314q138 24 138 157zM35 234q0 57 18.5 104.5t53.5 83t85 58.5t113 31v154h134v-154q63 -8 113 -31t85 -58.5t53.5 -83t18.5 -104.5t-18.5 -104.5t-53.5 -83t-85 -58.5t-113 -31v-157h-134v157q-63 8 -113 31t-85 58.5t-53.5 83t-18.5 104.5z
M167 234q0 -133 138 -157v314q-138 -26 -138 -157z" />
    <glyph glyph-name="uni0445" unicode="&#x445;" horiz-adv-x="545" 
d="M393 -59l-116 193l-123 -193h-146l194 298l-124 207q-18 31 -27.5 41t-19.5 13q-9 4 -1 10q14 12 37 20.5t46 8.5q28 0 46.5 -15.5t42.5 -54.5l80 -131l79 116q26 39 9 56q-7 7 1 10q15 8 40 13.5t48 5.5q15 0 29.5 -7t21 -20.5t3 -34.5t-22.5 -48l-139 -195l186 -293
h-144z" />
    <glyph glyph-name="uni0446" unicode="&#x446;" horiz-adv-x="604" 
d="M80 527h131v-466h187v466h131v-466h50v-261h-131v141h-368v586z" />
    <glyph glyph-name="uni0447" unicode="&#x447;" horiz-adv-x="627" 
d="M174 333q0 -73 25.5 -104t66.5 -31q27 0 52 10t44.5 27.5t31 42t11.5 53.5v196h129v-519q0 -23 5 -34.5t15 -17.5q8 -5 0 -10q-14 -9 -38 -16t-47 -7q-27 0 -45.5 17t-18.5 61v165q-33 -39 -79.5 -61t-97.5 -22q-85 0 -134 63t-49 181v200h129v-194v0z" />
    <glyph glyph-name="uni0448" unicode="&#x448;" horiz-adv-x="749" 
d="M70 527h131v-466h108v466h131v-466h108v466h131v-586h-609v586z" />
    <glyph glyph-name="uni0449" unicode="&#x449;" horiz-adv-x="754" 
d="M70 527h131v-466h108v466h131v-466h108v466h131v-466h50v-261h-131v141h-528v586z" />
    <glyph glyph-name="uni044A" unicode="&#x44a;" horiz-adv-x="618" 
d="M265 345h78q61 0 108 -15t78.5 -42.5t47.5 -65.5t16 -84q0 -89 -63.5 -143t-186.5 -54h-209v469h-114v117h245v-182zM353 58q54 0 81 19.5t27 65.5t-27 65.5t-81 19.5h-88v-170h88z" />
    <glyph glyph-name="uni044B" unicode="&#x44b;" horiz-adv-x="766" 
d="M201 527v-182h78q61 0 108 -15t78.5 -42.5t47.5 -65.5t16 -84q0 -89 -63.5 -143t-186.5 -54h-209v586h131zM289 58q54 0 81 19.5t27 65.5t-27 65.5t-81 19.5h-88v-170h88zM565 527h131v-586h-131v586z" />
    <glyph glyph-name="uni044C" unicode="&#x44c;" horiz-adv-x="554" 
d="M201 527v-182h78q61 0 108 -15t78.5 -42.5t47.5 -65.5t16 -84q0 -89 -63.5 -143t-186.5 -54h-209v586h131zM289 58q54 0 81 19.5t27 65.5t-27 65.5t-81 19.5h-88v-170h88z" />
    <glyph glyph-name="uni044D" unicode="&#x44d;" horiz-adv-x="581" 
d="M252 421q-53 0 -79.5 -24.5t-30.5 -65.5q0 -6 -10 -6q-33 2 -58.5 21t-25.5 54q0 24 14 49t40.5 45t63.5 32.5t82 12.5q66 0 120.5 -22.5t93.5 -63t60 -97t21 -125.5q0 -70 -20.5 -127t-58.5 -97t-91.5 -62t-118.5 -22q-52 0 -93 12.5t-69.5 34t-43.5 49t-15 57.5
q0 32 23 50t59 20q10 0 10 -6q4 -41 33 -70t88 -29q66 0 108 34t54 102h-217v115h216q-13 63 -53 96t-102 33z" />
    <glyph glyph-name="uni044E" unicode="&#x44e;" horiz-adv-x="800" 
d="M72 454q0 23 -5 34.5t-15 17.5q-8 5 0 10q14 9 38.5 16t47.5 7q27 0 46 -17t19 -61v-169h49q8 56 29.5 101.5t54.5 78t75.5 50t93.5 17.5q57 0 104.5 -22.5t81 -63t52.5 -97t19 -125.5t-19 -125.5t-52.5 -97t-81 -62.5t-104.5 -22q-51 0 -94.5 18t-76.5 51t-54.5 80
t-28.5 104h-48v-236h-131v513zM378 231q0 -92 34 -141t93 -49t93 49t34 141t-34 141.5t-93 49.5t-93 -49.5t-34 -141.5z" />
    <glyph glyph-name="uni044F" unicode="&#x44f;" horiz-adv-x="593" 
d="M523 -59h-131v230h-75q-27 0 -46 -5.5t-31 -20t-18 -39t-7 -63.5q-3 -65 -29.5 -92.5t-76.5 -27.5q-39 0 -59.5 22.5t-24.5 56.5q-1 13 10 13q23 0 34.5 17.5t15.5 68.5q2 39 16 65.5t43 42.5q-38 24 -61 60.5t-23 86.5q0 43 16 75t45 53.5t70 32t91 10.5h241v-586z
M192 352q0 -35 21 -51t74 -16h105v124h-105q-53 0 -74 -12.5t-21 -44.5z" />
    <glyph glyph-name="uni0451" unicode="&#x451;" horiz-adv-x="600" 
d="M217 605q-32 0 -53 21t-21 54t21 54t53 21t53.5 -21t21.5 -54t-21.5 -54t-53.5 -21zM38 231q0 69 20.5 125.5t57 97t87 63t110.5 22.5q58 0 105.5 -22t81.5 -59.5t52.5 -87.5t18.5 -106q0 -43 -6 -74h-395q10 -75 52 -113.5t111 -38.5q52 0 83.5 21t38.5 54q1 7 10 6
q32 -4 51.5 -20.5t19.5 -48.5q0 -27 -15 -50t-42.5 -40.5t-66.5 -27t-87 -9.5q-65 0 -118 22t-90.5 62t-58 97t-20.5 127zM438 297q-9 60 -40.5 93.5t-84.5 33.5q-52 0 -88.5 -32t-50.5 -95h264zM334 680q0 33 21.5 54t53.5 21t53 -21t21 -54t-21 -54t-53 -21t-53.5 21
t-21.5 54z" />
    <glyph glyph-name="uni2015" unicode="&#x2015;" horiz-adv-x="1000" 
d="M933 269h-866v129h866v-129z" />
    <glyph glyph-name="quoteleft" unicode="&#x2018;" horiz-adv-x="230" 
d="M161 790q16 0 27 -8q5 -4 -1 -8q-5 -3 -14.5 -15t-9.5 -32t4 -33.5t9.5 -25.5t9.5 -25t4 -30q0 -29 -19.5 -48t-50.5 -19q-33 0 -56.5 22t-23.5 70q0 33 11.5 61t29 48.5t39 31.5t41.5 11z" />
    <glyph glyph-name="quoteright" unicode="&#x2019;" horiz-adv-x="230" 
d="M69 526q-16 0 -27 8q-6 4 1 8q5 3 14.5 15t9.5 32q0 19 -4 33t-9.5 26t-9.5 25t-4 30q0 29 19.5 48t50.5 19q33 0 56.5 -22t23.5 -70q0 -33 -11.5 -61t-29 -48.5t-39 -31.5t-41.5 -11z" />
    <glyph glyph-name="quotedblleft" unicode="&#x201c;" horiz-adv-x="410" 
d="M161 790q16 0 27 -8q5 -4 -1 -8q-5 -3 -14.5 -15t-9.5 -32t4 -33.5t9.5 -25.5t9.5 -25t4 -30q0 -29 -19.5 -48t-50.5 -19q-33 0 -56.5 22t-23.5 70q0 33 11.5 61t29 48.5t39 31.5t41.5 11zM220 638q0 33 11.5 61t29 48.5t39 31.5t41.5 11q16 0 27 -8q5 -4 -1 -8
q-5 -3 -14.5 -15t-9.5 -32t4 -33.5t9.5 -25.5t9.5 -25t4 -30q0 -29 -19.5 -48t-50.5 -19q-33 0 -56.5 22t-23.5 70z" />
    <glyph glyph-name="quotedblright" unicode="&#x201d;" horiz-adv-x="410" 
d="M69 526q-16 0 -27 8q-6 4 1 8q5 3 14.5 15t9.5 32q0 19 -4 33t-9.5 26t-9.5 25t-4 30q0 29 19.5 48t50.5 19q33 0 56.5 -22t23.5 -70q0 -33 -11.5 -61t-29 -48.5t-39 -31.5t-41.5 -11zM220 703q0 29 19.5 48t50.5 19q33 0 56.5 -22t23.5 -70q0 -33 -11.5 -61t-29 -48.5
t-39 -31.5t-41.5 -11q-16 0 -27 8q-6 4 1 8q5 3 14.5 15t9.5 32q0 19 -4 33t-9.5 26t-9.5 25t-4 30z" />
    <glyph glyph-name="dagger" unicode="&#x2020;" horiz-adv-x="620" 
d="M560 391h-185v-440h-130v440h-185v125h185v229h130v-229h185v-125z" />
    <glyph glyph-name="daggerdbl" unicode="&#x2021;" horiz-adv-x="620" 
d="M560 391h-185v-95h185v-125h-185v-220h-130v220h-185v125h185v95h-185v125h185v229h130v-229h185v-125z" />
    <glyph glyph-name="twodotenleader" unicode="&#x2025;" horiz-adv-x="480" 
d="M140 -74q-35 0 -58.5 23t-23.5 59t23.5 59t58.5 23t58.5 -23t23.5 -59t-23.5 -59t-58.5 -23zM258 8q0 36 23.5 59t58.5 23t58.5 -23t23.5 -59t-23.5 -59t-58.5 -23t-58.5 23t-23.5 59z" />
    <glyph glyph-name="ellipsis" unicode="&#x2026;" horiz-adv-x="680" 
d="M140 -74q-35 0 -58.5 23t-23.5 59t23.5 59t58.5 23t58.5 -23t23.5 -59t-23.5 -59t-58.5 -23zM258 8q0 36 23.5 59t58.5 23t58.5 -23t23.5 -59t-23.5 -59t-58.5 -23t-58.5 23t-23.5 59zM458 8q0 36 23.5 59t58.5 23t58.5 -23t23.5 -59t-23.5 -59t-58.5 -23t-58.5 23
t-23.5 59z" />
    <glyph glyph-name="perthousand" unicode="&#x2030;" horiz-adv-x="1000" 
d="M195 -59h-114l404 786h114zM13 532q0 101 38.5 157t109.5 56t110 -56t39 -157t-39 -157t-110 -56t-109.5 56t-38.5 157zM124 532q0 -63 9.5 -85t27.5 -22t27.5 22t9.5 85t-9.5 85t-27.5 22t-27.5 -22t-9.5 -85zM370 136q0 101 39 157t110 56q70 0 109 -56t39 -157
t-39 -157t-109 -56q-71 0 -110 56t-39 157zM482 136q0 -63 9 -85t28 -22q18 0 27.5 22t9.5 85t-9.5 85t-27.5 22q-19 0 -28 -22t-9 -85zM690 136q0 101 39 157t109 56q71 0 110 -56t39 -157t-39 -157t-110 -56q-70 0 -109 56t-39 157zM801 136q0 -63 9.5 -85t27.5 -22
q19 0 28 22t9 85t-9 85t-28 22q-18 0 -27.5 -22t-9.5 -85z" />
    <glyph glyph-name="minute" unicode="&#x2032;" horiz-adv-x="328" 
d="M40 464l98 287h150l-142 -287h-106z" />
    <glyph glyph-name="second" unicode="&#x2033;" horiz-adv-x="518" 
d="M40 464l98 287h150l-142 -287h-106zM328 751h150l-142 -287h-106z" />
    <glyph glyph-name="uni203B" unicode="&#x203b;" horiz-adv-x="1000" 
d="M754 -10l-254 257l-254 -257l-87 87l254 257l-254 257l87 87l254 -257l254 257l87 -87l-254 -257l254 -257zM139 334q0 36 23.5 59t58.5 23t58.5 -23t23.5 -59t-23.5 -59t-58.5 -23t-58.5 23t-23.5 59zM418 52q0 36 23.5 59t58.5 23t58.5 -23t23.5 -59t-23.5 -59
t-58.5 -23t-58.5 23t-23.5 59zM418 616q0 36 23.5 59t58.5 23t58.5 -23t23.5 -59t-23.5 -59t-58.5 -23t-58.5 23t-23.5 59zM697 334q0 36 23.5 59t58.5 23t58.5 -23t23.5 -59t-23.5 -59t-58.5 -23t-58.5 23t-23.5 59z" />
    <glyph glyph-name="uni2074" unicode="&#x2074;" horiz-adv-x="400" 
d="M313 400v-77h-92v77h-183v53l202 283h73v-256q14 0 20.5 2.5t8.5 5.5q3 7 9 1q21 -21 21 -49q0 -40 -56 -40h-3zM221 480v98l-70 -98h70z" />
    <glyph glyph-name="uni207F" unicode="&#x207f;" horiz-adv-x="400" 
d="M252 540q0 39 -10.5 53t-29.5 14q-29 0 -49 -24t-20 -62v-198h-99v309q0 9 -2.5 14t-7.5 10q-8 6 1 12q11 6 27.5 11.5t31.5 5.5q16 0 29 -7.5t18 -24.5q20 15 43 23.5t49 8.5q57 0 87.5 -38t30.5 -104v-220h-99v217v0z" />
    <glyph glyph-name="uni2081" unicode="&#x2081;" horiz-adv-x="400" 
d="M221 354h70v-413h-99v297l-74 -47l-43 71z" />
    <glyph glyph-name="uni2082" unicode="&#x2082;" horiz-adv-x="400" 
d="M57 -59v28q0 59 35.5 103.5t91.5 84.5q40 29 54 47.5t14 38.5q0 42 -47 42q-33 0 -49 -18t-8 -49l-1 1q5 -14 -15 -19q-13 -3 -26.5 -2t-25 7.5t-18.5 18.5t-7 29q0 21 10.5 41t30 35.5t47.5 24.5t64 9q34 0 61 -10t45 -26.5t27.5 -38t9.5 -43.5q0 -42 -25.5 -77
t-76.5 -70q-28 -20 -47.5 -38.5t-30.5 -38.5h128q14 0 17.5 2.5t4.5 4.5q5 8 13 2q10 -7 17 -21t7 -28q0 -40 -56 -40h-244z" />
    <glyph glyph-name="uni2083" unicode="&#x2083;" horiz-adv-x="400" 
d="M189 195q32 0 43.5 13.5t11.5 36.5q0 21 -10.5 30.5t-36.5 9.5q-32 0 -47 -15t-5 -46q2 -8 -1 -11t-11 -5q-13 -4 -27 -3t-25.5 7.5t-19 18.5t-7.5 30q0 20 10 38.5t28.5 32.5t45.5 22.5t61 8.5q36 0 63 -9.5t45 -25.5t27 -37t9 -43q0 -23 -10.5 -47t-35.5 -42
q27 -16 43 -40t16 -58q0 -26 -11 -49.5t-32 -41t-50.5 -28t-65.5 -10.5q-35 0 -63 9t-48 24.5t-31 36t-11 42.5q0 17 7.5 28.5t19.5 17.5t26 7t27 -2q9 -2 11.5 -5.5t0.5 -11.5q-10 -31 8.5 -50t50.5 -19q29 0 46 14t17 40q0 27 -17 42t-52 15h-37v75h37v0z" />
    <glyph glyph-name="uni2084" unicode="&#x2084;" horiz-adv-x="400" 
d="M313 18v-77h-92v77h-183v53l202 283h73v-256q14 0 20.5 2.5t8.5 5.5q3 7 9 1q21 -21 21 -49q0 -40 -56 -40h-3zM221 98v98l-70 -98h70z" />
    <glyph glyph-name="Euro" unicode="&#x20ac;" horiz-adv-x="726" 
d="M437 626q-72 0 -121.5 -34.5t-72.5 -106.5h258v-121h-278q-1 -8 -1 -15v-15l1 -29h278v-121h-259q23 -72 70.5 -107t115.5 -35q42 0 72.5 14t49 34t25.5 43.5t1 42.5q-3 12 9 12q45 1 73 -21t28 -62q0 -31 -16.5 -63.5t-49.5 -58.5t-81 -43t-111 -17q-117 0 -202 67.5
t-118 193.5h-68v121h51q-1 8 -1 14.5v14.5l1 30h-51v121h68q32 126 116 193t205 67q61 0 107 -16t77 -42t47 -58t16 -63q0 -40 -27.5 -57.5t-68.5 -15.5q-13 0 -10 11q4 18 -3 39t-24 39.5t-43.5 31t-62.5 12.5z" />
    <glyph glyph-name="uni2103" unicode="&#x2103;" horiz-adv-x="937" 
d="M25 622q0 31 11.5 57t32 45t49 30t62.5 11q33 0 61.5 -11t49.5 -30t32.5 -45t11.5 -57t-11.5 -57.5t-32.5 -45.5t-49.5 -29.5t-61.5 -10.5q-34 0 -62.5 10.5t-49 29.5t-32 45.5t-11.5 57.5zM122 622q0 -28 16 -44.5t42 -16.5t41.5 16.5t15.5 44.5q0 27 -15.5 44t-41.5 17
t-42 -17t-16 -44zM311 334q0 98 24 174.5t68.5 129t107 80t139.5 27.5q61 0 107 -16t77 -42t47 -58t16 -63q0 -40 -27.5 -57.5t-68.5 -15.5q-13 0 -10 11q4 18 -3 39t-24 39.5t-43.5 31t-62.5 12.5q-103 0 -159 -71.5t-56 -220.5t55 -220.5t151 -71.5q42 0 72.5 14t49 34
t25.5 43.5t1 42.5q-3 12 9 12q45 1 73 -21t28 -62q0 -31 -16.5 -63.5t-49.5 -58.5t-81 -43t-111 -17q-74 0 -136 27.5t-107 80t-70 129t-25 174.5z" />
    <glyph glyph-name="uni2109" unicode="&#x2109;" horiz-adv-x="911" 
d="M25 622q0 31 11.5 57t32 45t49 30t62.5 11q33 0 61.5 -11t49.5 -30t32.5 -45t11.5 -57t-11.5 -57.5t-32.5 -45.5t-49.5 -29.5t-61.5 -10.5q-34 0 -62.5 10.5t-49 29.5t-32 45.5t-11.5 57.5zM122 622q0 -28 16 -44.5t42 -16.5t41.5 16.5t15.5 44.5q0 27 -15.5 44t-41.5 17
t-42 -17t-16 -44zM365 727h430q22 0 33.5 4.5t19.5 15.5q5 7 10 0q9 -13 16 -33t7 -46q0 -30 -18 -44t-62 -14h-305v-228h276q22 0 33.5 4.5t19.5 15.5q5 7 10 0q9 -13 16 -33t7 -46q0 -30 -18 -44t-62 -14h-282v-324h-131v786z" />
    <glyph glyph-name="uni2113" unicode="&#x2113;" horiz-adv-x="1000" 
d="M407 62h297q22 0 33.5 4.5t19.5 15.5q5 7 10 0q9 -13 16 -34t7 -47q0 -30 -18 -45t-62 -15h-436v713q0 23 -5 34.5t-15 17.5q-8 5 0 10q14 9 39 16t48 7q28 0 47 -17t19 -61v-599z" />
    <glyph glyph-name="uni2116" unicode="&#x2116;" horiz-adv-x="1000" 
d="M158 474v-524h-92v762h108l235 -458v458h92v-762h-83zM546 360q0 66 15 119t41.5 90t63.5 57t82 20t82 -20t63.5 -57t41.5 -90t15 -119t-15 -119t-41.5 -90t-63.5 -57t-82 -20t-82 20t-63.5 57t-41.5 90t-15 119zM561 38h374v-88h-374v88zM671 360q0 -99 23 -148.5
t54 -49.5t54 49.5t23 148.5t-23 148.5t-54 49.5t-54 -49.5t-23 -148.5z" />
    <glyph glyph-name="uni2121" unicode="&#x2121;" horiz-adv-x="1000" 
d="M299 616v-666h-132v666h-136v96h404v-96h-136zM356 221q0 68 15 121.5t43 90t67 56t86 19.5q46 0 83 -19.5t63.5 -55.5t40.5 -87.5t14 -115.5q0 -14 -1 -25.5t-3 -22.5h-277q5 -76 29.5 -116t69.5 -40q29 0 56 14.5t54 52.5l41 -69q-25 -40 -64.5 -65t-97.5 -25
q-103 0 -161 75t-58 212zM638 258q0 34 -5 63t-14 50t-22.5 33t-29.5 12q-35 0 -55.5 -41.5t-24.5 -116.5h151zM823 712h126v-762h-126v762z" />
    <glyph glyph-name="trademark" unicode="&#x2122;" horiz-adv-x="865" 
d="M354 685q0 -42 -56 -42h-62v-333h-98v333h-62q-56 0 -56 42q0 29 19 51q4 5 9 0q4 -5 10.5 -7t20.5 -2h216q14 0 20.5 2t10.5 7q5 5 9 0q19 -22 19 -51zM375 707q-4 3 0 7q9 8 23.5 13.5t32.5 5.5q20 0 38 -11t31 -44l95 -247l117 296h93v-417h-96v179l-71 -179h-87
l-70 176v-176h-97v369q0 13 -2 18t-7 10z" />
    <glyph glyph-name="uni2126" unicode="&#x2126;" horiz-adv-x="720" 
d="M360 637q-34 0 -64 -15t-52.5 -42.5t-35.5 -68t-13 -91.5q0 -53 11.5 -94.5t31.5 -71.5t46 -47.5t56 -23.5v-233h-251v82h118v102q-74 45 -110.5 119t-36.5 167q0 71 22.5 128t63 97t95 61.5t119.5 21.5q64 0 119 -21.5t95.5 -61.5t63 -97t22.5 -128q0 -93 -36.5 -167
t-110.5 -119v-102h118v-82h-251v233q30 6 56 23.5t46 47.5t31.5 71.5t11.5 94.5q0 51 -13 91.5t-35.5 68t-52.5 42.5t-64 15z" />
    <glyph glyph-name="uni212B" unicode="&#x212b;" horiz-adv-x="681" 
d="M184 747q0 31 11.5 57t32 45t49 30t62.5 11q33 0 61.5 -11t49.5 -30t32.5 -45t11.5 -57q0 -33 -13 -60t-36 -47l3 -7l228 -694h-138l-65 209h-267l-63 -209h-138l213 667q3 11 5.5 20.5t4.5 17.5q-44 39 -44 103zM437 264l-99 320l-97 -320h196zM281 747q0 -28 16 -44.5
t42 -16.5t41.5 16.5t15.5 44.5q0 27 -15.5 44t-41.5 17t-42 -17t-16 -44z" />
    <glyph glyph-name="uni2153" unicode="&#x2153;" horiz-adv-x="865" 
d="M251 -59h-121l464 786h121zM211 736h70v-413h-99v297l-74 -47l-43 71zM508 44q0 17 7.5 28.5t19.5 17.5t26 7t27 -2q9 -2 11.5 -5.5t0.5 -11.5q-10 -31 8.5 -50t50.5 -19q29 0 46 14t17 40q0 27 -17 42t-52 15h-37v75h37q32 0 43.5 13.5t11.5 36.5q0 21 -10.5 30.5
t-36.5 9.5q-32 0 -47 -15t-5 -46q2 -8 -1 -11t-11 -5q-13 -4 -27 -3t-25.5 7.5t-19 18.5t-7.5 30q0 20 10 38.5t28.5 32.5t45.5 22.5t61 8.5q36 0 63 -9.5t45 -25.5t27 -37t9 -43q0 -23 -10.5 -47t-35.5 -42q27 -16 43 -40t16 -58q0 -26 -11 -49.5t-32 -41t-50.5 -28
t-65.5 -10.5q-35 0 -63 9t-48 24.5t-31 36t-11 42.5z" />
    <glyph glyph-name="uni2154" unicode="&#x2154;" horiz-adv-x="865" 
d="M271 -59h-121l464 786h121zM55 639q0 21 10.5 41t30 35.5t47.5 24.5t64 9q34 0 61 -10t45 -26.5t27.5 -38t9.5 -43.5q0 -42 -25.5 -77t-76.5 -70q-28 -20 -47.5 -38.5t-30.5 -38.5h128q14 0 17.5 2.5t4.5 4.5q5 8 13 2q10 -7 17 -21t7 -28q0 -40 -56 -40h-244v28
q0 59 35.5 103.5t91.5 84.5q40 29 54 47.5t14 38.5q0 42 -47 42q-33 0 -49 -18t-8 -49l-1 1q5 -14 -15 -19q-13 -3 -26.5 -2t-25 7.5t-18.5 18.5t-7 29zM508 44q0 17 7.5 28.5t19.5 17.5t26 7t27 -2q9 -2 11.5 -5.5t0.5 -11.5q-10 -31 8.5 -50t50.5 -19q29 0 46 14t17 40
q0 27 -17 42t-52 15h-37v75h37q32 0 43.5 13.5t11.5 36.5q0 21 -10.5 30.5t-36.5 9.5q-32 0 -47 -15t-5 -46q2 -8 -1 -11t-11 -5q-13 -4 -27 -3t-25.5 7.5t-19 18.5t-7.5 30q0 20 10 38.5t28.5 32.5t45.5 22.5t61 8.5q36 0 63 -9.5t45 -25.5t27 -37t9 -43q0 -23 -10.5 -47
t-35.5 -42q27 -16 43 -40t16 -58q0 -26 -11 -49.5t-32 -41t-50.5 -28t-65.5 -10.5q-35 0 -63 9t-48 24.5t-31 36t-11 42.5z" />
    <glyph glyph-name="oneeighth" unicode="&#x215b;" horiz-adv-x="865" 
d="M251 -59h-121l464 786h121zM211 736h70v-413h-99v297l-74 -47l-43 71zM499 63q0 31 15 57t41 44q-41 33 -41 81q0 54 40.5 86t106.5 32t107 -32t41 -86q0 -48 -41 -81q26 -18 40.5 -44t14.5 -57q0 -27 -11.5 -51t-32.5 -42t-51 -28t-67 -10t-67 10t-51 28t-32.5 42
t-11.5 51zM597 66q0 -55 64 -55t64 55q0 58 -64 58t-64 -58zM612 242q0 -44 49 -44q50 0 50 44q0 41 -50 41q-49 0 -49 -41z" />
    <glyph glyph-name="threeeighths" unicode="&#x215c;" horiz-adv-x="865" 
d="M251 -59h-121l464 786h121zM44 426q0 17 7.5 28.5t19.5 17.5t26 7t27 -2q9 -2 11.5 -5.5t0.5 -11.5q-10 -31 8.5 -50t50.5 -19q29 0 46 14t17 40q0 27 -17 42t-52 15h-37v75h37q32 0 43.5 13.5t11.5 36.5q0 21 -10.5 30.5t-36.5 9.5q-32 0 -47 -15t-5 -46q2 -8 -1 -11
t-11 -5q-13 -4 -27 -3t-25.5 7.5t-19 18.5t-7.5 30q0 20 10 38.5t28.5 32.5t45.5 22.5t61 8.5q36 0 63 -9.5t45 -25.5t27 -37t9 -43q0 -23 -10.5 -47t-35.5 -42q27 -16 43 -40t16 -58q0 -26 -11 -49.5t-32 -41t-50.5 -28t-65.5 -10.5q-35 0 -63 9t-48 24.5t-31 36t-11 42.5z
M499 63q0 31 15 57t41 44q-41 33 -41 81q0 54 40.5 86t106.5 32t107 -32t41 -86q0 -48 -41 -81q26 -18 40.5 -44t14.5 -57q0 -27 -11.5 -51t-32.5 -42t-51 -28t-67 -10t-67 10t-51 28t-32.5 42t-11.5 51zM597 66q0 -55 64 -55t64 55q0 58 -64 58t-64 -58zM612 242
q0 -44 49 -44q50 0 50 44q0 41 -50 41q-49 0 -49 -41z" />
    <glyph glyph-name="fiveeighths" unicode="&#x215d;" horiz-adv-x="865" 
d="M251 -59h-121l464 786h121zM51 415q0 17 7 29t18 18.5t24.5 7.5t27.5 -2q20 -5 15 -19q-7 -27 7.5 -42.5t44.5 -15.5q28 0 45.5 19t17.5 54q0 65 -61 65q-19 0 -31 -6.5t-21 -20.5l-79 15l21 219h192q14 0 20 3t10 7t9 -1q20 -20 20 -49q0 -40 -56 -40h-105l-6 -58
q19 6 43 6q30 0 56 -10.5t45 -29.5t30 -45t11 -56q0 -32 -11.5 -59.5t-33 -47.5t-52 -31t-67.5 -11q-68 0 -104.5 30t-36.5 71zM499 63q0 31 15 57t41 44q-41 33 -41 81q0 54 40.5 86t106.5 32t107 -32t41 -86q0 -48 -41 -81q26 -18 40.5 -44t14.5 -57q0 -27 -11.5 -51
t-32.5 -42t-51 -28t-67 -10t-67 10t-51 28t-32.5 42t-11.5 51zM597 66q0 -55 64 -55t64 55q0 58 -64 58t-64 -58zM612 242q0 -44 49 -44q50 0 50 44q0 41 -50 41q-49 0 -49 -41z" />
    <glyph glyph-name="seveneighths" unicode="&#x215e;" horiz-adv-x="865" 
d="M231 -59h-121l464 786h121zM80 697q0 12 4 24t15 25q4 5 9 0q3 -4 10 -6.5t21 -2.5h242v-51l-166 -362h-108l156 334h-127q-56 0 -56 39zM499 63q0 31 15 57t41 44q-41 33 -41 81q0 54 40.5 86t106.5 32t107 -32t41 -86q0 -48 -41 -81q26 -18 40.5 -44t14.5 -57
q0 -27 -11.5 -51t-32.5 -42t-51 -28t-67 -10t-67 10t-51 28t-32.5 42t-11.5 51zM597 66q0 -55 64 -55t64 55q0 58 -64 58t-64 -58zM612 242q0 -44 49 -44q50 0 50 44q0 41 -50 41q-49 0 -49 -41z" />
    <glyph glyph-name="uni2160" unicode="&#x2160;" horiz-adv-x="1000" 
d="M446 654q0 23 -5 34.5t-15 17.5q-8 5 0 10q14 9 39 16t48 7q28 0 47 -17t19 -61v-720h-133v713v0z" />
    <glyph glyph-name="uni2161" unicode="&#x2161;" horiz-adv-x="1000" 
d="M300 654q0 23 -5 34.5t-15 17.5q-8 5 0 10q14 9 39 16t48 7q28 0 47 -17t19 -61v-720h-133v713zM572 706q-8 5 0 10q14 9 39 16t48 7q28 0 47 -17t19 -61v-720h-133v713q0 23 -5 34.5t-15 17.5z" />
    <glyph glyph-name="uni2162" unicode="&#x2162;" horiz-adv-x="1000" 
d="M154 654q0 23 -5 34.5t-15 17.5q-8 5 0 10q14 9 39 16t48 7q28 0 47 -17t19 -61v-720h-133v713zM426 706q-8 5 0 10q14 9 39 16t48 7q28 0 47 -17t19 -61v-720h-133v713q0 23 -5 34.5t-15 17.5zM718 706q-8 5 0 10q14 9 39 16t48 7q28 0 47 -17t19 -61v-720h-133v713
q0 23 -5 34.5t-15 17.5z" />
    <glyph glyph-name="uni2163" unicode="&#x2163;" horiz-adv-x="1000" 
d="M79 654q0 23 -5 34.5t-15 17.5q-8 5 0 10q14 9 39 16t48 7q28 0 47 -17t19 -61v-720h-133v713zM296 706q-8 5 0 10q14 9 39.5 16t48.5 7q27 0 46.5 -18t33.5 -60l172 -540l182 533q8 22 6 34t-10 18q-8 5 0 10q14 9 40 16t49 7q13 0 25.5 -5t20 -17t8 -32t-10.5 -51
l-244 -693h-132l-243 713q-8 22 -14.5 34t-16.5 18z" />
    <glyph glyph-name="uni2164" unicode="&#x2164;" horiz-adv-x="1000" 
d="M685 654q8 22 6 34t-10 18q-8 5 0 10q14 9 40 16t49 7q13 0 25.5 -5t20 -17t8 -32t-10.5 -51l-244 -693h-132l-243 713q-8 22 -14.5 34t-16.5 18q-8 5 0 10q14 9 39.5 16t48.5 7q27 0 46.5 -18t33.5 -60l172 -540l182 533v0z" />
    <glyph glyph-name="uni2165" unicode="&#x2165;" horiz-adv-x="1000" 
d="M581 654q8 22 6 34t-10 18q-8 5 0 10q14 9 40 16t49 7q13 0 25.5 -5t20 -17t8 -32t-10.5 -51l-244 -693h-132l-243 713q-8 22 -14.5 34t-16.5 18q-8 5 0 10q14 9 39.5 16t48.5 7q27 0 46.5 -18t33.5 -60l172 -540zM793 706q-8 5 0 10q14 9 39 16t48 7q28 0 47 -17t19 -61
v-720h-133v713q0 23 -5 34.5t-15 17.5z" />
    <glyph glyph-name="uni2166" unicode="&#x2166;" horiz-adv-x="1000" 
d="M406 654q5 22 4.5 34t-8.5 18q-8 5 0 10q14 9 40 16t49 7q13 0 24.5 -5t18.5 -17t7.5 -32t-7.5 -51l-174 -693h-132l-173 713q-5 22 -13 34t-18 18q-8 5 0 10q14 9 39.5 16t48.5 7q27 0 49.5 -18t30.5 -60l102 -520zM579 706q-8 5 0 10q14 9 39 16t48 7q28 0 47 -17
t19 -61v-720h-133v713q0 23 -5 34.5t-15 17.5zM791 706q-8 5 0 10q14 9 39 16t48 7q28 0 47 -17t19 -61v-720h-133v713q0 23 -5 34.5t-15 17.5z" />
    <glyph glyph-name="uni2167" unicode="&#x2167;" horiz-adv-x="1000" 
d="M290 654q3 22 3.5 34t-7.5 18q-8 5 0 10q14 9 38.5 16t47.5 7q27 0 38.5 -22t1.5 -83l-118 -693h-132l-117 713q-4 22 -12.5 34t-18.5 18q-8 5 0 10q14 9 38 16t47 7q27 0 49.5 -18t27.5 -60l52 -454zM447 706q-8 5 0 10q14 9 37.5 16t46.5 7q28 0 45.5 -17t17.5 -61
v-720h-127v713q0 23 -5 34.5t-15 17.5zM633 706q-8 5 0 10q14 9 37.5 16t46.5 7q28 0 45.5 -17t17.5 -61v-720h-127v713q0 23 -5 34.5t-15 17.5zM819 706q-8 5 0 10q14 9 37.5 16t46.5 7q28 0 45.5 -17t17.5 -61v-720h-127v713q0 23 -5 34.5t-15 17.5z" />
    <glyph glyph-name="uni2168" unicode="&#x2168;" horiz-adv-x="1000" 
d="M79 654q0 23 -5 34.5t-15 17.5q-8 5 0 10q14 9 39 16t48 7q28 0 47 -17t19 -61v-720h-133v713zM534 340l-182 306q-17 29 -27 40t-20 14q-9 4 -1 10q14 12 38.5 20.5t47.5 8.5q28 0 48 -16t43 -54l138 -225l137 210q25 40 9 56q-7 7 1 10q15 8 41 13.5t49 5.5
q15 0 29.5 -7t21.5 -21t4 -34.5t-21 -47.5l-199 -295l246 -393h-149l-176 288l-179 -288h-151z" />
    <glyph glyph-name="uni2169" unicode="&#x2169;" horiz-adv-x="1000" 
d="M678 -59l-176 288l-179 -288h-151l252 399l-182 306q-17 29 -27 40t-20 14q-9 4 -1 10q14 12 38.5 20.5t47.5 8.5q28 0 48 -16t43 -54l138 -225l137 210q25 40 9 56q-7 7 1 10q15 8 41 13.5t49 5.5q15 0 29.5 -7t21.5 -21t4 -34.5t-21 -47.5l-199 -295l246 -393h-149z
" />
    <glyph glyph-name="uni2170" unicode="&#x2170;" horiz-adv-x="1000" 
d="M444 454q0 23 -5 34.5t-15 17.5q-8 5 0 10q14 9 38.5 16t47.5 7q27 0 46 -17t19 -61v-520h-131v513zM421 686q0 35 23 56.5t57 21.5t57 -21.5t23 -56.5t-23 -56.5t-57 -21.5t-57 21.5t-23 56.5z" />
    <glyph glyph-name="uni2171" unicode="&#x2171;" horiz-adv-x="1000" 
d="M306 454q0 23 -5 34.5t-15 17.5q-8 5 0 10q14 9 38.5 16t47.5 7q27 0 46 -17t19 -61v-520h-131v513zM283 686q0 35 23 56.5t57 21.5t57 -21.5t23 -56.5t-23 -56.5t-57 -21.5t-57 21.5t-23 56.5zM559 686q0 35 23 56.5t57 21.5t57 -21.5t23 -56.5t-23 -56.5t-57 -21.5
t-57 21.5t-23 56.5zM562 506q-8 5 0 10q14 9 38.5 16t47.5 7q27 0 46 -17t19 -61v-520h-131v513q0 23 -5 34.5t-15 17.5z" />
    <glyph glyph-name="uni2172" unicode="&#x2172;" horiz-adv-x="1000" 
d="M168 454q0 23 -5 34.5t-15 17.5q-8 5 0 10q14 9 38.5 16t47.5 7q27 0 46 -17t19 -61v-520h-131v513zM145 686q0 35 23 56.5t57 21.5t57 -21.5t23 -56.5t-23 -56.5t-57 -21.5t-57 21.5t-23 56.5zM421 686q0 35 23 56.5t57 21.5t57 -21.5t23 -56.5t-23 -56.5t-57 -21.5
t-57 21.5t-23 56.5zM424 506q-8 5 0 10q14 9 38.5 16t47.5 7q27 0 46 -17t19 -61v-520h-131v513q0 23 -5 34.5t-15 17.5zM697 686q0 35 23 56.5t57 21.5t57 -21.5t23 -56.5t-23 -56.5t-57 -21.5t-57 21.5t-23 56.5zM700 506q-8 5 0 10q14 9 38.5 16t47.5 7q27 0 46 -17
t19 -61v-520h-131v513q0 23 -5 34.5t-15 17.5z" />
    <glyph glyph-name="uni2173" unicode="&#x2173;" horiz-adv-x="1000" 
d="M128 454q0 23 -5 34.5t-15 17.5q-8 5 0 10q14 9 38.5 16t47.5 7q27 0 46 -17t19 -61v-520h-131v513zM105 686q0 35 23 56.5t57 21.5t57 -21.5t23 -56.5t-23 -56.5t-57 -21.5t-57 21.5t-23 56.5zM338 506q-8 5 0 10q14 9 37.5 16t46.5 7q27 0 45 -17t32 -61l119 -360
l125 353q8 21 6 33.5t-10 18.5q-8 5 0 10q14 9 39 16t48 7q13 0 25.5 -5t19.5 -17t7 -32.5t-12 -50.5l-185 -493h-128l-184 513q-8 20 -14.5 33t-16.5 19z" />
    <glyph glyph-name="uni2174" unicode="&#x2174;" horiz-adv-x="1000" 
d="M628 454q8 21 6 33.5t-10 18.5q-8 5 0 10q14 9 39 16t48 7q13 0 25.5 -5t19.5 -17t7 -32.5t-12 -50.5l-185 -493h-128l-184 513q-8 20 -14.5 33t-16.5 19q-8 5 0 10q14 9 37.5 16t46.5 7q27 0 45 -17t32 -61l119 -360l125 353v0z" />
    <glyph glyph-name="uni2175" unicode="&#x2175;" horiz-adv-x="1000" 
d="M528 454q8 21 6 33.5t-10 18.5q-8 5 0 10q14 9 39 16t48 7q13 0 25.5 -5t19.5 -17t7 -32.5t-12 -50.5l-185 -493h-128l-184 513q-8 20 -14.5 33t-16.5 19q-8 5 0 10q14 9 37.5 16t46.5 7q27 0 45 -17t32 -61l119 -360zM722 686q0 35 23 56.5t57 21.5t57 -21.5t23 -56.5
t-23 -56.5t-57 -21.5t-57 21.5t-23 56.5zM725 506q-8 5 0 10q14 9 38.5 16t47.5 7q27 0 46 -17t19 -61v-520h-131v513q0 23 -5 34.5t-15 17.5z" />
    <glyph glyph-name="uni2176" unicode="&#x2176;" horiz-adv-x="1000" 
d="M399 454q13 40 -4 52q-8 5 0 10q14 9 39 16t48 7q13 0 25 -5t18.5 -17t6.5 -32t-10 -51l-165 -493h-128l-164 513q-14 41 -31 52q-8 5 0 10q14 9 37.5 16t46.5 7q27 0 46 -17t31 -61l99 -354zM563 686q0 35 23 56.5t57 21.5t57 -21.5t23 -56.5t-23 -56.5t-57 -21.5
t-57 21.5t-23 56.5zM566 506q-8 5 0 10q14 9 38.5 16t47.5 7q27 0 46 -17t19 -61v-520h-131v513q0 23 -5 34.5t-15 17.5zM769 686q0 35 23 56.5t57 21.5t57 -21.5t23 -56.5t-23 -56.5t-57 -21.5t-57 21.5t-23 56.5zM772 506q-8 5 0 10q14 9 38.5 16t47.5 7q27 0 46 -17
t19 -61v-520h-131v513q0 23 -5 34.5t-15 17.5z" />
    <glyph glyph-name="uni2177" unicode="&#x2177;" horiz-adv-x="1000" 
d="M299 454q5 21 4.5 33.5t-8.5 18.5q-8 5 0 10q14 9 39 16t48 7q13 0 24 -4.5t17 -16.5t6.5 -32.5t-7.5 -51.5l-125 -493h-128l-124 513q-10 39 -31 52q-8 5 0 10q14 9 37.5 16t46.5 7q27 0 48 -17t29 -61l59 -316zM448 686q0 35 23 56.5t57 21.5t57 -21.5t23 -56.5
t-23 -56.5t-57 -21.5t-57 21.5t-23 56.5zM451 506q-8 5 0 10q14 9 38.5 16t47.5 7q27 0 46 -17t19 -61v-520h-131v513q0 23 -5 34.5t-15 17.5zM634 686q0 35 23 56.5t57 21.5t57 -21.5t23 -56.5t-23 -56.5t-57 -21.5t-57 21.5t-23 56.5zM637 506q-8 5 0 10q14 9 38.5 16
t47.5 7q27 0 46 -17t19 -61v-520h-131v513q0 23 -5 34.5t-15 17.5zM820 686q0 35 23 56.5t57 21.5t57 -21.5t23 -56.5t-23 -56.5t-57 -21.5t-57 21.5t-23 56.5zM823 506q-8 5 0 10q14 9 38.5 16t47.5 7q27 0 46 -17t19 -61v-520h-131v513q0 23 -5 34.5t-15 17.5z" />
    <glyph glyph-name="uni2178" unicode="&#x2178;" horiz-adv-x="1000" 
d="M140 454q0 23 -5 34.5t-15 17.5q-8 5 0 10q14 9 38.5 16t47.5 7q27 0 46 -17t19 -61v-520h-131v513zM117 686q0 35 23 56.5t57 21.5t57 -21.5t23 -56.5t-23 -56.5t-57 -21.5t-57 21.5t-23 56.5zM546 239l-124 207q-18 31 -27.5 41t-19.5 13q-9 4 -1 10q14 12 37 20.5
t46 8.5q28 0 46.5 -15.5t42.5 -54.5l80 -131l79 116q26 39 9 56q-7 7 1 10q15 8 40 13.5t48 5.5q15 0 29.5 -7t21 -20.5t3 -34.5t-22.5 -48l-139 -195l186 -293h-144l-116 193l-123 -193h-146z" />
    <glyph glyph-name="uni2179" unicode="&#x2179;" horiz-adv-x="1000" 
d="M618 -59l-116 193l-123 -193h-146l194 298l-124 207q-18 31 -27.5 41t-19.5 13q-9 4 -1 10q14 12 37 20.5t46 8.5q28 0 46.5 -15.5t42.5 -54.5l80 -131l79 116q26 39 9 56q-7 7 1 10q15 8 40 13.5t48 5.5q15 0 29.5 -7t21 -20.5t3 -34.5t-22.5 -48l-139 -195l186 -293
h-144z" />
    <glyph glyph-name="arrowleft" unicode="&#x2190;" horiz-adv-x="1000" 
d="M430 515l-119 -119h613v-130h-613l119 -119l-90 -90l-274 274l274 274z" />
    <glyph glyph-name="arrowup" unicode="&#x2191;" horiz-adv-x="1000" 
d="M684 381l-119 119v-573h-130v573l-119 -119l-90 90l274 274l274 -274z" />
    <glyph glyph-name="arrowright" unicode="&#x2192;" horiz-adv-x="1000" 
d="M934 331l-274 -274l-90 90l119 119h-613v130h613l-119 119l90 90z" />
    <glyph glyph-name="arrowdown" unicode="&#x2193;" horiz-adv-x="1000" 
d="M500 -83l-274 274l90 90l119 -119v573h130v-573l119 119l90 -90z" />
    <glyph glyph-name="arrowboth" unicode="&#x2194;" horiz-adv-x="1000" 
d="M410 515l-119 -119h418l-119 119l90 90l274 -274l-274 -274l-90 90l119 119h-418l119 -119l-90 -90l-274 274l274 274z" />
    <glyph glyph-name="arrowupdn" unicode="&#x2195;" horiz-adv-x="1000" 
d="M684 401l-119 119v-378l119 119l90 -90l-274 -274l-274 274l90 90l119 -119v378l-119 -119l-90 90l274 274l274 -274z" />
    <glyph glyph-name="uni2196" unicode="&#x2196;" horiz-adv-x="1000" 
d="M544 552h-169l486 -486l-92 -92l-486 486v-169h-127v388h388v-127z" />
    <glyph glyph-name="uni2197" unicode="&#x2197;" horiz-adv-x="1000" 
d="M844 679v-388h-127v169l-486 -486l-92 92l486 486h-169v127h388z" />
    <glyph glyph-name="uni2198" unicode="&#x2198;" horiz-adv-x="1000" 
d="M456 111h169l-486 486l92 92l486 -486v169h127v-388h-388v127z" />
    <glyph glyph-name="uni2199" unicode="&#x2199;" horiz-adv-x="1000" 
d="M156 -16v388h127v-169l486 486l92 -92l-486 -486h169v-127h-388z" />
    <glyph glyph-name="arrowdblright" unicode="&#x21d2;" horiz-adv-x="1000" 
d="M700 608l278 -278l-278 -278l-68 68l87 88h-653v92h744l30 30l-30 30h-744v92h653l-87 88z" />
    <glyph glyph-name="arrowdblboth" unicode="&#x21d4;" horiz-adv-x="1000" 
d="M700 608l278 -278l-278 -278l-68 68l87 88h-438l87 -88l-68 -68l-278 278l278 278l68 -68l-87 -88h438l-87 88zM190 300h620l30 30l-30 30h-620l-30 -30z" />
    <glyph glyph-name="universal" unicode="&#x2200;" horiz-adv-x="681" 
d="M463 60q-13 -41 -15 -67t9 -34q9 -7 -1 -12q-20 -11 -48 -18.5t-60 -7.5q-21 0 -37.5 5.5t-30 18.5t-25.5 34.5t-22 53.5l-228 694h138l65 -209h267l63 209h138zM343 82l97 320h-196z" />
    <glyph glyph-name="partialdiff" unicode="&#x2202;" horiz-adv-x="608" 
d="M58 206q0 47 19 84.5t52 64t78 40.5t97 14q32 0 60 -5t54 -14v7q0 65 -21 103t-71 38q-37 0 -67 -15t-46 -41l-70 82q35 37 82 59.5t105 22.5q54 0 95 -20t69 -54.5t42 -82t14 -101.5q0 -72 -17.5 -139.5t-53 -119.5t-88 -83.5t-122.5 -31.5q-45 0 -83.5 13t-67 38
t-44.5 60.5t-16 80.5zM190 204q0 -38 19 -60t59 -22q51 0 87 45t52 120q-52 16 -102 16q-56 0 -85.5 -25.5t-29.5 -73.5z" />
    <glyph glyph-name="existential" unicode="&#x2203;" horiz-adv-x="641" 
d="M430 376v234h-309q-22 0 -33.5 -4.5t-19.5 -15.5q-5 -7 -10 0q-9 13 -16 33t-7 46q0 30 18 44t62 14h446v-786h-426q-22 0 -33.5 -4.5t-19.5 -15.5q-5 -7 -10 0q-9 13 -16 33t-7 46q0 30 18 44t62 14h301v203h-280q-22 0 -33.5 -4.5t-19.5 -15.5q-5 -7 -10 0
q-9 13 -16 32.5t-7 45.5q0 30 18 43.5t62 13.5h286z" />
    <glyph glyph-name="gradient" unicode="&#x2207;" horiz-adv-x="1000" 
d="M135 625h730l-365 -599zM509 256l163 268h-327z" />
    <glyph glyph-name="element" unicode="&#x2208;" horiz-adv-x="1000" 
d="M98 330q0 67 24.5 120t67.5 90t100.5 56.5t122.5 19.5h449v-114h-445q-69 0 -114 -29t-60 -86h619v-114h-619q15 -57 60 -86t114 -29h445v-114h-449q-65 0 -122.5 19.5t-100.5 56.5t-67.5 90t-24.5 120z" />
    <glyph glyph-name="suchthat" unicode="&#x220b;" horiz-adv-x="1000" 
d="M757 387q-15 57 -60 86t-114 29h-445v114h449q65 0 122.5 -19.5t100 -56.5t67.5 -90t25 -120t-25 -120t-67.5 -90t-100 -56.5t-122.5 -19.5h-449v114h445q69 0 114 29t60 86h-602v114h602z" />
    <glyph glyph-name="product" unicode="&#x220f;" horiz-adv-x="1000" 
d="M742 -53h-134v654h-215v-654h-135v654h-140v112h764v-112h-140v-654z" />
    <glyph glyph-name="summation" unicode="&#x2211;" horiz-adv-x="1000" 
d="M171 12l265 310l-264 299v92h648v-105h-458l234 -266l-234 -274h467v-121h-658v65z" />
    <glyph glyph-name="radical" unicode="&#x221a;" horiz-adv-x="755" 
d="M234 -73l-130 286h-106v106h197l106 -236l335 650h132l-413 -806h-121z" />
    <glyph glyph-name="proportional" unicode="&#x221d;" horiz-adv-x="1000" 
d="M368 242q61 0 96 88q-38 88 -96 88q-30 0 -52.5 -23t-22.5 -65t22.5 -65t52.5 -23zM179 330q0 40 14.5 73.5t40 57.5t60 37.5t74.5 13.5q54 0 95 -23.5t70 -64.5q29 41 70 64.5t95 23.5q35 0 68 -13t58 -33l-47 -85q-21 21 -40 29t-39 8q-58 0 -96 -88q35 -88 96 -88
q20 0 39 8t40 29l47 -85q-25 -20 -58 -33t-68 -13q-60 0 -99 22.5t-66 63.5q-27 -41 -66 -63.5t-99 -22.5q-39 0 -73 13.5t-60 37.5t-41 57.5t-15 73.5z" />
    <glyph glyph-name="infinity" unicode="&#x221e;" horiz-adv-x="1000" 
d="M335 242q61 0 96 88q-38 88 -96 88q-30 0 -52.5 -23t-22.5 -65t22.5 -65t52.5 -23zM146 330q0 40 14.5 73.5t40 57.5t60 37.5t74.5 13.5q54 0 95 -23.5t70 -64.5q29 41 70 64.5t95 23.5q40 0 74.5 -13.5t60 -37.5t40 -57.5t14.5 -73.5t-15 -73.5t-41 -57.5t-60 -37.5
t-73 -13.5q-60 0 -99 22.5t-66 63.5q-27 -41 -66 -63.5t-99 -22.5q-39 0 -73 13.5t-60 37.5t-41 57.5t-15 73.5zM569 330q35 -88 96 -88q30 0 52.5 23t22.5 65t-22.5 65t-52.5 23q-58 0 -96 -88z" />
    <glyph glyph-name="angle" unicode="&#x2220;" horiz-adv-x="1000" 
d="M823 135v-108h-668l551 560l84 -84l-365 -368h398z" />
    <glyph glyph-name="uni2225" unicode="&#x2225;" horiz-adv-x="484" 
d="M204 770v-870h-124v870h124zM280 770h124v-870h-124v870z" />
    <glyph glyph-name="logicaland" unicode="&#x2227;" horiz-adv-x="1000" 
d="M844 -12l-119 -48l-225 498l-225 -498l-119 48l344 759z" />
    <glyph glyph-name="logicalor" unicode="&#x2228;" horiz-adv-x="1000" 
d="M156 672l119 48l225 -498l225 498l119 -48l-344 -759z" />
    <glyph glyph-name="intersection" unicode="&#x2229;" horiz-adv-x="1000" 
d="M480 599q-77 0 -116.5 -55.5t-39.5 -145.5v-431h-134v435q0 64 19.5 120.5t57 99t91.5 67t122 24.5t122 -24.5t91.5 -67t57 -99t19.5 -120.5v-435h-134v431q0 90 -39.5 145.5t-116.5 55.5z" />
    <glyph glyph-name="union" unicode="&#x222a;" horiz-adv-x="1000" 
d="M480 61q77 0 115.5 55.5t38.5 145.5v431h136v-435q0 -64 -19.5 -120.5t-57 -99t-91.5 -67t-122 -24.5t-122 24.5t-91.5 67t-57 99t-19.5 120.5v435h136v-431q0 -90 38.5 -145.5t115.5 -55.5z" />
    <glyph glyph-name="integral" unicode="&#x222b;" horiz-adv-x="490" 
d="M56 47q33 -5 53 11.5t32.5 52.5t20.5 89t16 121q5 45 11.5 94.5t18 96.5t29 89.5t45 73t67 46.5t94.5 11l-9 -120q-33 5 -53 -11.5t-32.5 -52.5t-20.5 -89.5t-16 -120.5q-6 -52 -13.5 -103.5t-19 -98.5t-29.5 -87t-45.5 -68.5t-66 -43t-91.5 -9.5l9 119v0z" />
    <glyph glyph-name="uni222C" unicode="&#x222c;" horiz-adv-x="700" 
d="M56 47q33 -5 53 11.5t32.5 52.5t20.5 89t16 121q5 45 11.5 94.5t18 96.5t29 89.5t45 73t67 46.5t94.5 11l-9 -120q-33 5 -53 -11.5t-32.5 -52.5t-20.5 -89.5t-16 -120.5q-6 -52 -13.5 -103.5t-19 -98.5t-29.5 -87t-45.5 -68.5t-66 -43t-91.5 -9.5zM266 47q33 -5 53 11.5
t32.5 52.5t20.5 89t16 121q5 45 11.5 94.5t18 96.5t29 89.5t45 73t67 46.5t94.5 11l-9 -120q-33 5 -53 -11.5t-32.5 -52.5t-20.5 -89.5t-16 -120.5q-6 -52 -13.5 -103.5t-19 -98.5t-29.5 -87t-45.5 -68.5t-66 -43t-91.5 -9.5z" />
    <glyph glyph-name="uni222E" unicode="&#x222e;" horiz-adv-x="560" 
d="M91 47q34 -5 54 13t33 56q-33 13 -61 35t-47.5 49.5t-30.5 60.5t-11 69q0 46 17.5 86.5t48 71.5t72 50.5t90.5 23.5q13 39 31.5 72t45 56t62.5 34.5t83 7.5l-9 -120q-34 5 -54 -12.5t-33 -55.5q33 -14 61 -35.5t47.5 -49t30.5 -60.5t11 -69q0 -46 -17.5 -86.5t-48 -71.5
t-72 -50.5t-90.5 -23.5q-13 -40 -31.5 -73t-45 -56t-62 -34t-83.5 -7zM162 330q0 -28 11 -50t30 -37q2 18 5 37.5t5 40.5q3 26 6 53.5t8 56.5q-29 -13 -47 -39.5t-18 -61.5zM333 229q29 13 47 39.5t18 61.5q0 28 -11 50t-30 37l-10 -79q-3 -27 -6.5 -54.5t-7.5 -54.5z" />
    <glyph glyph-name="therefore" unicode="&#x2234;" horiz-adv-x="1000" 
d="M500 447q-44 0 -72.5 26.5t-28.5 66.5t28.5 66.5t72.5 26.5t72.5 -26.5t28.5 -66.5t-28.5 -66.5t-72.5 -26.5zM179 180q0 40 28.5 66.5t72.5 26.5t72.5 -26.5t28.5 -66.5t-28.5 -66.5t-72.5 -26.5t-72.5 26.5t-28.5 66.5zM619 180q0 40 28.5 66.5t72.5 26.5t72.5 -26.5
t28.5 -66.5t-28.5 -66.5t-72.5 -26.5t-72.5 26.5t-28.5 66.5z" />
    <glyph glyph-name="uni2235" unicode="&#x2235;" horiz-adv-x="1000" 
d="M500 273q44 0 72.5 -26.5t28.5 -66.5t-28.5 -66.5t-72.5 -26.5t-72.5 26.5t-28.5 66.5t28.5 66.5t72.5 26.5zM179 540q0 40 28.5 66.5t72.5 26.5t72.5 -26.5t28.5 -66.5t-28.5 -66.5t-72.5 -26.5t-72.5 26.5t-28.5 66.5zM619 540q0 40 28.5 66.5t72.5 26.5t72.5 -26.5
t28.5 -66.5t-28.5 -66.5t-72.5 -26.5t-72.5 26.5t-28.5 66.5z" />
    <glyph glyph-name="similar" unicode="&#x223c;" horiz-adv-x="634" 
d="M57 263q0 43 11.5 79.5t32 63t49 41t63.5 14.5q48 0 78 -19t50.5 -41.5t36 -41.5t36.5 -19q46 0 47 68l116 -14q0 -40 -11.5 -74.5t-32 -60t-49.5 -40t-63 -14.5q-48 0 -77.5 19t-50 41.5t-36.5 41.5t-37 19q-23 0 -34.5 -17.5t-12.5 -59.5l-116 14v0z" />
    <glyph glyph-name="uni223D" unicode="&#x223d;" horiz-adv-x="634" 
d="M461 249q-1 42 -12.5 59.5t-34.5 17.5q-21 0 -37 -19t-36.5 -41.5t-50 -41.5t-77.5 -19q-35 0 -63.5 14.5t-49 40t-32 60t-11.5 74.5l116 14q1 -68 47 -68q21 0 36.5 19t36 41.5t50.5 41.5t78 19q34 0 63 -14.5t49.5 -41t32 -63t11.5 -79.5l-116 -14v0z" />
    <glyph glyph-name="uni2252" unicode="&#x2252;" horiz-adv-x="634" 
d="M567 361h-500v121h500v-121zM67 306h500v-121h-500v121zM127 604q0 36 23.5 59t58.5 23t58.5 -23t23.5 -59t-23.5 -59t-58.5 -23t-58.5 23t-23.5 59zM343 63q0 36 23.5 59t58.5 23t58.5 -23t23.5 -59t-23.5 -59t-58.5 -23t-58.5 23t-23.5 59z" />
    <glyph glyph-name="notequal" unicode="&#x2260;" horiz-adv-x="634" 
d="M567 371h-152l-46 -75h198v-121h-272l-101 -165l-107 67l60 98h-80v121h154l46 75h-200v121h274l101 166l107 -67l-60 -99h78v-121z" />
    <glyph glyph-name="equivalence" unicode="&#x2261;" horiz-adv-x="634" 
d="M567 93h-500v117h500v-117zM67 392h500v-117h-500v117zM67 574h500v-117h-500v117z" />
    <glyph glyph-name="lessequal" unicode="&#x2264;" horiz-adv-x="634" 
d="M77 476l480 165v-131l-299 -94l299 -95v-130l-480 165v120zM67 144h500v-129h-500v129z" />
    <glyph glyph-name="greaterequal" unicode="&#x2265;" horiz-adv-x="634" 
d="M77 191v130l299 95l-299 94v131l480 -165v-120zM67 144h500v-129h-500v129z" />
    <glyph glyph-name="uni226A" unicode="&#x226a;" horiz-adv-x="590" 
d="M240 596l90 -67l-159 -195l159 -195l-90 -67l-210 262zM470 596l90 -67l-159 -195l159 -195l-90 -67l-210 262z" />
    <glyph glyph-name="uni226B" unicode="&#x226b;" horiz-adv-x="590" 
d="M350 72l-90 67l159 195l-159 195l90 67l210 -262zM189 334l-159 195l90 67l210 -262l-210 -262l-90 67z" />
    <glyph glyph-name="propersubset" unicode="&#x2282;" horiz-adv-x="1000" 
d="M236 330q0 -85 48 -128.5t133 -43.5h445v-114h-449q-65 0 -122.5 19.5t-100.5 56.5t-67.5 90t-24.5 120t24.5 120t67.5 90t100.5 56.5t122.5 19.5h449v-114h-445q-85 0 -133 -43.5t-48 -128.5z" />
    <glyph glyph-name="propersuperset" unicode="&#x2283;" horiz-adv-x="1000" 
d="M764 330q0 85 -48 128.5t-133 43.5h-445v114h449q65 0 122.5 -19.5t100 -56.5t67.5 -90t25 -120t-25 -120t-67.5 -90t-100 -56.5t-122.5 -19.5h-449v114h445q85 0 133 43.5t48 128.5z" />
    <glyph glyph-name="reflexsubset" unicode="&#x2286;" horiz-adv-x="1000" 
d="M236 425q0 -71 41.5 -104t119.5 -33h465v-114h-469q-62 0 -115.5 16t-93.5 48t-63 78.5t-23 108.5q0 61 23 108t63 79t93.5 48t115.5 16h469v-114h-465q-78 0 -119.5 -33t-41.5 -104zM108 98h784v-114h-784v114z" />
    <glyph glyph-name="reflexsuperset" unicode="&#x2287;" horiz-adv-x="1000" 
d="M892 -16h-784v114h784v-114zM138 288h465q78 0 119.5 33t41.5 104t-41.5 104t-119.5 33h-465v114h469q61 0 115 -16t94 -48t63 -79t23 -108q0 -62 -23 -108.5t-63 -78.5t-94 -48t-115 -16h-469v114z" />
    <glyph glyph-name="uni2299" unicode="&#x2299;" horiz-adv-x="1000" 
d="M133 345q0 -75 29 -142t79 -117.5t116.5 -80t142.5 -29.5t143.5 29.5t117 80t78.5 117.5t29 142q0 76 -29 143t-78.5 117.5t-117 79.5t-143.5 29t-142.5 -29t-116.5 -79.5t-79 -117.5t-29 -143zM64 345q0 90 34.5 170t94 140t139 95t168.5 35q90 0 169 -35t138.5 -95
t94 -140t34.5 -170q0 -89 -34.5 -169t-94 -140.5t-138.5 -96t-169 -35.5q-89 0 -168.5 35.5t-139 96t-94 140.5t-34.5 169zM424 344q0 31 22.5 53.5t52.5 22.5q31 0 53.5 -22.5t22.5 -53.5q0 -30 -22.5 -52.5t-53.5 -22.5q-30 0 -52.5 22.5t-22.5 52.5z" />
    <glyph glyph-name="uni22A5" unicode="&#x22a5;" horiz-adv-x="740" 
d="M301 57v416h138v-416h253v-110h-644v110h253z" />
    <glyph glyph-name="uni2312" unicode="&#x2312;" horiz-adv-x="580" 
d="M27 488q3 53 23 98t53.5 77.5t80.5 51t106 18.5q58 0 105.5 -18.5t81 -51t53.5 -77.5t23 -98h-134q-9 69 -39 102t-90 33t-90 -33t-39 -102h-134v0z" />
    <glyph glyph-name="uni2460" unicode="&#x2460;" horiz-adv-x="1000" 
d="M500 -109q-103 0 -188 35.5t-145.5 96.5t-93.5 143t-33 175t33 175t93.5 143t145.5 96.5t188 35.5t188 -35t145.5 -96t93.5 -143t33 -176q0 -93 -33 -175t-93.5 -143t-145.5 -96.5t-188 -35.5zM142 341q0 -80 26.5 -145.5t73.5 -112.5t113 -72.5t145 -25.5t145 25.5
t113 72.5t73.5 112.5t26.5 145.5t-26.5 145.5t-73.5 112.5t-113 72.5t-145 25.5t-145 -25.5t-113 -72.5t-73.5 -112.5t-26.5 -145.5zM492 573h70v-478h-99v357l-93 -58l-44 75z" />
    <glyph glyph-name="uni2461" unicode="&#x2461;" horiz-adv-x="1000" 
d="M333 99v28q0 34 11 64t30.5 57t46.5 50.5t58 46.5q24 18 40 32.5t25.5 26.5t13.5 22.5t4 22.5q0 24 -15.5 39t-48.5 15q-43 0 -63 -23.5t-12 -59.5q3 -14 -13 -17q-31 -8 -55 6.5t-24 52.5q0 24 11.5 47t33 40t53 27.5t72.5 10.5q39 0 68.5 -11.5t50 -30.5t31 -43.5
t10.5 -49.5q0 -50 -30 -89.5t-87 -80.5q-36 -25 -60.5 -48.5t-36.5 -48.5h161q12 0 16 1t6 6q5 7 13.5 6.5t10.5 -7.5q6 -9 10.5 -22t4.5 -28q0 -42 -57 -42h-279zM40 341q0 93 33 175t93.5 143t145.5 96.5t188 35.5t188 -35t145.5 -96t93.5 -143t33 -176q0 -93 -33 -175
t-93.5 -143t-145.5 -96.5t-188 -35.5t-188 35.5t-145.5 96.5t-93.5 143t-33 175zM142 341q0 -80 26.5 -145.5t73.5 -112.5t113 -72.5t145 -25.5t145 25.5t113 72.5t73.5 112.5t26.5 145.5t-26.5 145.5t-73.5 112.5t-113 72.5t-145 25.5t-145 -25.5t-113 -72.5t-73.5 -112.5
t-26.5 -145.5z" />
    <glyph glyph-name="uni2462" unicode="&#x2462;" horiz-adv-x="1000" 
d="M486 386q42 0 58.5 18.5t16.5 44.5q0 24 -15 37.5t-50 13.5q-40 0 -58 -20.5t-10 -54.5q3 -12 -11 -16q-32 -8 -56.5 6.5t-24.5 52.5q0 23 11 44t32 37t51 25.5t69 9.5q40 0 70 -11t50 -29t30 -42t10 -50q0 -28 -12.5 -55.5t-41.5 -48.5q32 -18 51 -46.5t19 -68.5
q0 -31 -12.5 -58t-36 -47.5t-56.5 -32t-74 -11.5q-40 0 -71.5 10.5t-53.5 28.5t-34 41t-12 48q0 38 24 52.5t55 6.5q16 -3 13 -17q-8 -38 13.5 -62t63.5 -24q38 0 60 18t22 49q0 32 -22.5 51t-67.5 19h-34v81h34zM40 341q0 93 33 175t93.5 143t145.5 96.5t188 35.5t188 -35
t145.5 -96t93.5 -143t33 -176q0 -93 -33 -175t-93.5 -143t-145.5 -96.5t-188 -35.5t-188 35.5t-145.5 96.5t-93.5 143t-33 175zM142 341q0 -80 26.5 -145.5t73.5 -112.5t113 -72.5t145 -25.5t145 25.5t113 72.5t73.5 112.5t26.5 145.5t-26.5 145.5t-73.5 112.5t-113 72.5
t-145 25.5t-145 -25.5t-113 -72.5t-73.5 -112.5t-26.5 -145.5z" />
    <glyph glyph-name="uni2463" unicode="&#x2463;" horiz-adv-x="1000" 
d="M618 186v-91h-96v91h-210v58l234 329h72v-301h9q11 0 15 1.5t8 6.5q3 5 10.5 5t11.5 -5q6 -8 11 -21.5t5 -29.5q0 -43 -57 -43h-13zM40 341q0 93 33 175t93.5 143t145.5 96.5t188 35.5t188 -35t145.5 -96t93.5 -143t33 -176q0 -93 -33 -175t-93.5 -143t-145.5 -96.5
t-188 -35.5t-188 35.5t-145.5 96.5t-93.5 143t-33 175zM142 341q0 -80 26.5 -145.5t73.5 -112.5t113 -72.5t145 -25.5t145 25.5t113 72.5t73.5 112.5t26.5 145.5t-26.5 145.5t-73.5 112.5t-113 72.5t-145 25.5t-145 -25.5t-113 -72.5t-73.5 -112.5t-26.5 -145.5zM522 272
v123l-89 -123h89z" />
    <glyph glyph-name="uni2464" unicode="&#x2464;" horiz-adv-x="1000" 
d="M460 488l-7 -81q25 12 60 12q33 0 62 -12t50 -33.5t33.5 -51.5t12.5 -65q0 -38 -13 -69.5t-37 -54.5t-58 -35.5t-76 -12.5q-38 0 -67 9.5t-49 25t-30.5 36.5t-10.5 44q0 38 24 52.5t56 6.5q15 -5 11 -17q-8 -33 11.5 -53t57.5 -20t60.5 23.5t22.5 65.5q0 38 -20 59.5
t-60 21.5q-24 0 -40.5 -8.5t-24.5 -22.5l-81 15l25 251h217q11 0 15 1.5t8 6.5q3 5 10.5 5t11.5 -5q6 -8 11 -21.5t5 -29.5q0 -43 -57 -43h-133zM40 341q0 93 33 175t93.5 143t145.5 96.5t188 35.5t188 -35t145.5 -96t93.5 -143t33 -176q0 -93 -33 -175t-93.5 -143
t-145.5 -96.5t-188 -35.5t-188 35.5t-145.5 96.5t-93.5 143t-33 175zM142 341q0 -80 26.5 -145.5t73.5 -112.5t113 -72.5t145 -25.5t145 25.5t113 72.5t73.5 112.5t26.5 145.5t-26.5 145.5t-73.5 112.5t-113 72.5t-145 25.5t-145 -25.5t-113 -72.5t-73.5 -112.5
t-26.5 -145.5z" />
    <glyph glyph-name="uni2465" unicode="&#x2465;" horiz-adv-x="1000" 
d="M521 498q-80 0 -95 -111q22 18 48 26.5t54 8.5q30 0 57.5 -10.5t47.5 -30.5t32 -51t12 -71q0 -36 -12 -68t-34.5 -56t-55 -37.5t-73.5 -13.5q-81 0 -129.5 60.5t-48.5 184.5q0 55 12 101.5t36.5 80.5t61.5 53.5t86 19.5q34 0 59.5 -8.5t42.5 -23t25.5 -32t8.5 -35.5
q0 -26 -20 -38.5t-46 -11.5q-19 0 -16 17q5 17 -8 31.5t-45 14.5zM40 341q0 93 33 175t93.5 143t145.5 96.5t188 35.5t188 -35t145.5 -96t93.5 -143t33 -176q0 -93 -33 -175t-93.5 -143t-145.5 -96.5t-188 -35.5t-188 35.5t-145.5 96.5t-93.5 143t-33 175zM142 341
q0 -80 26.5 -145.5t73.5 -112.5t113 -72.5t145 -25.5t145 25.5t113 72.5t73.5 112.5t26.5 145.5t-26.5 145.5t-73.5 112.5t-113 72.5t-145 25.5t-145 -25.5t-113 -72.5t-73.5 -112.5t-26.5 -145.5zM431 254q0 -37 20.5 -60.5t53.5 -23.5q38 0 56 25t18 63q0 42 -19 62
t-48 20q-39 0 -60 -25.5t-21 -60.5z" />
    <glyph glyph-name="uni2466" unicode="&#x2466;" horiz-adv-x="1000" 
d="M389 492q-57 0 -57 43q0 16 4.5 29.5t10.5 21.5q4 5 11.5 5t10.5 -5q4 -5 8 -6.5t15 -1.5h276v-56l-193 -422h-110l182 392h-158zM40 341q0 93 33 175t93.5 143t145.5 96.5t188 35.5t188 -35t145.5 -96t93.5 -143t33 -176q0 -93 -33 -175t-93.5 -143t-145.5 -96.5
t-188 -35.5t-188 35.5t-145.5 96.5t-93.5 143t-33 175zM142 341q0 -80 26.5 -145.5t73.5 -112.5t113 -72.5t145 -25.5t145 25.5t113 72.5t73.5 112.5t26.5 145.5t-26.5 145.5t-73.5 112.5t-113 72.5t-145 25.5t-145 -25.5t-113 -72.5t-73.5 -112.5t-26.5 -145.5z" />
    <glyph glyph-name="uni2467" unicode="&#x2467;" horiz-adv-x="1000" 
d="M500 84q-41 0 -74.5 11.5t-57.5 31.5t-37 48t-13 60q0 37 17.5 67.5t48.5 50.5q-23 18 -36 42.5t-13 53.5q0 62 45.5 98.5t119.5 36.5t119.5 -36.5t45.5 -98.5q0 -29 -13 -53.5t-36 -42.5q31 -20 48.5 -50.5t17.5 -67.5q0 -32 -13 -60t-37 -48t-57.5 -31.5t-74.5 -11.5z
M40 341q0 93 33 175t93.5 143t145.5 96.5t188 35.5t188 -35t145.5 -96t93.5 -143t33 -176q0 -93 -33 -175t-93.5 -143t-145.5 -96.5t-188 -35.5t-188 35.5t-145.5 96.5t-93.5 143t-33 175zM142 341q0 -80 26.5 -145.5t73.5 -112.5t113 -72.5t145 -25.5t145 25.5t113 72.5
t73.5 112.5t26.5 145.5t-26.5 145.5t-73.5 112.5t-113 72.5t-145 25.5t-145 -25.5t-113 -72.5t-73.5 -112.5t-26.5 -145.5zM416 239q0 -33 21.5 -51t62.5 -18t62.5 18t21.5 51q0 34 -21.5 53t-62.5 19t-62.5 -19t-21.5 -53zM433 446q0 -28 17.5 -42t49.5 -14t49.5 14
t17.5 42q0 26 -17.5 39t-49.5 13t-49.5 -13t-17.5 -39z" />
    <glyph glyph-name="uni2468" unicode="&#x2468;" horiz-adv-x="1000" 
d="M478 170q42 0 65.5 32t31.5 89q-21 -17 -47.5 -25t-54.5 -8q-30 0 -57.5 9.5t-47.5 29t-32 49t-12 69.5q0 35 12 66t34.5 54t55 36t73.5 13q81 0 129.5 -59.5t48.5 -180.5q0 -56 -12 -103.5t-37 -82t-62.5 -54.5t-89.5 -20q-31 0 -54.5 8.5t-39.5 23t-24.5 32t-8.5 35.5
q-1 26 19 38.5t46 11.5q19 0 16 -17q-5 -17 6.5 -31.5t41.5 -14.5zM40 341q0 93 33 175t93.5 143t145.5 96.5t188 35.5t188 -35t145.5 -96t93.5 -143t33 -176q0 -93 -33 -175t-93.5 -143t-145.5 -96.5t-188 -35.5t-188 35.5t-145.5 96.5t-93.5 143t-33 175zM142 341
q0 -80 26.5 -145.5t73.5 -112.5t113 -72.5t145 -25.5t145 25.5t113 72.5t73.5 112.5t26.5 145.5t-26.5 145.5t-73.5 112.5t-113 72.5t-145 25.5t-145 -25.5t-113 -72.5t-73.5 -112.5t-26.5 -145.5zM422 416q0 -40 18.5 -58t48.5 -18q40 0 60.5 23t20.5 57t-20.5 56t-53.5 22
q-38 0 -56 -23.5t-18 -58.5z" />
    <glyph glyph-name="uni2469" unicode="&#x2469;" horiz-adv-x="1000" 
d="M500 -109q-103 0 -188 35.5t-145.5 96.5t-93.5 143t-33 175t33 175t93.5 143t145.5 96.5t188 35.5t188 -35t145.5 -96t93.5 -143t33 -176q0 -93 -33 -175t-93.5 -143t-145.5 -96.5t-188 -35.5zM142 341q0 -80 26.5 -145.5t73.5 -112.5t113 -72.5t145 -25.5t145 25.5
t113 72.5t73.5 112.5t26.5 145.5t-26.5 145.5t-73.5 112.5t-113 72.5t-145 25.5t-145 -25.5t-113 -72.5t-73.5 -112.5t-26.5 -145.5zM351 556h64v-434h-90v325l-85 -53l-40 68zM454 339q0 112 44 169.5t121 57.5q78 0 122 -57.5t44 -169.5t-44 -169.5t-122 -57.5
q-77 0 -121 57.5t-44 169.5zM543 339q0 -79 19 -114t57 -35t57.5 35t19.5 114q0 78 -19.5 113.5t-57.5 35.5t-57 -35.5t-19 -113.5z" />
    <glyph glyph-name="uni246A" unicode="&#x246a;" horiz-adv-x="1000" 
d="M500 -109q-103 0 -188 35.5t-145.5 96.5t-93.5 143t-33 175t33 175t93.5 143t145.5 96.5t188 35.5t188 -35t145.5 -96t93.5 -143t33 -176q0 -93 -33 -175t-93.5 -143t-145.5 -96.5t-188 -35.5zM142 341q0 -80 26.5 -145.5t73.5 -112.5t113 -72.5t145 -25.5t145 25.5
t113 72.5t73.5 112.5t26.5 145.5t-26.5 145.5t-73.5 112.5t-113 72.5t-145 25.5t-145 -25.5t-113 -72.5t-73.5 -112.5t-26.5 -145.5zM371 556h64v-434h-90v325l-85 -53l-40 68zM641 556h64v-434h-90v325l-85 -53l-40 68z" />
    <glyph glyph-name="uni246B" unicode="&#x246b;" horiz-adv-x="1000" 
d="M500 -109q-103 0 -188 35.5t-145.5 96.5t-93.5 143t-33 175t33 175t93.5 143t145.5 96.5t188 35.5t188 -35t145.5 -96t93.5 -143t33 -176q0 -93 -33 -175t-93.5 -143t-145.5 -96.5t-188 -35.5zM142 341q0 -80 26.5 -145.5t73.5 -112.5t113 -72.5t145 -25.5t145 25.5
t113 72.5t73.5 112.5t26.5 145.5t-26.5 145.5t-73.5 112.5t-113 72.5t-145 25.5t-145 -25.5t-113 -72.5t-73.5 -112.5t-26.5 -145.5zM346 556h64v-434h-90v325l-85 -53l-40 68zM451 456q0 22 10.5 42.5t30.5 36.5t48.5 25.5t65.5 9.5q35 0 62 -10.5t45.5 -28t28 -39.5
t9.5 -45q0 -45 -27 -81t-79 -73q-33 -23 -55.5 -44.5t-33.5 -44.5h147q11 0 14.5 1t5.5 6q5 6 12.5 5.5t9.5 -6.5q5 -8 9.5 -20t4.5 -26q0 -38 -52 -38h-254v26q0 62 38 109.5t95 88.5q44 33 59.5 53t15.5 41q0 22 -14 35.5t-44 13.5q-39 0 -57.5 -21t-10.5 -54
q3 -13 -12 -15q-28 -8 -50 5.5t-22 47.5z" />
    <glyph glyph-name="uni246C" unicode="&#x246c;" horiz-adv-x="1000" 
d="M500 -109q-103 0 -188 35.5t-145.5 96.5t-93.5 143t-33 175t33 175t93.5 143t145.5 96.5t188 35.5t188 -35t145.5 -96t93.5 -143t33 -176q0 -93 -33 -175t-93.5 -143t-145.5 -96.5t-188 -35.5zM142 341q0 -80 26.5 -145.5t73.5 -112.5t113 -72.5t145 -25.5t145 25.5
t113 72.5t73.5 112.5t26.5 145.5t-26.5 145.5t-73.5 112.5t-113 72.5t-145 25.5t-145 -25.5t-113 -72.5t-73.5 -112.5t-26.5 -145.5zM346 556h64v-434h-90v325l-85 -53l-40 68zM453 223q0 35 21.5 48.5t50.5 5.5q14 -3 12 -16q-8 -34 12 -56t58 -22q34 0 54 16.5t20 44.5
q0 29 -20 46.5t-62 17.5h-31v73h31q38 0 53 17.5t15 40.5q0 22 -13.5 34t-45.5 12q-36 0 -52.5 -18.5t-8.5 -49.5q1 -12 -10 -15q-29 -8 -51.5 5.5t-22.5 48.5q0 21 10 40t29 33.5t46.5 23t62.5 8.5q36 0 63.5 -10t45.5 -26.5t27.5 -38t9.5 -45.5q0 -25 -11.5 -50t-38.5 -45
q29 -17 46.5 -42.5t17.5 -61.5q0 -28 -11.5 -52.5t-33 -43t-51.5 -29t-67 -10.5q-36 0 -64.5 9.5t-49 25.5t-31 37t-10.5 44z" />
    <glyph glyph-name="uni246D" unicode="&#x246d;" horiz-adv-x="1000" 
d="M500 -109q-103 0 -188 35.5t-145.5 96.5t-93.5 143t-33 175t33 175t93.5 143t145.5 96.5t188 35.5t188 -35t145.5 -96t93.5 -143t33 -176q0 -93 -33 -175t-93.5 -143t-145.5 -96.5t-188 -35.5zM142 341q0 -80 26.5 -145.5t73.5 -112.5t113 -72.5t145 -25.5t145 25.5
t113 72.5t73.5 112.5t26.5 145.5t-26.5 145.5t-73.5 112.5t-113 72.5t-145 25.5t-145 -25.5t-113 -72.5t-73.5 -112.5t-26.5 -145.5zM346 556h64v-434h-90v325l-85 -53l-40 68zM439 252l213 299h65v-273h8q11 0 14.5 1t6.5 6t10 5t10 -5q6 -8 10.5 -20t4.5 -26
q0 -40 -52 -40h-12v-82h-87v82h-191v53zM630 278v112l-80 -112h80z" />
    <glyph glyph-name="uni246E" unicode="&#x246e;" horiz-adv-x="1000" 
d="M500 -109q-103 0 -188 35.5t-145.5 96.5t-93.5 143t-33 175t33 175t93.5 143t145.5 96.5t188 35.5t188 -35t145.5 -96t93.5 -143t33 -176q0 -93 -33 -175t-93.5 -143t-145.5 -96.5t-188 -35.5zM142 341q0 -80 26.5 -145.5t73.5 -112.5t113 -72.5t145 -25.5t145 25.5
t113 72.5t73.5 112.5t26.5 145.5t-26.5 145.5t-73.5 112.5t-113 72.5t-145 25.5t-145 -25.5t-113 -72.5t-73.5 -112.5t-26.5 -145.5zM346 556h64v-434h-90v325l-85 -53l-40 68zM451 212q0 35 21.5 48.5t50.5 5.5q14 -5 10 -15q-8 -30 10 -48.5t53 -18.5q34 0 54.5 21.5
t20.5 59.5q0 35 -18 54.5t-54 19.5q-22 0 -36.5 -8t-22.5 -20l-74 13l23 228h197q11 0 14 1.5t7 6.5q3 5 9.5 5t10.5 -5q5 -8 9.5 -20.5t4.5 -26.5q0 -39 -51 -39h-121l-6 -73q25 10 54 10q30 0 56 -11t45.5 -30.5t31 -46.5t11.5 -59q0 -35 -12 -63.5t-34 -49t-53 -32
t-69 -11.5q-35 0 -61.5 8.5t-44.5 23t-27 33t-9 39.5z" />
    <glyph glyph-name="uni2474" unicode="&#x2474;" horiz-adv-x="1000" 
d="M40 344q0 117 46 216t123 165l68 -49q-54 -63 -87 -145.5t-33 -186.5q0 -101 33.5 -181.5t86.5 -150.5l-68 -49q-77 66 -123 165t-46 216zM492 573h70v-478h-99v357l-93 -58l-44 75zM723 12q53 70 86.5 150.5t33.5 181.5q0 104 -33 186.5t-87 145.5l68 49
q77 -66 123 -165t46 -216t-46 -216t-123 -165z" />
    <glyph glyph-name="uni2475" unicode="&#x2475;" horiz-adv-x="1000" 
d="M333 99v28q0 34 11 64t30.5 57t46.5 50.5t58 46.5q24 18 40 32.5t25.5 26.5t13.5 22.5t4 22.5q0 24 -15.5 39t-48.5 15q-43 0 -63 -23.5t-12 -59.5q3 -14 -13 -17q-31 -8 -55 6.5t-24 52.5q0 24 11.5 47t33 40t53 27.5t72.5 10.5q39 0 68.5 -11.5t50 -30.5t31 -43.5
t10.5 -49.5q0 -50 -30 -89.5t-87 -80.5q-36 -25 -60.5 -48.5t-36.5 -48.5h161q12 0 16 1t6 6q5 7 13.5 6.5t10.5 -7.5q6 -9 10.5 -22t4.5 -28q0 -42 -57 -42h-279zM40 344q0 117 46 216t123 165l68 -49q-54 -63 -87 -145.5t-33 -186.5q0 -101 33.5 -181.5t86.5 -150.5
l-68 -49q-77 66 -123 165t-46 216zM723 12q53 70 86.5 150.5t33.5 181.5q0 104 -33 186.5t-87 145.5l68 49q77 -66 123 -165t46 -216t-46 -216t-123 -165z" />
    <glyph glyph-name="uni2476" unicode="&#x2476;" horiz-adv-x="1000" 
d="M486 386q42 0 58.5 18.5t16.5 44.5q0 24 -15 37.5t-50 13.5q-40 0 -58 -20.5t-10 -54.5q3 -12 -11 -16q-32 -8 -56.5 6.5t-24.5 52.5q0 23 11 44t32 37t51 25.5t69 9.5q40 0 70 -11t50 -29t30 -42t10 -50q0 -28 -12.5 -55.5t-41.5 -48.5q32 -18 51 -46.5t19 -68.5
q0 -31 -12.5 -58t-36 -47.5t-56.5 -32t-74 -11.5q-40 0 -71.5 10.5t-53.5 28.5t-34 41t-12 48q0 38 24 52.5t55 6.5q16 -3 13 -17q-8 -38 13.5 -62t63.5 -24q38 0 60 18t22 49q0 32 -22.5 51t-67.5 19h-34v81h34zM40 344q0 117 46 216t123 165l68 -49q-54 -63 -87 -145.5
t-33 -186.5q0 -101 33.5 -181.5t86.5 -150.5l-68 -49q-77 66 -123 165t-46 216zM723 12q53 70 86.5 150.5t33.5 181.5q0 104 -33 186.5t-87 145.5l68 49q77 -66 123 -165t46 -216t-46 -216t-123 -165z" />
    <glyph glyph-name="uni2477" unicode="&#x2477;" horiz-adv-x="1000" 
d="M618 186v-91h-96v91h-210v58l234 329h72v-301h9q11 0 15 1.5t8 6.5q3 5 10.5 5t11.5 -5q6 -8 11 -21.5t5 -29.5q0 -43 -57 -43h-13zM40 344q0 117 46 216t123 165l68 -49q-54 -63 -87 -145.5t-33 -186.5q0 -101 33.5 -181.5t86.5 -150.5l-68 -49q-77 66 -123 165t-46 216
zM522 272v123l-89 -123h89zM723 12q53 70 86.5 150.5t33.5 181.5q0 104 -33 186.5t-87 145.5l68 49q77 -66 123 -165t46 -216t-46 -216t-123 -165z" />
    <glyph glyph-name="uni2478" unicode="&#x2478;" horiz-adv-x="1000" 
d="M460 488l-7 -81q25 12 60 12q33 0 62 -12t50 -33.5t33.5 -51.5t12.5 -65q0 -38 -13 -69.5t-37 -54.5t-58 -35.5t-76 -12.5q-38 0 -67 9.5t-49 25t-30.5 36.5t-10.5 44q0 38 24 52.5t56 6.5q15 -5 11 -17q-8 -33 11.5 -53t57.5 -20t60.5 23.5t22.5 65.5q0 38 -20 59.5
t-60 21.5q-24 0 -40.5 -8.5t-24.5 -22.5l-81 15l25 251h217q11 0 15 1.5t8 6.5q3 5 10.5 5t11.5 -5q6 -8 11 -21.5t5 -29.5q0 -43 -57 -43h-133zM40 344q0 117 46 216t123 165l68 -49q-54 -63 -87 -145.5t-33 -186.5q0 -101 33.5 -181.5t86.5 -150.5l-68 -49
q-77 66 -123 165t-46 216zM723 12q53 70 86.5 150.5t33.5 181.5q0 104 -33 186.5t-87 145.5l68 49q77 -66 123 -165t46 -216t-46 -216t-123 -165z" />
    <glyph glyph-name="uni2479" unicode="&#x2479;" horiz-adv-x="1000" 
d="M521 498q-80 0 -95 -111q22 18 48 26.5t54 8.5q30 0 57.5 -10.5t47.5 -30.5t32 -51t12 -71q0 -36 -12 -68t-34.5 -56t-55 -37.5t-73.5 -13.5q-81 0 -129.5 60.5t-48.5 184.5q0 55 12 101.5t36.5 80.5t61.5 53.5t86 19.5q34 0 59.5 -8.5t42.5 -23t25.5 -32t8.5 -35.5
q0 -26 -20 -38.5t-46 -11.5q-19 0 -16 17q5 17 -8 31.5t-45 14.5zM40 344q0 117 46 216t123 165l68 -49q-54 -63 -87 -145.5t-33 -186.5q0 -101 33.5 -181.5t86.5 -150.5l-68 -49q-77 66 -123 165t-46 216zM431 254q0 -37 20.5 -60.5t53.5 -23.5q38 0 56 25t18 63
q0 42 -19 62t-48 20q-39 0 -60 -25.5t-21 -60.5zM723 12q53 70 86.5 150.5t33.5 181.5q0 104 -33 186.5t-87 145.5l68 49q77 -66 123 -165t46 -216t-46 -216t-123 -165z" />
    <glyph glyph-name="uni247A" unicode="&#x247a;" horiz-adv-x="1000" 
d="M389 492q-57 0 -57 43q0 16 4.5 29.5t10.5 21.5q4 5 11.5 5t10.5 -5q4 -5 8 -6.5t15 -1.5h276v-56l-193 -422h-110l182 392h-158zM40 344q0 117 46 216t123 165l68 -49q-54 -63 -87 -145.5t-33 -186.5q0 -101 33.5 -181.5t86.5 -150.5l-68 -49q-77 66 -123 165t-46 216z
M723 12q53 70 86.5 150.5t33.5 181.5q0 104 -33 186.5t-87 145.5l68 49q77 -66 123 -165t46 -216t-46 -216t-123 -165z" />
    <glyph glyph-name="uni247B" unicode="&#x247b;" horiz-adv-x="1000" 
d="M500 84q-41 0 -74.5 11.5t-57.5 31.5t-37 48t-13 60q0 37 17.5 67.5t48.5 50.5q-23 18 -36 42.5t-13 53.5q0 62 45.5 98.5t119.5 36.5t119.5 -36.5t45.5 -98.5q0 -29 -13 -53.5t-36 -42.5q31 -20 48.5 -50.5t17.5 -67.5q0 -32 -13 -60t-37 -48t-57.5 -31.5t-74.5 -11.5z
M40 344q0 117 46 216t123 165l68 -49q-54 -63 -87 -145.5t-33 -186.5q0 -101 33.5 -181.5t86.5 -150.5l-68 -49q-77 66 -123 165t-46 216zM416 239q0 -33 21.5 -51t62.5 -18t62.5 18t21.5 51q0 34 -21.5 53t-62.5 19t-62.5 -19t-21.5 -53zM433 446q0 -28 17.5 -42t49.5 -14
t49.5 14t17.5 42q0 26 -17.5 39t-49.5 13t-49.5 -13t-17.5 -39zM723 12q53 70 86.5 150.5t33.5 181.5q0 104 -33 186.5t-87 145.5l68 49q77 -66 123 -165t46 -216t-46 -216t-123 -165z" />
    <glyph glyph-name="uni247C" unicode="&#x247c;" horiz-adv-x="1000" 
d="M478 170q42 0 65.5 32t31.5 89q-21 -17 -47.5 -25t-54.5 -8q-30 0 -57.5 9.5t-47.5 29t-32 49t-12 69.5q0 35 12 66t34.5 54t55 36t73.5 13q81 0 129.5 -59.5t48.5 -180.5q0 -56 -12 -103.5t-37 -82t-62.5 -54.5t-89.5 -20q-31 0 -54.5 8.5t-39.5 23t-24.5 32t-8.5 35.5
q-1 26 19 38.5t46 11.5q19 0 16 -17q-5 -17 6.5 -31.5t41.5 -14.5zM40 344q0 117 46 216t123 165l68 -49q-54 -63 -87 -145.5t-33 -186.5q0 -101 33.5 -181.5t86.5 -150.5l-68 -49q-77 66 -123 165t-46 216zM422 416q0 -40 18.5 -58t48.5 -18q40 0 60.5 23t20.5 57t-20.5 56
t-53.5 22q-38 0 -56 -23.5t-18 -58.5zM723 12q53 70 86.5 150.5t33.5 181.5q0 104 -33 186.5t-87 145.5l68 49q77 -66 123 -165t46 -216t-46 -216t-123 -165z" />
    <glyph glyph-name="uni247D" unicode="&#x247d;" horiz-adv-x="1000" 
d="M619 112q-77 0 -121 57.5t-44 169.5t44 169.5t121 57.5q78 0 122 -57.5t44 -169.5t-44 -169.5t-122 -57.5zM40 344q0 117 46 216t123 165l68 -49q-54 -63 -87 -145.5t-33 -186.5q0 -101 33.5 -181.5t86.5 -150.5l-68 -49q-77 66 -123 165t-46 216zM351 556h64v-434h-90
v325l-85 -53l-40 68zM543 339q0 -79 19 -114t57 -35t57.5 35t19.5 114q0 78 -19.5 113.5t-57.5 35.5t-57 -35.5t-19 -113.5zM723 12q53 70 86.5 150.5t33.5 181.5q0 104 -33 186.5t-87 145.5l68 49q77 -66 123 -165t46 -216t-46 -216t-123 -165z" />
    <glyph glyph-name="uni247E" unicode="&#x247e;" horiz-adv-x="1000" 
d="M40 344q0 117 46 216t123 165l68 -49q-54 -63 -87 -145.5t-33 -186.5q0 -101 33.5 -181.5t86.5 -150.5l-68 -49q-77 66 -123 165t-46 216zM371 556h64v-434h-90v325l-85 -53l-40 68zM641 556h64v-434h-90v325l-85 -53l-40 68zM723 12q53 70 86.5 150.5t33.5 181.5
q0 104 -33 186.5t-87 145.5l68 49q77 -66 123 -165t46 -216t-46 -216t-123 -165z" />
    <glyph glyph-name="uni247F" unicode="&#x247f;" horiz-adv-x="1000" 
d="M453 126v26q0 62 38 109.5t95 88.5q44 33 59.5 53t15.5 41q0 22 -14 35.5t-44 13.5q-39 0 -57.5 -21t-10.5 -54q3 -13 -12 -15q-28 -8 -50 5.5t-22 47.5q0 22 10.5 42.5t30.5 36.5t48.5 25.5t65.5 9.5q35 0 62 -10.5t45.5 -28t28 -39.5t9.5 -45q0 -45 -27 -81t-79 -73
q-33 -23 -55.5 -44.5t-33.5 -44.5h147q11 0 14.5 1t5.5 6q5 6 12.5 5.5t9.5 -6.5q5 -8 9.5 -20t4.5 -26q0 -38 -52 -38h-254zM40 344q0 117 46 216t123 165l68 -49q-54 -63 -87 -145.5t-33 -186.5q0 -101 33.5 -181.5t86.5 -150.5l-68 -49q-77 66 -123 165t-46 216zM346 556
h64v-434h-90v325l-85 -53l-40 68zM723 12q53 70 86.5 150.5t33.5 181.5q0 104 -33 186.5t-87 145.5l68 49q77 -66 123 -165t46 -216t-46 -216t-123 -165z" />
    <glyph glyph-name="uni2480" unicode="&#x2480;" horiz-adv-x="1000" 
d="M599 381q38 0 53 17.5t15 40.5q0 22 -13.5 34t-45.5 12q-36 0 -52.5 -18.5t-8.5 -49.5q1 -12 -10 -15q-29 -8 -51.5 5.5t-22.5 48.5q0 21 10 40t29 33.5t46.5 23t62.5 8.5q36 0 63.5 -10t45.5 -26.5t27.5 -38t9.5 -45.5q0 -25 -11.5 -50t-38.5 -45q29 -17 46.5 -42.5
t17.5 -61.5q0 -28 -11.5 -52.5t-33 -43t-51.5 -29t-67 -10.5q-36 0 -64.5 9.5t-49 25.5t-31 37t-10.5 44q0 35 21.5 48.5t50.5 5.5q14 -3 12 -16q-8 -34 12 -56t58 -22q34 0 54 16.5t20 44.5q0 29 -20 46.5t-62 17.5h-31v73h31zM40 344q0 117 46 216t123 165l68 -49
q-54 -63 -87 -145.5t-33 -186.5q0 -101 33.5 -181.5t86.5 -150.5l-68 -49q-77 66 -123 165t-46 216zM346 556h64v-434h-90v325l-85 -53l-40 68zM723 12q53 70 86.5 150.5t33.5 181.5q0 104 -33 186.5t-87 145.5l68 49q77 -66 123 -165t46 -216t-46 -216t-123 -165z" />
    <glyph glyph-name="uni2481" unicode="&#x2481;" horiz-adv-x="1000" 
d="M717 199v-82h-87v82h-191v53l213 299h65v-273h8q11 0 14.5 1t6.5 6t10 5t10 -5q6 -8 10.5 -20t4.5 -26q0 -40 -52 -40h-12zM40 344q0 117 46 216t123 165l68 -49q-54 -63 -87 -145.5t-33 -186.5q0 -101 33.5 -181.5t86.5 -150.5l-68 -49q-77 66 -123 165t-46 216z
M346 556h64v-434h-90v325l-85 -53l-40 68zM630 278v112l-80 -112h80zM723 12q53 70 86.5 150.5t33.5 181.5q0 104 -33 186.5t-87 145.5l68 49q77 -66 123 -165t46 -216t-46 -216t-123 -165z" />
    <glyph glyph-name="uni2482" unicode="&#x2482;" horiz-adv-x="1000" 
d="M569 474l-6 -73q25 10 54 10q30 0 56 -11t45.5 -30.5t31 -46.5t11.5 -59q0 -35 -12 -63.5t-34 -49t-53 -32t-69 -11.5q-35 0 -61.5 8.5t-44.5 23t-27 33t-9 39.5q0 35 21.5 48.5t50.5 5.5q14 -5 10 -15q-8 -30 10 -48.5t53 -18.5q34 0 54.5 21.5t20.5 59.5q0 35 -18 54.5
t-54 19.5q-22 0 -36.5 -8t-22.5 -20l-74 13l23 228h197q11 0 14 1.5t7 6.5q3 5 9.5 5t10.5 -5q5 -8 9.5 -20.5t4.5 -26.5q0 -39 -51 -39h-121zM40 344q0 117 46 216t123 165l68 -49q-54 -63 -87 -145.5t-33 -186.5q0 -101 33.5 -181.5t86.5 -150.5l-68 -49q-77 66 -123 165
t-46 216zM346 556h64v-434h-90v325l-85 -53l-40 68zM723 12q53 70 86.5 150.5t33.5 181.5q0 104 -33 186.5t-87 145.5l68 49q77 -66 123 -165t46 -216t-46 -216t-123 -165z" />
    <glyph glyph-name="uni249C" unicode="&#x249c;" horiz-adv-x="1000" 
d="M479 141q-38 0 -68 15.5t-52 42.5t-33.5 63.5t-11.5 78.5q0 43 11.5 79.5t33.5 63.5t52 42.5t68 15.5q50 0 87 -26v18h101v-382h-92l-3 19q-39 -30 -93 -30zM40 344q0 117 46 216t123 165l68 -49q-54 -63 -87 -145.5t-33 -186.5q0 -101 33.5 -181.5t86.5 -150.5l-68 -49
q-77 66 -123 165t-46 216zM415 341q0 -53 19 -82t56 -29q35 0 57.5 29.5t22.5 81.5t-22.5 81.5t-57.5 29.5q-36 0 -55.5 -29t-19.5 -82zM723 12q53 70 86.5 150.5t33.5 181.5q0 104 -33 186.5t-87 145.5l68 49q77 -66 123 -165t46 -216t-46 -216t-123 -165z" />
    <glyph glyph-name="uni249D" unicode="&#x249d;" horiz-adv-x="1000" 
d="M545 80q-55 0 -94 30l-2 -19h-93v460q0 14 -2 19t-6 7q-6 4 -6.5 9.5t7.5 10.5q9 5 25.5 10t32.5 5q20 0 35 -12.5t15 -44.5v-100q37 26 88 26q37 0 67.5 -15.5t52 -42.5t33.5 -63.5t12 -79.5q0 -42 -12 -78.5t-33.5 -63.5t-52 -42.5t-67.5 -15.5zM40 344q0 117 46 216
t123 165l68 -49q-54 -63 -87 -145.5t-33 -186.5q0 -101 33.5 -181.5t86.5 -150.5l-68 -49q-77 66 -123 165t-46 216zM454 280q0 -51 22 -81t57 -30q37 0 56 29.5t19 81.5q0 53 -19 82.5t-56 29.5q-35 0 -57 -30t-22 -82zM723 12q53 70 86.5 150.5t33.5 181.5
q0 104 -33 186.5t-87 145.5l68 49q77 -66 123 -165t46 -216t-46 -216t-123 -165z" />
    <glyph glyph-name="uni249E" unicode="&#x249e;" horiz-adv-x="1000" 
d="M518 452q-44 0 -67.5 -27.5t-23.5 -83.5q0 -57 24.5 -84t69.5 -27q33 0 48.5 15.5t17.5 38.5q0 12 16 12q26 -2 43.5 -15t17.5 -37q0 -20 -10 -39t-29.5 -33t-47 -22.5t-61.5 -8.5q-43 0 -78 14t-60 40.5t-38.5 63.5t-13.5 82t14 82t39.5 63.5t61 41t79.5 14.5
q31 0 56 -8.5t42.5 -22.5t27 -31t9.5 -33q0 -26 -19 -39.5t-43 -15.5q-7 0 -12 2.5t-5 9.5q-2 23 -15.5 35.5t-42.5 12.5zM40 344q0 117 46 216t123 165l68 -49q-54 -63 -87 -145.5t-33 -186.5q0 -101 33.5 -181.5t86.5 -150.5l-68 -49q-77 66 -123 165t-46 216zM723 12
q53 70 86.5 150.5t33.5 181.5q0 104 -33 186.5t-87 145.5l68 49q77 -66 123 -165t46 -216t-46 -216t-123 -165z" />
    <glyph glyph-name="uni249F" unicode="&#x249f;" horiz-adv-x="1000" 
d="M469 80q-38 0 -68 15.5t-52 42.5t-33.5 63.5t-11.5 78.5q0 43 11.5 79.5t33.5 63.5t52 42.5t68 15.5q49 0 87 -25v95q0 14 -2 19t-6 7q-6 4 -6.5 9.5t7.5 10.5q9 5 25.5 10t32.5 5q20 0 35 -12.5t15 -44.5v-464h-92l-3 19q-39 -30 -93 -30zM40 344q0 117 46 216t123 165
l68 -49q-54 -63 -87 -145.5t-33 -186.5q0 -101 33.5 -181.5t86.5 -150.5l-68 -49q-77 66 -123 165t-46 216zM405 280q0 -52 19 -81.5t56 -29.5q35 0 57.5 30t22.5 81q0 52 -22.5 82t-57.5 30q-36 0 -55.5 -29.5t-19.5 -82.5zM723 12q53 70 86.5 150.5t33.5 181.5
q0 104 -33 186.5t-87 145.5l68 49q77 -66 123 -165t46 -216t-46 -216t-123 -165z" />
    <glyph glyph-name="uni24A0" unicode="&#x24a0;" horiz-adv-x="1000" 
d="M40 344q0 117 46 216t123 165l68 -49q-54 -63 -87 -145.5t-33 -186.5q0 -101 33.5 -181.5t86.5 -150.5l-68 -49q-77 66 -123 165t-46 216zM324 341q0 45 13.5 82t37.5 63.5t57.5 41t73.5 14.5q39 0 70.5 -14.5t54 -39t34.5 -57.5t12 -69q0 -16 -1 -29t-5 -26h-243
q7 -40 30 -59.5t60 -19.5q29 0 45.5 11t21.5 29q1 6 6 9.5t12 1.5q23 -3 37.5 -15.5t14.5 -35.5q0 -38 -39 -62.5t-103 -24.5q-43 0 -78 14t-59.5 40.5t-38 63.5t-13.5 82zM572 390q-13 64 -66 64q-28 0 -47.5 -16t-27.5 -48h141zM723 12q53 70 86.5 150.5t33.5 181.5
q0 104 -33 186.5t-87 145.5l68 49q77 -66 123 -165t46 -216t-46 -216t-123 -165z" />
    <glyph glyph-name="uni24A1" unicode="&#x24a1;" horiz-adv-x="1000" 
d="M616 381h-91v-296h-100v296h-50v86h50q0 60 35 99.5t101 39.5q44 0 64.5 -19.5t20.5 -42.5q0 -18 -13.5 -30.5t-35.5 -17.5q-6 0 -11 2t-6 9q-2 8 -5.5 10.5t-11.5 2.5q-16 0 -26.5 -13t-11.5 -40h91v-86zM40 344q0 117 46 216t123 165l68 -49q-54 -63 -87 -145.5
t-33 -186.5q0 -101 33.5 -181.5t86.5 -150.5l-68 -49q-77 66 -123 165t-46 216zM723 12q53 70 86.5 150.5t33.5 181.5q0 104 -33 186.5t-87 145.5l68 49q77 -66 123 -165t46 -216t-46 -216t-123 -165z" />
    <glyph glyph-name="uni24A2" unicode="&#x24a2;" horiz-adv-x="1000" 
d="M484 224q-36 0 -65.5 13t-51 36t-33 54.5t-11.5 68.5t11.5 68.5t33 54.5t51 36t65.5 13q47 0 82 -20v13h101v-301q0 -42 -13 -73.5t-36 -53t-55.5 -32t-72.5 -10.5q-65 0 -100.5 24t-35.5 61q0 20 12 34.5t34 18.5q5 2 11 -1t8 -10q6 -41 72 -41q32 0 51.5 13.5
t22.5 53.5q-34 -20 -81 -20zM40 344q0 117 46 216t123 165l68 -49q-54 -63 -87 -145.5t-33 -186.5q0 -101 33.5 -181.5t86.5 -150.5l-68 -49q-77 66 -123 165t-46 216zM424 396q0 -41 18.5 -65.5t53.5 -24.5q33 0 53 25t20 65q0 39 -19.5 61t-53.5 22q-72 0 -72 -83zM723 12
q53 70 86.5 150.5t33.5 181.5q0 104 -33 186.5t-87 145.5l68 49q77 -66 123 -165t46 -216t-46 -216t-123 -165z" />
    <glyph glyph-name="uni24A3" unicode="&#x24a3;" horiz-adv-x="1000" 
d="M580 320q0 44 -13 60t-34 16q-29 0 -51.5 -19t-25.5 -50v-232h-101v459q0 14 -1.5 19t-5.5 7q-16 10 -1 20q10 6 26.5 11t32.5 5q20 0 35 -12.5t15 -44.5v-112q21 17 46.5 27t53.5 10q59 0 92 -42t33 -118v-229h-101v225zM40 344q0 117 46 216t123 165l68 -49
q-54 -63 -87 -145.5t-33 -186.5q0 -101 33.5 -181.5t86.5 -150.5l-68 -49q-77 66 -123 165t-46 216zM723 12q53 70 86.5 150.5t33.5 181.5q0 104 -33 186.5t-87 145.5l68 49q77 -66 123 -165t46 -216t-46 -216t-123 -165z" />
    <glyph glyph-name="uni24A4" unicode="&#x24a4;" horiz-adv-x="1000" 
d="M455 416q0 14 -1.5 18.5t-5.5 6.5q-8 5 -8 10.5t8 10.5q9 5 26 10t32 5q20 0 35.5 -12.5t15.5 -44.5v-333h-102v329zM40 344q0 117 46 216t123 165l68 -49q-54 -63 -87 -145.5t-33 -186.5q0 -101 33.5 -181.5t86.5 -150.5l-68 -49q-77 66 -123 165t-46 216zM441 561
q0 25 17 41t43 16t43 -16t17 -41t-17 -41t-43 -16t-43 16t-17 41zM723 12q53 70 86.5 150.5t33.5 181.5q0 104 -33 186.5t-87 145.5l68 49q77 -66 123 -165t46 -216t-46 -216t-123 -165z" />
    <glyph glyph-name="uni24A5" unicode="&#x24a5;" horiz-adv-x="1000" 
d="M463 430q0 13 -1.5 18t-5.5 7q-16 10 -1 20q10 6 27 11t33 5q20 0 35 -12.5t15 -44.5v-256q0 -77 -23.5 -111t-61.5 -34q-31 0 -48 17.5t-19 46.5q-2 8 4 12t13 2q6 -2 12 -0.5t10.5 8.5t7.5 21t3 37v253zM40 344q0 117 46 216t123 165l68 -49q-54 -63 -87 -145.5
t-33 -186.5q0 -101 33.5 -181.5t86.5 -150.5l-68 -49q-77 66 -123 165t-46 216zM449 575q0 24 17 40t43 16t43 -16t17 -40q0 -25 -17 -41t-43 -16t-43 16t-17 41zM723 12q53 70 86.5 150.5t33.5 181.5q0 104 -33 186.5t-87 145.5l68 49q77 -66 123 -165t46 -216t-46 -216
t-123 -165z" />
    <glyph glyph-name="uni24A6" unicode="&#x24a6;" horiz-adv-x="1000" 
d="M679 142q7 0 12.5 -3.5t3.5 -13.5q-2 -23 -17.5 -39t-44.5 -16q-36 0 -53.5 28t-22.5 79q-4 40 -9.5 50.5t-17.5 10.5q-18 0 -35.5 -13.5t-32.5 -38.5v-105h-101v460q0 14 -1.5 19t-6.5 7q-7 3 -7.5 9t7.5 11q9 5 25.5 10t33.5 5q20 0 35 -12.5t15 -44.5v-228l86 98
q17 19 14 22q-8 3 -8 9t8 11q14 8 34 12t40 1q33 -7 32.5 -34t-29.5 -59l-58 -62q40 -2 55 -32t20 -74q4 -36 9.5 -51.5t13.5 -15.5zM40 344q0 117 46 216t123 165l68 -49q-54 -63 -87 -145.5t-33 -186.5q0 -101 33.5 -181.5t86.5 -150.5l-68 -49q-77 66 -123 165t-46 216z
M723 12q53 70 86.5 150.5t33.5 181.5q0 104 -33 186.5t-87 145.5l68 49q77 -66 123 -165t46 -216t-46 -216t-123 -165z" />
    <glyph glyph-name="uni24A7" unicode="&#x24a7;" horiz-adv-x="1000" 
d="M457 544q0 14 -1.5 19t-5.5 7q-8 4 -8.5 9t7.5 10q8 7 25.5 12t33.5 5q20 0 35.5 -12.5t15.5 -44.5v-464h-102v459zM40 344q0 117 46 216t123 165l68 -49q-54 -63 -87 -145.5t-33 -186.5q0 -101 33.5 -181.5t86.5 -150.5l-68 -49q-77 66 -123 165t-46 216zM723 12
q53 70 86.5 150.5t33.5 181.5q0 104 -33 186.5t-87 145.5l68 49q77 -66 123 -165t46 -216t-46 -216t-123 -165z" />
    <glyph glyph-name="uni24A8" unicode="&#x24a8;" horiz-adv-x="1000" 
d="M456 390q0 39 -7 53t-24 14q-20 0 -34.5 -16t-16.5 -43v-243h-99v329q0 13 -2 18t-6 7q-8 5 -8 10.5t8 10.5q9 5 25.5 10t32.5 5q15 0 27 -7t18 -24q34 31 78 31q30 0 51 -14t35 -38q18 24 43.5 38t55.5 14q54 0 81 -39.5t27 -111.5v-239h-99v235q0 39 -8 53t-25 14
q-21 0 -36.5 -16.5t-17.5 -44.5v-241h-99v235zM723 12q53 70 86.5 150.5t33.5 181.5q0 104 -33 186.5t-87 145.5l68 49q77 -66 123 -165t46 -216t-46 -216t-123 -165zM40 344q0 117 46 216t123 165l68 -49q-54 -63 -87 -145.5t-33 -186.5q0 -101 33.5 -181.5t86.5 -150.5
l-68 -49q-77 66 -123 165t-46 216z" />
    <glyph glyph-name="uni24A9" unicode="&#x24a9;" horiz-adv-x="1000" 
d="M570 381q0 43 -13 59.5t-34 16.5q-29 0 -51.5 -19t-25.5 -50v-233h-101v329q0 14 -1.5 18.5t-5.5 6.5q-8 5 -8 10.5t8 10.5q9 5 25.5 10t32.5 5q17 0 30 -9t18 -30q44 39 102 39q59 0 92 -42t33 -119v-229h-101v226zM40 344q0 117 46 216t123 165l68 -49
q-54 -63 -87 -145.5t-33 -186.5q0 -101 33.5 -181.5t86.5 -150.5l-68 -49q-77 66 -123 165t-46 216zM723 12q53 70 86.5 150.5t33.5 181.5q0 104 -33 186.5t-87 145.5l68 49q77 -66 123 -165t46 -216t-46 -216t-123 -165z" />
    <glyph glyph-name="uni24AA" unicode="&#x24aa;" horiz-adv-x="1000" 
d="M500 141q-40 0 -73.5 14.5t-58 41t-38 63.5t-13.5 81q0 45 13.5 82t38 63.5t58 41t73.5 14.5t73.5 -14.5t58 -41t38 -63.5t13.5 -82q0 -44 -13.5 -81t-38 -63.5t-58 -41t-73.5 -14.5zM40 344q0 117 46 216t123 165l68 -49q-54 -63 -87 -145.5t-33 -186.5
q0 -101 33.5 -181.5t86.5 -150.5l-68 -49q-77 66 -123 165t-46 216zM418 341q0 -56 22 -83.5t60 -27.5t60 27.5t22 83.5t-22 84t-60 28t-60 -28t-22 -84zM723 12q53 70 86.5 150.5t33.5 181.5q0 104 -33 186.5t-87 145.5l68 49q77 -66 123 -165t46 -216t-46 -216t-123 -165z
" />
    <glyph glyph-name="uni24AB" unicode="&#x24ab;" horiz-adv-x="1000" 
d="M540 157q-26 0 -48 7t-40 19v-102h-101v416q0 14 -1.5 19t-5.5 7q-16 10 -1 20q10 6 26.5 10.5t32.5 4.5q15 0 27.5 -6.5t18.5 -22.5q19 14 41.5 21.5t50.5 7.5q37 0 67.5 -15t52 -42t33.5 -63.5t12 -79.5q0 -42 -12 -79t-33.5 -64t-52 -42.5t-67.5 -15.5zM40 344
q0 117 46 216t123 165l68 -49q-54 -63 -87 -145.5t-33 -186.5q0 -101 33.5 -181.5t86.5 -150.5l-68 -49q-77 66 -123 165t-46 216zM449 358q0 -52 22 -81.5t57 -29.5q37 0 56 29t19 82t-19 82t-56 29q-35 0 -57 -29.5t-22 -81.5zM723 12q53 70 86.5 150.5t33.5 181.5
q0 104 -33 186.5t-87 145.5l68 49q77 -66 123 -165t46 -216t-46 -216t-123 -165z" />
    <glyph glyph-name="uni24AC" unicode="&#x24ac;" horiz-adv-x="1000" 
d="M469 157q-38 0 -68 15.5t-52 42.5t-33.5 64t-11.5 79q0 43 11.5 79.5t33.5 63.5t52 42t68 15q49 0 87 -25v18h101v-470h-101v102q-37 -26 -87 -26zM40 344q0 117 46 216t123 165l68 -49q-54 -63 -87 -145.5t-33 -186.5q0 -101 33.5 -181.5t86.5 -150.5l-68 -49
q-77 66 -123 165t-46 216zM405 358q0 -53 19 -82t56 -29q35 0 57.5 29.5t22.5 81.5t-22.5 81.5t-57.5 29.5q-36 0 -55.5 -29t-19.5 -82zM723 12q53 70 86.5 150.5t33.5 181.5q0 104 -33 186.5t-87 145.5l68 49q77 -66 123 -165t46 -216t-46 -216t-123 -165z" />
    <glyph glyph-name="uni24AD" unicode="&#x24ad;" horiz-adv-x="1000" 
d="M404 474q0 13 -2 18t-6 7q-8 5 -8 10.5t8 10.5q9 5 25.5 10t32.5 5q18 0 32.5 -10t16.5 -36q20 22 44.5 34t52.5 12q35 0 54.5 -18.5t19.5 -46.5q0 -29 -17.5 -45.5t-46.5 -21.5q-7 0 -12 3t-5 9q0 26 -19 26q-26 0 -47 -29t-23 -85v-182h-100v329zM40 344q0 117 46 216
t123 165l68 -49q-54 -63 -87 -145.5t-33 -186.5q0 -101 33.5 -181.5t86.5 -150.5l-68 -49q-77 66 -123 165t-46 216zM723 12q53 70 86.5 150.5t33.5 181.5q0 104 -33 186.5t-87 145.5l68 49q77 -66 123 -165t46 -216t-46 -216t-123 -165z" />
    <glyph glyph-name="uni24AE" unicode="&#x24ae;" horiz-adv-x="1000" 
d="M515 393q73 -18 105.5 -47t32.5 -79q0 -27 -11.5 -50t-32.5 -40t-50 -26.5t-64 -9.5q-32 0 -59 8t-46.5 21.5t-30.5 31.5t-11 37q0 23 14.5 36t37.5 16q6 2 11.5 -1t7.5 -10q4 -25 22 -39t49 -14q32 0 46.5 10.5t14.5 28.5q0 12 -16.5 22t-64.5 22q-64 17 -91.5 44
t-27.5 70q0 26 11.5 47.5t31.5 37.5t47 24.5t59 8.5q31 0 57 -8t44.5 -20.5t28.5 -29.5t10 -35q0 -22 -14.5 -34.5t-37.5 -14.5q-7 -2 -12.5 1.5t-5.5 9.5q-9 44 -66 44q-51 0 -51 -28q0 -11 12 -17.5t50 -16.5zM40 344q0 117 46 216t123 165l68 -49q-54 -63 -87 -145.5
t-33 -186.5q0 -101 33.5 -181.5t86.5 -150.5l-68 -49q-77 66 -123 165t-46 216zM723 12q53 70 86.5 150.5t33.5 181.5q0 104 -33 186.5t-87 145.5l68 49q77 -66 123 -165t46 -216t-46 -216t-123 -165z" />
    <glyph glyph-name="uni24AF" unicode="&#x24af;" horiz-adv-x="1000" 
d="M430 518q0 13 -1.5 18t-5.5 7q-8 5 -8 11t8 9q8 6 25 11t33 5q20 0 35.5 -12.5t15.5 -44.5v-33h83v-86h-83v-172q0 -28 5.5 -35.5t16.5 -7.5t12 12q2 8 7.5 9.5t10.5 1.5q21 -3 33.5 -16t12.5 -33q0 -29 -22.5 -48t-63.5 -19q-55 0 -84.5 32.5t-29.5 101.5v174h-50v86h50
v29zM40 344q0 117 46 216t123 165l68 -49q-54 -63 -87 -145.5t-33 -186.5q0 -101 33.5 -181.5t86.5 -150.5l-68 -49q-77 66 -123 165t-46 216zM723 12q53 70 86.5 150.5t33.5 181.5q0 104 -33 186.5t-87 145.5l68 49q77 -66 123 -165t46 -216t-46 -216t-123 -165z" />
    <glyph glyph-name="uni24B0" unicode="&#x24b0;" horiz-adv-x="1000" 
d="M443 300q0 -44 12.5 -60.5t33.5 -16.5q29 0 51 18.5t24 50.5v183q0 14 -1.5 19t-5.5 7q-16 10 -1 20q10 6 26.5 11t32.5 5q20 0 35 -12.5t15 -44.5v-333h-92l-4 30q-21 -20 -48 -30.5t-56 -10.5q-58 0 -90.5 42t-32.5 118v179q0 14 -1.5 19t-5.5 7q-16 10 -1 20
q10 6 26.5 11t32.5 5q20 0 35 -12.5t15 -44.5v-180zM40 344q0 117 46 216t123 165l68 -49q-54 -63 -87 -145.5t-33 -186.5q0 -101 33.5 -181.5t86.5 -150.5l-68 -49q-77 66 -123 165t-46 216zM723 12q53 70 86.5 150.5t33.5 181.5q0 104 -33 186.5t-87 145.5l68 49
q77 -66 123 -165t46 -216t-46 -216t-123 -165z" />
    <glyph glyph-name="uni24B1" unicode="&#x24b1;" horiz-adv-x="1000" 
d="M578 462q7 19 0 22q-7 5 -7 10.5t8 10.5q9 5 26.5 10t33.5 5q9 0 19 -3.5t16 -12t7 -23.5t-8 -38l-118 -313h-95l-116 326q-5 14 -8 20t-7 8q-8 5 -8 10.5t8 10.5t24.5 10t32.5 5q22 0 35 -12.5t22 -41.5l66 -199zM40 344q0 117 46 216t123 165l68 -49
q-54 -63 -87 -145.5t-33 -186.5q0 -101 33.5 -181.5t86.5 -150.5l-68 -49q-77 66 -123 165t-46 216zM723 12q53 70 86.5 150.5t33.5 181.5q0 104 -33 186.5t-87 145.5l68 49q77 -66 123 -165t46 -216t-46 -216t-123 -165z" />
    <glyph glyph-name="uni24B2" unicode="&#x24b2;" horiz-adv-x="1000" 
d="M450 456q4 12 4 16.5t-2 6.5q-7 5 -7 10.5t8 10.5q9 5 24.5 10t30.5 5q22 0 33.5 -13.5t19.5 -41.5l44 -171l53 168q4 11 3.5 15.5t-2.5 6.5q-7 5 -7 10.5t8 10.5q9 5 25.5 10t32.5 5q21 0 34 -17t0 -59l-101 -314h-89l-57 212l-59 -212h-89l-99 327q-7 23 -14 27
q-8 5 -8 10.5t8 10.5q9 5 25.5 10t32.5 5q40 0 55 -55l47 -168zM40 344q0 117 46 216t123 165l68 -49q-54 -63 -87 -145.5t-33 -186.5q0 -101 33.5 -181.5t86.5 -150.5l-68 -49q-77 66 -123 165t-46 216zM723 12q53 70 86.5 150.5t33.5 181.5q0 104 -33 186.5t-87 145.5
l68 49q77 -66 123 -165t46 -216t-46 -216t-123 -165z" />
    <glyph glyph-name="uni24B3" unicode="&#x24b3;" horiz-adv-x="1000" 
d="M571 145l-67 111l-71 -111h-113l126 194l-75 126q-11 19 -15 24t-9 7q-7 2 -9 7t5 12q10 8 26 14t33 6q21 0 34.5 -11t29.5 -37l42 -69l41 60q12 21 6 25q-12 12 3 19q10 5 27 9t33 4q12 0 23 -5t17 -15.5t4 -26t-17 -35.5l-83 -117l121 -191h-112zM40 344q0 117 46 216
t123 165l68 -49q-54 -63 -87 -145.5t-33 -186.5q0 -101 33.5 -181.5t86.5 -150.5l-68 -49q-77 66 -123 165t-46 216zM723 12q53 70 86.5 150.5t33.5 181.5q0 104 -33 186.5t-87 145.5l68 49q77 -66 123 -165t46 -216t-46 -216t-123 -165z" />
    <glyph glyph-name="uni24B4" unicode="&#x24b4;" horiz-adv-x="1000" 
d="M574 490q8 22 4 23q-15 10 1 20q9 5 27 10t33 5q10 0 20 -3.5t16.5 -12t7 -23.5t-9.5 -37l-105 -246q-35 -85 -69 -120.5t-75 -35.5q-31 0 -47.5 19t-18.5 48q-2 9 5 12.5t14 1.5q19 -7 38 4t41 49l-103 280q-5 12 -10 19.5t-9 9.5q-17 10 0 20q9 5 25.5 10t32.5 5
q43 0 60 -53l59 -162zM40 344q0 117 46 216t123 165l68 -49q-54 -63 -87 -145.5t-33 -186.5q0 -101 33.5 -181.5t86.5 -150.5l-68 -49q-77 66 -123 165t-46 216zM723 12q53 70 86.5 150.5t33.5 181.5q0 104 -33 186.5t-87 145.5l68 49q77 -66 123 -165t46 -216t-46 -216
t-123 -165z" />
    <glyph glyph-name="uni24B5" unicode="&#x24b5;" horiz-adv-x="1000" 
d="M346 208l171 235h-157v87h293v-60l-173 -235h121q12 0 16.5 1.5t8.5 6.5q3 6 11 6.5t12 -5.5q6 -9 11 -22t5 -30q0 -44 -60 -44h-259v60zM40 344q0 117 46 216t123 165l68 -49q-54 -63 -87 -145.5t-33 -186.5q0 -101 33.5 -181.5t86.5 -150.5l-68 -49q-77 66 -123 165
t-46 216zM723 12q53 70 86.5 150.5t33.5 181.5q0 104 -33 186.5t-87 145.5l68 49q77 -66 123 -165t46 -216t-46 -216t-123 -165z" />
    <glyph glyph-name="uni24D0" unicode="&#x24d0;" horiz-adv-x="1000" 
d="M479 141q-38 0 -68 15.5t-52 42.5t-33.5 63.5t-11.5 78.5q0 43 11.5 79.5t33.5 63.5t52 42.5t68 15.5q50 0 87 -26v18h101v-382h-92l-3 19q-39 -30 -93 -30zM40 341q0 93 33 175t93.5 143t145.5 96.5t188 35.5t188 -35t145.5 -96t93.5 -143t33 -176q0 -93 -33 -175
t-93.5 -143t-145.5 -96.5t-188 -35.5t-188 35.5t-145.5 96.5t-93.5 143t-33 175zM142 341q0 -80 26.5 -145.5t73.5 -112.5t113 -72.5t145 -25.5t145 25.5t113 72.5t73.5 112.5t26.5 145.5t-26.5 145.5t-73.5 112.5t-113 72.5t-145 25.5t-145 -25.5t-113 -72.5t-73.5 -112.5
t-26.5 -145.5zM415 341q0 -53 19 -82t56 -29q35 0 57.5 29.5t22.5 81.5t-22.5 81.5t-57.5 29.5q-36 0 -55.5 -29t-19.5 -82z" />
    <glyph glyph-name="uni24D1" unicode="&#x24d1;" horiz-adv-x="1000" 
d="M545 80q-55 0 -94 30l-2 -19h-93v460q0 14 -2 19t-6 7q-6 4 -6.5 9.5t7.5 10.5q9 5 25.5 10t32.5 5q20 0 35 -12.5t15 -44.5v-100q37 26 88 26q37 0 67.5 -15.5t52 -42.5t33.5 -63.5t12 -79.5q0 -42 -12 -78.5t-33.5 -63.5t-52 -42.5t-67.5 -15.5zM40 341q0 93 33 175
t93.5 143t145.5 96.5t188 35.5t188 -35t145.5 -96t93.5 -143t33 -176q0 -93 -33 -175t-93.5 -143t-145.5 -96.5t-188 -35.5t-188 35.5t-145.5 96.5t-93.5 143t-33 175zM142 341q0 -80 26.5 -145.5t73.5 -112.5t113 -72.5t145 -25.5t145 25.5t113 72.5t73.5 112.5t26.5 145.5
t-26.5 145.5t-73.5 112.5t-113 72.5t-145 25.5t-145 -25.5t-113 -72.5t-73.5 -112.5t-26.5 -145.5zM454 280q0 -51 22 -81t57 -30q37 0 56 29.5t19 81.5q0 53 -19 82.5t-56 29.5q-35 0 -57 -30t-22 -82z" />
    <glyph glyph-name="uni24D2" unicode="&#x24d2;" horiz-adv-x="1000" 
d="M518 452q-44 0 -67.5 -27.5t-23.5 -83.5q0 -57 24.5 -84t69.5 -27q33 0 48.5 15.5t17.5 38.5q0 12 16 12q26 -2 43.5 -15t17.5 -37q0 -20 -10 -39t-29.5 -33t-47 -22.5t-61.5 -8.5q-43 0 -78 14t-60 40.5t-38.5 63.5t-13.5 82t14 82t39.5 63.5t61 41t79.5 14.5
q31 0 56 -8.5t42.5 -22.5t27 -31t9.5 -33q0 -26 -19 -39.5t-43 -15.5q-7 0 -12 2.5t-5 9.5q-2 23 -15.5 35.5t-42.5 12.5zM40 341q0 93 33 175t93.5 143t145.5 96.5t188 35.5t188 -35t145.5 -96t93.5 -143t33 -176q0 -93 -33 -175t-93.5 -143t-145.5 -96.5t-188 -35.5
t-188 35.5t-145.5 96.5t-93.5 143t-33 175zM142 341q0 -80 26.5 -145.5t73.5 -112.5t113 -72.5t145 -25.5t145 25.5t113 72.5t73.5 112.5t26.5 145.5t-26.5 145.5t-73.5 112.5t-113 72.5t-145 25.5t-145 -25.5t-113 -72.5t-73.5 -112.5t-26.5 -145.5z" />
    <glyph glyph-name="uni24D3" unicode="&#x24d3;" horiz-adv-x="1000" 
d="M469 80q-38 0 -68 15.5t-52 42.5t-33.5 63.5t-11.5 78.5q0 43 11.5 79.5t33.5 63.5t52 42.5t68 15.5q49 0 87 -25v95q0 14 -2 19t-6 7q-6 4 -6.5 9.5t7.5 10.5q9 5 25.5 10t32.5 5q20 0 35 -12.5t15 -44.5v-464h-92l-3 19q-39 -30 -93 -30zM40 341q0 93 33 175t93.5 143
t145.5 96.5t188 35.5t188 -35t145.5 -96t93.5 -143t33 -176q0 -93 -33 -175t-93.5 -143t-145.5 -96.5t-188 -35.5t-188 35.5t-145.5 96.5t-93.5 143t-33 175zM142 341q0 -80 26.5 -145.5t73.5 -112.5t113 -72.5t145 -25.5t145 25.5t113 72.5t73.5 112.5t26.5 145.5
t-26.5 145.5t-73.5 112.5t-113 72.5t-145 25.5t-145 -25.5t-113 -72.5t-73.5 -112.5t-26.5 -145.5zM405 280q0 -52 19 -81.5t56 -29.5q35 0 57.5 30t22.5 81q0 52 -22.5 82t-57.5 30q-36 0 -55.5 -29.5t-19.5 -82.5z" />
    <glyph glyph-name="uni24D4" unicode="&#x24d4;" horiz-adv-x="1000" 
d="M500 -109q-103 0 -188 35.5t-145.5 96.5t-93.5 143t-33 175t33 175t93.5 143t145.5 96.5t188 35.5t188 -35t145.5 -96t93.5 -143t33 -176q0 -93 -33 -175t-93.5 -143t-145.5 -96.5t-188 -35.5zM142 341q0 -80 26.5 -145.5t73.5 -112.5t113 -72.5t145 -25.5t145 25.5
t113 72.5t73.5 112.5t26.5 145.5t-26.5 145.5t-73.5 112.5t-113 72.5t-145 25.5t-145 -25.5t-113 -72.5t-73.5 -112.5t-26.5 -145.5zM324 341q0 45 13.5 82t37.5 63.5t57.5 41t73.5 14.5q39 0 70.5 -14.5t54 -39t34.5 -57.5t12 -69q0 -16 -1 -29t-5 -26h-243q7 -40 30 -59.5
t60 -19.5q29 0 45.5 11t21.5 29q1 6 6 9.5t12 1.5q23 -3 37.5 -15.5t14.5 -35.5q0 -38 -39 -62.5t-103 -24.5q-43 0 -78 14t-59.5 40.5t-38 63.5t-13.5 82zM572 390q-13 64 -66 64q-28 0 -47.5 -16t-27.5 -48h141z" />
    <glyph glyph-name="uni24D5" unicode="&#x24d5;" horiz-adv-x="1000" 
d="M616 381h-91v-296h-100v296h-50v86h50q0 60 35 99.5t101 39.5q44 0 64.5 -19.5t20.5 -42.5q0 -18 -13.5 -30.5t-35.5 -17.5q-6 0 -11 2t-6 9q-2 8 -5.5 10.5t-11.5 2.5q-16 0 -26.5 -13t-11.5 -40h91v-86zM40 341q0 93 33 175t93.5 143t145.5 96.5t188 35.5t188 -35
t145.5 -96t93.5 -143t33 -176q0 -93 -33 -175t-93.5 -143t-145.5 -96.5t-188 -35.5t-188 35.5t-145.5 96.5t-93.5 143t-33 175zM142 341q0 -80 26.5 -145.5t73.5 -112.5t113 -72.5t145 -25.5t145 25.5t113 72.5t73.5 112.5t26.5 145.5t-26.5 145.5t-73.5 112.5t-113 72.5
t-145 25.5t-145 -25.5t-113 -72.5t-73.5 -112.5t-26.5 -145.5z" />
    <glyph glyph-name="uni24D6" unicode="&#x24d6;" horiz-adv-x="1000" 
d="M484 224q-36 0 -65.5 13t-51 36t-33 54.5t-11.5 68.5t11.5 68.5t33 54.5t51 36t65.5 13q47 0 82 -20v13h101v-301q0 -42 -13 -73.5t-36 -53t-55.5 -32t-72.5 -10.5q-65 0 -100.5 24t-35.5 61q0 20 12 34.5t34 18.5q5 2 11 -1t8 -10q6 -41 72 -41q32 0 51.5 13.5
t22.5 53.5q-34 -20 -81 -20zM40 341q0 93 33 175t93.5 143t145.5 96.5t188 35.5t188 -35t145.5 -96t93.5 -143t33 -176q0 -93 -33 -175t-93.5 -143t-145.5 -96.5t-188 -35.5t-188 35.5t-145.5 96.5t-93.5 143t-33 175zM142 341q0 -80 26.5 -145.5t73.5 -112.5t113 -72.5
t145 -25.5t145 25.5t113 72.5t73.5 112.5t26.5 145.5t-26.5 145.5t-73.5 112.5t-113 72.5t-145 25.5t-145 -25.5t-113 -72.5t-73.5 -112.5t-26.5 -145.5zM424 396q0 -41 18.5 -65.5t53.5 -24.5q33 0 53 25t20 65q0 39 -19.5 61t-53.5 22q-72 0 -72 -83z" />
    <glyph glyph-name="uni24D7" unicode="&#x24d7;" horiz-adv-x="1000" 
d="M580 320q0 44 -13 60t-34 16q-29 0 -51.5 -19t-25.5 -50v-232h-101v459q0 14 -1.5 19t-5.5 7q-16 10 -1 20q10 6 26.5 11t32.5 5q20 0 35 -12.5t15 -44.5v-112q21 17 46.5 27t53.5 10q59 0 92 -42t33 -118v-229h-101v225zM40 341q0 93 33 175t93.5 143t145.5 96.5
t188 35.5t188 -35t145.5 -96t93.5 -143t33 -176q0 -93 -33 -175t-93.5 -143t-145.5 -96.5t-188 -35.5t-188 35.5t-145.5 96.5t-93.5 143t-33 175zM142 341q0 -80 26.5 -145.5t73.5 -112.5t113 -72.5t145 -25.5t145 25.5t113 72.5t73.5 112.5t26.5 145.5t-26.5 145.5
t-73.5 112.5t-113 72.5t-145 25.5t-145 -25.5t-113 -72.5t-73.5 -112.5t-26.5 -145.5z" />
    <glyph glyph-name="uni24D8" unicode="&#x24d8;" horiz-adv-x="1000" 
d="M455 416q0 14 -1.5 18.5t-5.5 6.5q-8 5 -8 10.5t8 10.5q9 5 26 10t32 5q20 0 35.5 -12.5t15.5 -44.5v-333h-102v329zM40 341q0 93 33 175t93.5 143t145.5 96.5t188 35.5t188 -35t145.5 -96t93.5 -143t33 -176q0 -93 -33 -175t-93.5 -143t-145.5 -96.5t-188 -35.5
t-188 35.5t-145.5 96.5t-93.5 143t-33 175zM142 341q0 -80 26.5 -145.5t73.5 -112.5t113 -72.5t145 -25.5t145 25.5t113 72.5t73.5 112.5t26.5 145.5t-26.5 145.5t-73.5 112.5t-113 72.5t-145 25.5t-145 -25.5t-113 -72.5t-73.5 -112.5t-26.5 -145.5zM441 561q0 25 17 41
t43 16t43 -16t17 -41t-17 -41t-43 -16t-43 16t-17 41z" />
    <glyph glyph-name="uni24D9" unicode="&#x24d9;" horiz-adv-x="1000" 
d="M463 430q0 13 -1.5 18t-5.5 7q-16 10 -1 20q10 6 27 11t33 5q20 0 35 -12.5t15 -44.5v-256q0 -77 -23.5 -111t-61.5 -34q-31 0 -48 17.5t-19 46.5q-2 8 4 12t13 2q6 -2 12 -0.5t10.5 8.5t7.5 21t3 37v253zM40 341q0 93 33 175t93.5 143t145.5 96.5t188 35.5t188 -35
t145.5 -96t93.5 -143t33 -176q0 -93 -33 -175t-93.5 -143t-145.5 -96.5t-188 -35.5t-188 35.5t-145.5 96.5t-93.5 143t-33 175zM142 341q0 -80 26.5 -145.5t73.5 -112.5t113 -72.5t145 -25.5t145 25.5t113 72.5t73.5 112.5t26.5 145.5t-26.5 145.5t-73.5 112.5t-113 72.5
t-145 25.5t-145 -25.5t-113 -72.5t-73.5 -112.5t-26.5 -145.5zM449 575q0 24 17 40t43 16t43 -16t17 -40q0 -25 -17 -41t-43 -16t-43 16t-17 41z" />
    <glyph glyph-name="uni24DA" unicode="&#x24da;" horiz-adv-x="1000" 
d="M679 142q7 0 12.5 -3.5t3.5 -13.5q-2 -23 -17.5 -39t-44.5 -16q-36 0 -53.5 28t-22.5 79q-4 40 -9.5 50.5t-17.5 10.5q-18 0 -35.5 -13.5t-32.5 -38.5v-105h-101v460q0 14 -1.5 19t-6.5 7q-7 3 -7.5 9t7.5 11q9 5 25.5 10t33.5 5q20 0 35 -12.5t15 -44.5v-228l86 98
q17 19 14 22q-8 3 -8 9t8 11q14 8 34 12t40 1q33 -7 32.5 -34t-29.5 -59l-58 -62q40 -2 55 -32t20 -74q4 -36 9.5 -51.5t13.5 -15.5zM40 341q0 93 33 175t93.5 143t145.5 96.5t188 35.5t188 -35t145.5 -96t93.5 -143t33 -176q0 -93 -33 -175t-93.5 -143t-145.5 -96.5
t-188 -35.5t-188 35.5t-145.5 96.5t-93.5 143t-33 175zM142 341q0 -80 26.5 -145.5t73.5 -112.5t113 -72.5t145 -25.5t145 25.5t113 72.5t73.5 112.5t26.5 145.5t-26.5 145.5t-73.5 112.5t-113 72.5t-145 25.5t-145 -25.5t-113 -72.5t-73.5 -112.5t-26.5 -145.5z" />
    <glyph glyph-name="uni24DB" unicode="&#x24db;" horiz-adv-x="1000" 
d="M457 544q0 14 -1.5 19t-5.5 7q-8 4 -8.5 9t7.5 10q8 7 25.5 12t33.5 5q20 0 35.5 -12.5t15.5 -44.5v-464h-102v459zM40 341q0 93 33 175t93.5 143t145.5 96.5t188 35.5t188 -35t145.5 -96t93.5 -143t33 -176q0 -93 -33 -175t-93.5 -143t-145.5 -96.5t-188 -35.5
t-188 35.5t-145.5 96.5t-93.5 143t-33 175zM142 341q0 -80 26.5 -145.5t73.5 -112.5t113 -72.5t145 -25.5t145 25.5t113 72.5t73.5 112.5t26.5 145.5t-26.5 145.5t-73.5 112.5t-113 72.5t-145 25.5t-145 -25.5t-113 -72.5t-73.5 -112.5t-26.5 -145.5z" />
    <glyph glyph-name="uni24DC" unicode="&#x24dc;" horiz-adv-x="1000" 
d="M40 341q0 93 33 175t93.5 143t145.5 96.5t188 35.5t188 -35t145.5 -96t93.5 -143t33 -176q0 -93 -33 -175t-93.5 -143t-145.5 -96.5t-188 -35.5t-188 35.5t-145.5 96.5t-93.5 143t-33 175zM142 341q0 -80 26.5 -145.5t73.5 -112.5t113 -72.5t145 -25.5t145 25.5t113 72.5
t73.5 112.5t26.5 145.5t-26.5 145.5t-73.5 112.5t-113 72.5t-145 25.5t-145 -25.5t-113 -72.5t-73.5 -112.5t-26.5 -145.5zM456 390q0 39 -7 53t-24 14q-20 0 -34.5 -16t-16.5 -43v-243h-99v329q0 13 -2 18t-6 7q-8 5 -8 10.5t8 10.5q9 5 25.5 10t32.5 5q15 0 27 -7t18 -24
q34 31 78 31q30 0 51 -14t35 -38q18 24 43.5 38t55.5 14q54 0 81 -39.5t27 -111.5v-239h-99v235q0 39 -8 53t-25 14q-21 0 -36.5 -16.5t-17.5 -44.5v-241h-99v235z" />
    <glyph glyph-name="uni24DD" unicode="&#x24dd;" horiz-adv-x="1000" 
d="M570 381q0 43 -13 59.5t-34 16.5q-29 0 -51.5 -19t-25.5 -50v-233h-101v329q0 14 -1.5 18.5t-5.5 6.5q-8 5 -8 10.5t8 10.5q9 5 25.5 10t32.5 5q17 0 30 -9t18 -30q44 39 102 39q59 0 92 -42t33 -119v-229h-101v226zM40 341q0 93 33 175t93.5 143t145.5 96.5t188 35.5
t188 -35t145.5 -96t93.5 -143t33 -176q0 -93 -33 -175t-93.5 -143t-145.5 -96.5t-188 -35.5t-188 35.5t-145.5 96.5t-93.5 143t-33 175zM142 341q0 -80 26.5 -145.5t73.5 -112.5t113 -72.5t145 -25.5t145 25.5t113 72.5t73.5 112.5t26.5 145.5t-26.5 145.5t-73.5 112.5
t-113 72.5t-145 25.5t-145 -25.5t-113 -72.5t-73.5 -112.5t-26.5 -145.5z" />
    <glyph glyph-name="uni24DE" unicode="&#x24de;" horiz-adv-x="1000" 
d="M500 141q-40 0 -73.5 14.5t-58 41t-38 63.5t-13.5 81q0 45 13.5 82t38 63.5t58 41t73.5 14.5t73.5 -14.5t58 -41t38 -63.5t13.5 -82q0 -44 -13.5 -81t-38 -63.5t-58 -41t-73.5 -14.5zM40 341q0 93 33 175t93.5 143t145.5 96.5t188 35.5t188 -35t145.5 -96t93.5 -143
t33 -176q0 -93 -33 -175t-93.5 -143t-145.5 -96.5t-188 -35.5t-188 35.5t-145.5 96.5t-93.5 143t-33 175zM142 341q0 -80 26.5 -145.5t73.5 -112.5t113 -72.5t145 -25.5t145 25.5t113 72.5t73.5 112.5t26.5 145.5t-26.5 145.5t-73.5 112.5t-113 72.5t-145 25.5t-145 -25.5
t-113 -72.5t-73.5 -112.5t-26.5 -145.5zM418 341q0 -56 22 -83.5t60 -27.5t60 27.5t22 83.5t-22 84t-60 28t-60 -28t-22 -84z" />
    <glyph glyph-name="uni24DF" unicode="&#x24df;" horiz-adv-x="1000" 
d="M540 157q-26 0 -48 7t-40 19v-102h-101v416q0 14 -1.5 19t-5.5 7q-16 10 -1 20q10 6 26.5 10.5t32.5 4.5q15 0 27.5 -6.5t18.5 -22.5q19 14 41.5 21.5t50.5 7.5q37 0 67.5 -15t52 -42t33.5 -63.5t12 -79.5q0 -42 -12 -79t-33.5 -64t-52 -42.5t-67.5 -15.5zM40 341
q0 93 33 175t93.5 143t145.5 96.5t188 35.5t188 -35t145.5 -96t93.5 -143t33 -176q0 -93 -33 -175t-93.5 -143t-145.5 -96.5t-188 -35.5t-188 35.5t-145.5 96.5t-93.5 143t-33 175zM142 341q0 -80 26.5 -145.5t73.5 -112.5t113 -72.5t145 -25.5t145 25.5t113 72.5
t73.5 112.5t26.5 145.5t-26.5 145.5t-73.5 112.5t-113 72.5t-145 25.5t-145 -25.5t-113 -72.5t-73.5 -112.5t-26.5 -145.5zM449 358q0 -52 22 -81.5t57 -29.5q37 0 56 29t19 82t-19 82t-56 29q-35 0 -57 -29.5t-22 -81.5z" />
    <glyph glyph-name="uni24E0" unicode="&#x24e0;" horiz-adv-x="1000" 
d="M469 157q-38 0 -68 15.5t-52 42.5t-33.5 64t-11.5 79q0 43 11.5 79.5t33.5 63.5t52 42t68 15q49 0 87 -25v18h101v-470h-101v102q-37 -26 -87 -26zM40 341q0 93 33 175t93.5 143t145.5 96.5t188 35.5t188 -35t145.5 -96t93.5 -143t33 -176q0 -93 -33 -175t-93.5 -143
t-145.5 -96.5t-188 -35.5t-188 35.5t-145.5 96.5t-93.5 143t-33 175zM142 341q0 -80 26.5 -145.5t73.5 -112.5t113 -72.5t145 -25.5t145 25.5t113 72.5t73.5 112.5t26.5 145.5t-26.5 145.5t-73.5 112.5t-113 72.5t-145 25.5t-145 -25.5t-113 -72.5t-73.5 -112.5
t-26.5 -145.5zM405 358q0 -53 19 -82t56 -29q35 0 57.5 29.5t22.5 81.5t-22.5 81.5t-57.5 29.5q-36 0 -55.5 -29t-19.5 -82z" />
    <glyph glyph-name="uni24E1" unicode="&#x24e1;" horiz-adv-x="1000" 
d="M404 474q0 13 -2 18t-6 7q-8 5 -8 10.5t8 10.5q9 5 25.5 10t32.5 5q18 0 32.5 -10t16.5 -36q20 22 44.5 34t52.5 12q35 0 54.5 -18.5t19.5 -46.5q0 -29 -17.5 -45.5t-46.5 -21.5q-7 0 -12 3t-5 9q0 26 -19 26q-26 0 -47 -29t-23 -85v-182h-100v329zM40 341q0 93 33 175
t93.5 143t145.5 96.5t188 35.5t188 -35t145.5 -96t93.5 -143t33 -176q0 -93 -33 -175t-93.5 -143t-145.5 -96.5t-188 -35.5t-188 35.5t-145.5 96.5t-93.5 143t-33 175zM142 341q0 -80 26.5 -145.5t73.5 -112.5t113 -72.5t145 -25.5t145 25.5t113 72.5t73.5 112.5t26.5 145.5
t-26.5 145.5t-73.5 112.5t-113 72.5t-145 25.5t-145 -25.5t-113 -72.5t-73.5 -112.5t-26.5 -145.5z" />
    <glyph glyph-name="uni24E2" unicode="&#x24e2;" horiz-adv-x="1000" 
d="M515 393q73 -18 105.5 -47t32.5 -79q0 -27 -11.5 -50t-32.5 -40t-50 -26.5t-64 -9.5q-32 0 -59 8t-46.5 21.5t-30.5 31.5t-11 37q0 23 14.5 36t37.5 16q6 2 11.5 -1t7.5 -10q4 -25 22 -39t49 -14q32 0 46.5 10.5t14.5 28.5q0 12 -16.5 22t-64.5 22q-64 17 -91.5 44
t-27.5 70q0 26 11.5 47.5t31.5 37.5t47 24.5t59 8.5q31 0 57 -8t44.5 -20.5t28.5 -29.5t10 -35q0 -22 -14.5 -34.5t-37.5 -14.5q-7 -2 -12.5 1.5t-5.5 9.5q-9 44 -66 44q-51 0 -51 -28q0 -11 12 -17.5t50 -16.5zM40 341q0 93 33 175t93.5 143t145.5 96.5t188 35.5t188 -35
t145.5 -96t93.5 -143t33 -176q0 -93 -33 -175t-93.5 -143t-145.5 -96.5t-188 -35.5t-188 35.5t-145.5 96.5t-93.5 143t-33 175zM142 341q0 -80 26.5 -145.5t73.5 -112.5t113 -72.5t145 -25.5t145 25.5t113 72.5t73.5 112.5t26.5 145.5t-26.5 145.5t-73.5 112.5t-113 72.5
t-145 25.5t-145 -25.5t-113 -72.5t-73.5 -112.5t-26.5 -145.5z" />
    <glyph glyph-name="uni24E3" unicode="&#x24e3;" horiz-adv-x="1000" 
d="M430 518q0 13 -1.5 18t-5.5 7q-8 5 -8 11t8 9q8 6 25 11t33 5q20 0 35.5 -12.5t15.5 -44.5v-33h83v-86h-83v-172q0 -28 5.5 -35.5t16.5 -7.5t12 12q2 8 7.5 9.5t10.5 1.5q21 -3 33.5 -16t12.5 -33q0 -29 -22.5 -48t-63.5 -19q-55 0 -84.5 32.5t-29.5 101.5v174h-50v86h50
v29zM40 341q0 93 33 175t93.5 143t145.5 96.5t188 35.5t188 -35t145.5 -96t93.5 -143t33 -176q0 -93 -33 -175t-93.5 -143t-145.5 -96.5t-188 -35.5t-188 35.5t-145.5 96.5t-93.5 143t-33 175zM142 341q0 -80 26.5 -145.5t73.5 -112.5t113 -72.5t145 -25.5t145 25.5
t113 72.5t73.5 112.5t26.5 145.5t-26.5 145.5t-73.5 112.5t-113 72.5t-145 25.5t-145 -25.5t-113 -72.5t-73.5 -112.5t-26.5 -145.5z" />
    <glyph glyph-name="uni24E4" unicode="&#x24e4;" horiz-adv-x="1000" 
d="M443 300q0 -44 12.5 -60.5t33.5 -16.5q29 0 51 18.5t24 50.5v183q0 14 -1.5 19t-5.5 7q-16 10 -1 20q10 6 26.5 11t32.5 5q20 0 35 -12.5t15 -44.5v-333h-92l-4 30q-21 -20 -48 -30.5t-56 -10.5q-58 0 -90.5 42t-32.5 118v179q0 14 -1.5 19t-5.5 7q-16 10 -1 20
q10 6 26.5 11t32.5 5q20 0 35 -12.5t15 -44.5v-180zM40 341q0 93 33 175t93.5 143t145.5 96.5t188 35.5t188 -35t145.5 -96t93.5 -143t33 -176q0 -93 -33 -175t-93.5 -143t-145.5 -96.5t-188 -35.5t-188 35.5t-145.5 96.5t-93.5 143t-33 175zM142 341q0 -80 26.5 -145.5
t73.5 -112.5t113 -72.5t145 -25.5t145 25.5t113 72.5t73.5 112.5t26.5 145.5t-26.5 145.5t-73.5 112.5t-113 72.5t-145 25.5t-145 -25.5t-113 -72.5t-73.5 -112.5t-26.5 -145.5z" />
    <glyph glyph-name="uni24E5" unicode="&#x24e5;" horiz-adv-x="1000" 
d="M578 462q7 19 0 22q-7 5 -7 10.5t8 10.5q9 5 26.5 10t33.5 5q9 0 19 -3.5t16 -12t7 -23.5t-8 -38l-118 -313h-95l-116 326q-5 14 -8 20t-7 8q-8 5 -8 10.5t8 10.5t24.5 10t32.5 5q22 0 35 -12.5t22 -41.5l66 -199zM40 341q0 93 33 175t93.5 143t145.5 96.5t188 35.5
t188 -35t145.5 -96t93.5 -143t33 -176q0 -93 -33 -175t-93.5 -143t-145.5 -96.5t-188 -35.5t-188 35.5t-145.5 96.5t-93.5 143t-33 175zM142 341q0 -80 26.5 -145.5t73.5 -112.5t113 -72.5t145 -25.5t145 25.5t113 72.5t73.5 112.5t26.5 145.5t-26.5 145.5t-73.5 112.5
t-113 72.5t-145 25.5t-145 -25.5t-113 -72.5t-73.5 -112.5t-26.5 -145.5z" />
    <glyph glyph-name="uni24E6" unicode="&#x24e6;" horiz-adv-x="1000" 
d="M450 456q4 12 4 16.5t-2 6.5q-7 5 -7 10.5t8 10.5q9 5 24.5 10t30.5 5q22 0 33.5 -13.5t19.5 -41.5l44 -171l53 168q4 11 3.5 15.5t-2.5 6.5q-7 5 -7 10.5t8 10.5q9 5 25.5 10t32.5 5q21 0 34 -17t0 -59l-101 -314h-89l-57 212l-59 -212h-89l-99 327q-7 23 -14 27
q-8 5 -8 10.5t8 10.5q9 5 25.5 10t32.5 5q40 0 55 -55l47 -168zM40 341q0 93 33 175t93.5 143t145.5 96.5t188 35.5t188 -35t145.5 -96t93.5 -143t33 -176q0 -93 -33 -175t-93.5 -143t-145.5 -96.5t-188 -35.5t-188 35.5t-145.5 96.5t-93.5 143t-33 175zM142 341
q0 -80 26.5 -145.5t73.5 -112.5t113 -72.5t145 -25.5t145 25.5t113 72.5t73.5 112.5t26.5 145.5t-26.5 145.5t-73.5 112.5t-113 72.5t-145 25.5t-145 -25.5t-113 -72.5t-73.5 -112.5t-26.5 -145.5z" />
    <glyph glyph-name="uni24E7" unicode="&#x24e7;" horiz-adv-x="1000" 
d="M571 145l-67 111l-71 -111h-113l126 194l-75 126q-11 19 -15 24t-9 7q-7 2 -9 7t5 12q10 8 26 14t33 6q21 0 34.5 -11t29.5 -37l42 -69l41 60q12 21 6 25q-12 12 3 19q10 5 27 9t33 4q12 0 23 -5t17 -15.5t4 -26t-17 -35.5l-83 -117l121 -191h-112zM40 341q0 93 33 175
t93.5 143t145.5 96.5t188 35.5t188 -35t145.5 -96t93.5 -143t33 -176q0 -93 -33 -175t-93.5 -143t-145.5 -96.5t-188 -35.5t-188 35.5t-145.5 96.5t-93.5 143t-33 175zM142 341q0 -80 26.5 -145.5t73.5 -112.5t113 -72.5t145 -25.5t145 25.5t113 72.5t73.5 112.5t26.5 145.5
t-26.5 145.5t-73.5 112.5t-113 72.5t-145 25.5t-145 -25.5t-113 -72.5t-73.5 -112.5t-26.5 -145.5z" />
    <glyph glyph-name="uni24E8" unicode="&#x24e8;" horiz-adv-x="1000" 
d="M574 490q8 22 4 23q-15 10 1 20q9 5 27 10t33 5q10 0 20 -3.5t16.5 -12t7 -23.5t-9.5 -37l-105 -246q-35 -85 -69 -120.5t-75 -35.5q-31 0 -47.5 19t-18.5 48q-2 9 5 12.5t14 1.5q19 -7 38 4t41 49l-103 280q-5 12 -10 19.5t-9 9.5q-17 10 0 20q9 5 25.5 10t32.5 5
q43 0 60 -53l59 -162zM40 341q0 93 33 175t93.5 143t145.5 96.5t188 35.5t188 -35t145.5 -96t93.5 -143t33 -176q0 -93 -33 -175t-93.5 -143t-145.5 -96.5t-188 -35.5t-188 35.5t-145.5 96.5t-93.5 143t-33 175zM142 341q0 -80 26.5 -145.5t73.5 -112.5t113 -72.5t145 -25.5
t145 25.5t113 72.5t73.5 112.5t26.5 145.5t-26.5 145.5t-73.5 112.5t-113 72.5t-145 25.5t-145 -25.5t-113 -72.5t-73.5 -112.5t-26.5 -145.5z" />
    <glyph glyph-name="uni24E9" unicode="&#x24e9;" horiz-adv-x="1000" 
d="M346 208l171 235h-157v87h293v-60l-173 -235h121q12 0 16.5 1.5t8.5 6.5q3 6 11 6.5t12 -5.5q6 -9 11 -22t5 -30q0 -44 -60 -44h-259v60zM40 341q0 93 33 175t93.5 143t145.5 96.5t188 35.5t188 -35t145.5 -96t93.5 -143t33 -176q0 -93 -33 -175t-93.5 -143t-145.5 -96.5
t-188 -35.5t-188 35.5t-145.5 96.5t-93.5 143t-33 175zM142 341q0 -80 26.5 -145.5t73.5 -112.5t113 -72.5t145 -25.5t145 25.5t113 72.5t73.5 112.5t26.5 145.5t-26.5 145.5t-73.5 112.5t-113 72.5t-145 25.5t-145 -25.5t-113 -72.5t-73.5 -112.5t-26.5 -145.5z" />
    <glyph glyph-name="uni2500" unicode="&#x2500;" horiz-adv-x="1000" 
d="M0 392h1000v-85h-1000v85z" />
    <glyph glyph-name="uni2501" unicode="&#x2501;" horiz-adv-x="1000" 
d="M0 418h1000v-137h-1000v137z" />
    <glyph glyph-name="uni2502" unicode="&#x2502;" horiz-adv-x="1000" 
d="M454 900h94v-1100h-94v1100z" />
    <glyph glyph-name="uni2503" unicode="&#x2503;" horiz-adv-x="1000" 
d="M427 900h145v-1100h-145v1100z" />
    <glyph glyph-name="uni250C" unicode="&#x250c;" horiz-adv-x="1000" 
d="M548 -200h-94v592h546v-85h-452v-507z" />
    <glyph glyph-name="uni250D" unicode="&#x250d;" horiz-adv-x="1000" 
d="M548 -200h-94v618h546v-137h-452v-481z" />
    <glyph glyph-name="uni250E" unicode="&#x250e;" horiz-adv-x="1000" 
d="M572 -200h-145v592h573v-85h-428v-507z" />
    <glyph glyph-name="uni250F" unicode="&#x250f;" horiz-adv-x="1000" 
d="M572 -200h-145v618h573v-137h-428v-481z" />
    <glyph glyph-name="uni2510" unicode="&#x2510;" horiz-adv-x="1000" 
d="M454 307h-454v85h548v-592h-94v507z" />
    <glyph glyph-name="uni2511" unicode="&#x2511;" horiz-adv-x="1000" 
d="M454 281h-454v137h548v-618h-94v481z" />
    <glyph glyph-name="uni2512" unicode="&#x2512;" horiz-adv-x="1000" 
d="M429 307h-429v85h572v-592h-143v507z" />
    <glyph glyph-name="uni2513" unicode="&#x2513;" horiz-adv-x="1000" 
d="M427 281h-427v137h572v-618h-145v481z" />
    <glyph glyph-name="uni2514" unicode="&#x2514;" horiz-adv-x="1000" 
d="M454 900h94v-508h452v-85h-546v593z" />
    <glyph glyph-name="uni2515" unicode="&#x2515;" horiz-adv-x="1000" 
d="M454 900h94v-482h452v-137h-546v619z" />
    <glyph glyph-name="uni2516" unicode="&#x2516;" horiz-adv-x="1000" 
d="M427 900h145v-508h428v-85h-573v593z" />
    <glyph glyph-name="uni2517" unicode="&#x2517;" horiz-adv-x="1000" 
d="M427 900h145v-482h428v-137h-573v619z" />
    <glyph glyph-name="uni2518" unicode="&#x2518;" horiz-adv-x="1000" 
d="M0 392h454v508h94v-593h-548v85z" />
    <glyph glyph-name="uni2519" unicode="&#x2519;" horiz-adv-x="1000" 
d="M0 418h454v482h94v-619h-548v137z" />
    <glyph glyph-name="uni251A" unicode="&#x251a;" horiz-adv-x="1000" 
d="M0 392h427v508h145v-593h-572v85z" />
    <glyph glyph-name="uni251B" unicode="&#x251b;" horiz-adv-x="1000" 
d="M0 418h427v482h145v-619h-572v137z" />
    <glyph glyph-name="uni251C" unicode="&#x251c;" horiz-adv-x="1000" 
d="M548 -200h-94v1100h94v-508h452v-85h-452v-507z" />
    <glyph glyph-name="uni251D" unicode="&#x251d;" horiz-adv-x="1000" 
d="M548 -200h-94v1100h94v-482h452v-137h-452v-481z" />
    <glyph glyph-name="uni251E" unicode="&#x251e;" horiz-adv-x="1000" 
d="M548 -200h-94v507h-27v593h145v-508h428v-85h-452v-507z" />
    <glyph glyph-name="uni251F" unicode="&#x251f;" horiz-adv-x="1000" 
d="M572 -200h-145v592h27v508h94v-508h452v-85h-428v-507z" />
    <glyph glyph-name="uni2520" unicode="&#x2520;" horiz-adv-x="1000" 
d="M572 -200h-145v1100h145v-508h428v-85h-428v-507z" />
    <glyph glyph-name="uni2521" unicode="&#x2521;" horiz-adv-x="1000" 
d="M548 -200h-94v480h-27v620h145v-482h428v-137h-452v-481z" />
    <glyph glyph-name="uni2522" unicode="&#x2522;" horiz-adv-x="1000" 
d="M572 -200h-145v618h27v482h94v-482h452v-137h-428v-481z" />
    <glyph glyph-name="uni2523" unicode="&#x2523;" horiz-adv-x="1000" 
d="M572 -200h-145v1100h145v-482h428v-137h-428v-481z" />
    <glyph glyph-name="uni2524" unicode="&#x2524;" horiz-adv-x="1000" 
d="M454 307h-454v85h454v508h94v-1100h-94v507z" />
    <glyph glyph-name="uni2525" unicode="&#x2525;" horiz-adv-x="1000" 
d="M454 281h-454v137h454v482h94v-1099h-94v480z" />
    <glyph glyph-name="uni2526" unicode="&#x2526;" horiz-adv-x="1000" 
d="M548 -200h-94v507h-454v85h427v508h145v-593h-24v-507z" />
    <glyph glyph-name="uni2527" unicode="&#x2527;" horiz-adv-x="1000" 
d="M427 307h-427v85h454v508h94v-508h24v-593h-145v508z" />
    <glyph glyph-name="uni2528" unicode="&#x2528;" horiz-adv-x="1000" 
d="M427 307h-427v85h427v508h145v-1100h-145v507z" />
    <glyph glyph-name="uni2529" unicode="&#x2529;" horiz-adv-x="1000" 
d="M548 -199h-94v480h-454v137h427v482h145v-619h-24v-480z" />
    <glyph glyph-name="uni252A" unicode="&#x252a;" horiz-adv-x="1000" 
d="M427 281h-427v137h454v482h94v-482h24v-618h-145v481z" />
    <glyph glyph-name="uni252B" unicode="&#x252b;" horiz-adv-x="1000" 
d="M427 281h-427v137h427v482h145v-1099h-145v480z" />
    <glyph glyph-name="uni252C" unicode="&#x252c;" horiz-adv-x="1000" 
d="M548 -200h-94v507h-454v85h1000v-85h-452v-507z" />
    <glyph glyph-name="uni252D" unicode="&#x252d;" horiz-adv-x="1000" 
d="M548 -200h-94v481h-454v137h548v-26h452v-85h-452v-507z" />
    <glyph glyph-name="uni252E" unicode="&#x252e;" horiz-adv-x="1000" 
d="M548 -200h-94v507h-454v85h454v26h546v-137h-452v-481z" />
    <glyph glyph-name="uni252F" unicode="&#x252f;" horiz-adv-x="1000" 
d="M548 -200h-94v481h-454v137h1000v-137h-452v-481z" />
    <glyph glyph-name="uni2530" unicode="&#x2530;" horiz-adv-x="1000" 
d="M572 -200h-143v507h-429v85h1000v-85h-428v-507z" />
    <glyph glyph-name="uni2531" unicode="&#x2531;" horiz-adv-x="1000" 
d="M572 -200h-145v481h-427v137h572v-26h428v-85h-428v-507z" />
    <glyph glyph-name="uni2532" unicode="&#x2532;" horiz-adv-x="1000" 
d="M572 -200h-145v507h-427v85h429v26h571v-137h-428v-481z" />
    <glyph glyph-name="uni2533" unicode="&#x2533;" horiz-adv-x="1000" 
d="M572 -200h-145v481h-427v137h1000v-137h-428v-481z" />
    <glyph glyph-name="uni2534" unicode="&#x2534;" horiz-adv-x="1000" 
d="M0 392h454v508h94v-508h452v-85h-1000v85z" />
    <glyph glyph-name="uni2535" unicode="&#x2535;" horiz-adv-x="1000" 
d="M548 281h-548v137h454v482h94v-508h452v-85h-452v-26z" />
    <glyph glyph-name="uni2536" unicode="&#x2536;" horiz-adv-x="1000" 
d="M454 307h-454v85h454v508h94v-482h452v-137h-546v26z" />
    <glyph glyph-name="uni2537" unicode="&#x2537;" horiz-adv-x="1000" 
d="M0 418h454v482h94v-482h452v-137h-1000v137z" />
    <glyph glyph-name="uni2538" unicode="&#x2538;" horiz-adv-x="1000" 
d="M0 392h427v508h145v-508h428v-85h-1000v85z" />
    <glyph glyph-name="uni2539" unicode="&#x2539;" horiz-adv-x="1000" 
d="M572 281h-572v137h427v482h145v-508h428v-85h-428v-26z" />
    <glyph glyph-name="uni253A" unicode="&#x253a;" horiz-adv-x="1000" 
d="M427 307h-427v85h427v508h145v-482h428v-137h-573v26z" />
    <glyph glyph-name="uni253B" unicode="&#x253b;" horiz-adv-x="1000" 
d="M0 418h427v482h145v-482h428v-137h-1000v137z" />
    <glyph glyph-name="uni253C" unicode="&#x253c;" horiz-adv-x="1000" 
d="M548 -200h-94v507h-454v85h454v508h94v-508h452v-85h-452v-507z" />
    <glyph glyph-name="uni253D" unicode="&#x253d;" horiz-adv-x="1000" 
d="M548 -200h-94v481h-454v137h454v482h94v-508h452v-85h-452v-507z" />
    <glyph glyph-name="uni253E" unicode="&#x253e;" horiz-adv-x="1000" 
d="M548 -200h-94v507h-454v85h454v508h94v-482h452v-137h-452v-481z" />
    <glyph glyph-name="uni253F" unicode="&#x253f;" horiz-adv-x="1000" 
d="M548 -200h-94v481h-454v137h454v482h94v-482h452v-137h-452v-481z" />
    <glyph glyph-name="uni2540" unicode="&#x2540;" horiz-adv-x="1000" 
d="M548 -200h-94v507h-454v85h427v508h145v-508h428v-85h-452v-507z" />
    <glyph glyph-name="uni2541" unicode="&#x2541;" horiz-adv-x="1000" 
d="M572 -200h-145v507h-427v85h454v508h94v-508h452v-85h-428v-507z" />
    <glyph glyph-name="uni2542" unicode="&#x2542;" horiz-adv-x="1000" 
d="M572 -200h-145v507h-427v85h427v508h145v-508h428v-85h-428v-507z" />
    <glyph glyph-name="uni2543" unicode="&#x2543;" horiz-adv-x="1000" 
d="M548 -200h-94v481h-454v137h427v482h145v-508h428v-85h-452v-507z" />
    <glyph glyph-name="uni2544" unicode="&#x2544;" horiz-adv-x="1000" 
d="M548 -200h-94v507h-454v85h427v508h145v-482h428v-137h-452v-481z" />
    <glyph glyph-name="uni2545" unicode="&#x2545;" horiz-adv-x="1000" 
d="M572 -200h-145v481h-427v137h454v482h94v-508h452v-85h-428v-507z" />
    <glyph glyph-name="uni2546" unicode="&#x2546;" horiz-adv-x="1000" 
d="M572 -200h-145v507h-427v85h454v508h94v-482h452v-137h-428v-481z" />
    <glyph glyph-name="uni2547" unicode="&#x2547;" horiz-adv-x="1000" 
d="M548 -200h-94v481h-454v137h427v482h145v-482h428v-137h-452v-481z" />
    <glyph glyph-name="uni2548" unicode="&#x2548;" horiz-adv-x="1000" 
d="M572 -200h-145v481h-427v137h454v482h94v-482h452v-137h-428v-481z" />
    <glyph glyph-name="uni2549" unicode="&#x2549;" horiz-adv-x="1000" 
d="M572 -200h-145v481h-427v137h427v482h145v-508h428v-85h-428v-507z" />
    <glyph glyph-name="uni254A" unicode="&#x254a;" horiz-adv-x="1000" 
d="M572 -200h-145v507h-427v85h427v508h145v-482h428v-137h-428v-481z" />
    <glyph glyph-name="uni254B" unicode="&#x254b;" horiz-adv-x="1000" 
d="M572 -200h-145v482h-427v136h427v482h145v-482h428v-136h-428v-482z" />
    <glyph glyph-name="shade" unicode="&#x2592;" horiz-adv-x="1000" 
d="M448 21h104v-108h-104v108zM69 21h103v-108h-103v108zM69 146h103v-105h-103v105zM69 268h103v-103h-103v103zM69 398h103v-109h-103v109zM69 520h103v-101h-103v101zM69 649h103v-107h-103v107zM69 780h103v-113h-103v113zM198 21h103v-108h-103v108zM198 146h103v-105
h-103v105zM198 268h103v-103h-103v103zM198 398h103v-109h-103v109zM198 520h103v-101h-103v101zM198 649h103v-107h-103v107zM198 780h103v-113h-103v113zM324 21h98v-108h-98v108zM324 146h98v-105h-98v105zM324 268h98v-103h-98v103zM324 398h98v-109h-98v109zM324 520
h98v-101h-98v101zM324 649h98v-107h-98v107zM324 780h98v-113h-98v113zM448 146h104v-105h-104v105zM448 268h104v-103h-104v103zM448 398h104v-109h-104v109zM448 520h104v-101h-104v101zM448 649h104v-107h-104v107zM448 780h104v-113h-104v113zM575 21h102v-108h-102v108
zM575 146h102v-105h-102v105zM575 268h102v-103h-102v103zM575 398h102v-109h-102v109zM575 520h102v-101h-102v101zM575 649h102v-107h-102v107zM575 780h102v-113h-102v113zM702 21h102v-108h-102v108zM702 146h102v-105h-102v105zM702 268h102v-103h-102v103zM702 398
h102v-109h-102v109zM702 520h102v-101h-102v101zM702 649h102v-107h-102v107zM702 780h102v-113h-102v113zM828 21h103v-108h-103v108zM828 146h103v-105h-103v105zM828 268h103v-103h-103v103zM828 398h103v-109h-103v109zM828 520h103v-101h-103v101zM828 649h103v-107
h-103v107zM828 780h103v-113h-103v113z" />
    <glyph glyph-name="filledbox" unicode="&#x25a0;" horiz-adv-x="1000" 
d="M69 780h862v-869h-862v869z" />
    <glyph glyph-name="uni25A1" unicode="&#x25a1;" horiz-adv-x="1000" 
d="M69 780h862v-870h-862v870zM866 -18v730h-730v-730h730z" />
    <glyph glyph-name="uni25A3" unicode="&#x25a3;" horiz-adv-x="1000" 
d="M275 570h447v-453h-447v453zM69 780h862v-870h-862v870zM866 -18v730h-730v-730h730z" />
    <glyph glyph-name="uni25A4" unicode="&#x25a4;" horiz-adv-x="1000" 
d="M931 -88h-862v868h862v-868zM870 -20v135h-740v-135h740zM870 180v137h-740v-137h740zM870 380v136h-740v-136h740zM870 580v136h-740v-136h740z" />
    <glyph glyph-name="uni25A5" unicode="&#x25a5;" horiz-adv-x="1000" 
d="M931 780v-868h-862v868h862zM270 -26v742h-140v-742h140zM468 -26v742h-138v-742h138zM670 -26v742h-141v-742h141zM870 -26v742h-140v-742h140z" />
    <glyph glyph-name="uni25A6" unicode="&#x25a6;" horiz-adv-x="1000" 
d="M931 -88h-862v868h862v-868zM269 -26v141h-139v-141h139zM269 180v137h-139v-137h139zM269 380v136h-139v-136h139zM269 580v136h-139v-136h139zM468 -26v141h-138v-141h138zM468 180v137h-138v-137h138zM468 380v136h-138v-136h138zM468 580v136h-138v-136h138zM670 -26
v141h-141v-141h141zM670 180v137h-141v-137h141zM670 380v136h-141v-136h141zM670 580v136h-141v-136h141zM870 -26v141h-140v-141h140zM870 180v137h-140v-137h140zM870 380v136h-140v-136h140zM870 580v136h-140v-136h140z" />
    <glyph glyph-name="uni25A7" unicode="&#x25a7;" horiz-adv-x="1000" 
d="M69 780h862v-868h-862v868zM220 -26l-90 93v-93h90zM300 -26h212l-382 390v-212zM605 -26h219l-694 702v-223zM870 18v220l-477 478h-213zM870 330v210l-174 176h-213zM870 625v91h-89z" />
    <glyph glyph-name="uni25A8" unicode="&#x25a8;" horiz-adv-x="1000" 
d="M931 -88h-862v868h862v-868zM824 718h-219l-475 -478v-224zM512 718h-212l-170 -178v-211zM220 718h-90v-93zM393 -26l477 480v221l-690 -701h213zM696 -26l174 179v211l-387 -390h213zM870 -26v94l-90 -94h90z" />
    <glyph glyph-name="uni25A9" unicode="&#x25a9;" horiz-adv-x="1000" 
d="M69 780h862v-868h-862v868zM154 41l-24 26v-51zM194 82l108 106l-110 114l-62 -62v-89zM147 346l-17 18v-33zM192 390l110 114l-108 108l-64 -71v-88zM154 651l-24 25v-51zM218 -26l-18 21l-20 -21h38zM201 695l18 21h-39zM348 236l108 110l-108 112l-112 -112zM298 -26
h96l60 64l-106 107l-109 -107zM348 548l106 110l-61 58h-94l-60 -59zM496 82l112 110l-107 110l-111 -114zM501 391l107 109l-112 110l-106 -106zM511 -26l-16 17l-12 -17h28zM495 702l15 14h-26zM604 -26h92l62 66l-106 107l-108 -109zM652 546l106 106l-62 64h-92l-60 -59
zM652 238l109 108l-109 107l-106 -107zM806 83l64 69v86l-63 63l-109 -111zM807 391l63 63v86l-65 67l-107 -105zM824 -26l-22 25l-23 -25h45zM802 696l21 20h-43zM870 20v47l-24 -25zM870 626v47l-24 -22zM870 329v34l-18 -18z" />
    <glyph glyph-name="triagup" unicode="&#x25b2;" horiz-adv-x="1000" 
d="M504 737l450 -698h-909z" />
    <glyph glyph-name="uni25B3" unicode="&#x25b3;" horiz-adv-x="1000" 
d="M45 38l460 699l449 -699h-909zM820 113l-313 491l-328 -491h641z" />
    <glyph glyph-name="uni25B6" unicode="&#x25b6;" horiz-adv-x="1000" 
d="M153 806l702 -466l-702 -443v909z" />
    <glyph glyph-name="uni25B7" unicode="&#x25b7;" horiz-adv-x="1000" 
d="M153 806l702 -466l-702 -444v910zM716 343l-492 330v-640z" />
    <glyph glyph-name="triagdn" unicode="&#x25bc;" horiz-adv-x="1000" 
d="M46 660h908l-456 -699z" />
    <glyph glyph-name="uni25BD" unicode="&#x25bd;" horiz-adv-x="1000" 
d="M45 659h909l-449 -698zM507 93l313 493h-641z" />
    <glyph glyph-name="uni25C0" unicode="&#x25c0;" horiz-adv-x="1000" 
d="M847 806v-910l-702 444z" />
    <glyph glyph-name="uni25C1" unicode="&#x25c1;" horiz-adv-x="1000" 
d="M847 806v-910l-702 444zM776 33v640l-492 -330z" />
    <glyph glyph-name="uni25C6" unicode="&#x25c6;" horiz-adv-x="1000" 
d="M17 344l481 489l485 -488l-484 -488z" />
    <glyph glyph-name="uni25C7" unicode="&#x25c7;" horiz-adv-x="1000" 
d="M17 344l481 489l485 -488l-484 -488zM499 -42l385 391l-386 392l-384 -392z" />
    <glyph glyph-name="uni25C8" unicode="&#x25c8;" horiz-adv-x="1000" 
d="M242 349l252 255l254 -255l-254 -254zM498 833l485 -488l-484 -488l-482 487zM499 -42l385 391l-386 392l-384 -392z" />
    <glyph glyph-name="circle" unicode="&#x25cb;" horiz-adv-x="1000" 
d="M133 345q0 -75 29 -142t79 -117.5t116.5 -80t142.5 -29.5t143.5 29.5t117 80t78.5 117.5t29 142q0 76 -29 143t-78.5 117.5t-117 79.5t-143.5 29t-142.5 -29t-116.5 -79.5t-79 -117.5t-29 -143zM64 345q0 90 34.5 170t94 140t139 95t168.5 35q90 0 169 -35t138.5 -95
t94 -140t34.5 -170q0 -89 -34.5 -169t-94 -140.5t-138.5 -96t-169 -35.5q-89 0 -168.5 35.5t-139 96t-94 140.5t-34.5 169z" />
    <glyph glyph-name="uni25CE" unicode="&#x25ce;" horiz-adv-x="1000" 
d="M133 345q0 -75 29 -142t79 -117.5t116.5 -80t142.5 -29.5t143.5 29.5t117 80t78.5 117.5t29 142q0 76 -29 143t-78.5 117.5t-117 79.5t-143.5 29t-142.5 -29t-116.5 -79.5t-79 -117.5t-29 -143zM64 345q0 90 34.5 170t94 140t139 95t168.5 35q90 0 169 -35t138.5 -95
t94 -140t34.5 -170q0 -89 -34.5 -169t-94 -140.5t-138.5 -96t-169 -35.5q-89 0 -168.5 35.5t-139 96t-94 140.5t-34.5 169zM230 345q0 56 21.5 105.5t58.5 86.5t86 58.5t104 21.5t104 -21.5t86 -58.5t58 -86.5t21 -105.5t-21 -105.5t-58 -86.5t-86 -59t-104 -22t-104 22
t-86 59t-58.5 86.5t-21.5 105.5zM296 345q0 -42 15.5 -79.5t43 -65.5t65 -44.5t80.5 -16.5t81 16.5t65.5 44.5t43.5 65.5t16 79.5q0 43 -16 80.5t-43.5 65.5t-65.5 44t-81 16t-80.5 -16t-65 -44t-43 -65.5t-15.5 -80.5z" />
    <glyph glyph-name="uni25CF" unicode="&#x25cf;" horiz-adv-x="1000" 
d="M936 345q0 -89 -34.5 -169t-94 -140.5t-138.5 -96t-169 -35.5q-89 0 -168.5 35.5t-139 96t-94 140.5t-34.5 169q0 90 34.5 170t94 140t139 95t168.5 35q90 0 169 -35t138.5 -95t94 -140t34.5 -170z" />
    <glyph glyph-name="uni25D0" unicode="&#x25d0;" horiz-adv-x="1000" 
d="M504 -24q76 4 142 35t115.5 81t78 115.5t28.5 137.5q0 73 -28.5 139t-78 116t-115.5 80.5t-142 33.5v-738zM64 345q0 90 34.5 170t94 140t139 95t168.5 35q90 0 169 -35t138.5 -95t94 -140t34.5 -170q0 -89 -34.5 -169t-94 -140.5t-138.5 -96t-169 -35.5
q-89 0 -168.5 35.5t-139 96t-94 140.5t-34.5 169z" />
    <glyph glyph-name="uni25D1" unicode="&#x25d1;" horiz-adv-x="1000" 
d="M495 714q-75 -3 -141.5 -33.5t-115.5 -81t-77.5 -116t-28.5 -138.5q0 -72 28.5 -137.5t77.5 -115.5t115.5 -81t141.5 -35v738zM64 345q0 90 34.5 170t93.5 140t138.5 95t168.5 35q90 0 169.5 -35t139 -95t94 -140t34.5 -170q0 -89 -34.5 -169t-94 -140.5t-139 -96
t-169.5 -35.5q-89 0 -168.5 35.5t-138.5 96t-93.5 140.5t-34.5 169z" />
    <glyph glyph-name="uni2605" unicode="&#x2605;" horiz-adv-x="1000" 
d="M674 265l117 -340l-297 221l-288 -215l109 340l-277 208h347l109 323l113 -323h355z" />
    <glyph glyph-name="uni2606" unicode="&#x2606;" horiz-adv-x="1000" 
d="M558 416l-63 197l-60 -197h-215l176 -129l-74 -196l171 128l179 -134l-76 202l176 129h-214zM385 479l109 323l113 -323h355l-288 -214l117 -340l-297 221l-288 -215l109 340l-277 208h347z" />
    <glyph glyph-name="uni260E" unicode="&#x260e;" horiz-adv-x="1000" 
d="M686 239q0 41 -15.5 74t-41 55.5t-60 34.5t-71.5 12q-39 0 -72.5 -12.5t-58 -36t-39 -56t-14.5 -71.5q0 -42 15 -74.5t40.5 -55t59 -34t69.5 -11.5q40 0 74.5 12.5t59.5 35.5t39.5 55t14.5 72zM34 459q5 50 33 97.5t74 77.5q60 43 152 61.5t208 18.5q235 0 359 -80
q46 -32 73.5 -78.5t32.5 -97.5q1 -18 -3 -34t-12 -28t-19.5 -18.5t-26.5 -4.5q-41 2 -74.5 12.5t-56.5 21.5q-28 13 -41.5 30t-13.5 34q0 23 9 41t9 35q0 16 -16 26t-37 12l-1 -54q-3 -38 5 -73t25 -64q14 -26 30.5 -45.5t34.5 -39.5q23 -24 42 -49.5t33 -55.5
q7 -18 14.5 -40.5t13.5 -45.5t10 -45.5t4 -41.5q0 -20 -8 -33.5t-25 -13.5h-712q-18 0 -27 8t-12.5 21.5t-2 30.5t4.5 35q4 20 12 54t25 71q13 31 32 57t42 52q18 20 33.5 39t28.5 43q18 32 27 64.5t7 70.5l-3 55q-24 -1 -37 -10.5t-15 -26.5q-2 -10 -0.5 -16t2.5 -11
q8 -20 11 -31t3 -19q1 -17 -11.5 -33.5t-41.5 -30.5q-23 -11 -57.5 -21.5t-73.5 -12.5q-14 -2 -26 4.5t-20.5 18.5t-13 28.5t-3.5 34.5zM395 530q0 -25 15.5 -31t35.5 -6h104q10 0 20 0.5t18 4.5t12.5 11.5t4.5 21.5v69q-30 -5 -55 -6t-44 -1q-31 0 -58 4t-53 8v-75z" />
    <glyph glyph-name="uni260F" unicode="&#x260f;" horiz-adv-x="1000" 
d="M585 579q-25 -3 -45.5 -2.5t-33.5 0.5q-17 0 -40.5 1.5t-52.5 5.5v-53q0 -12 5 -16t26 -4h106q25 0 30 4.5t5 25.5v38zM34 459q5 50 33 97.5t74 77.5q60 43 152 61.5t208 18.5q235 0 359 -80q46 -32 73.5 -78.5t32.5 -97.5q1 -18 -3 -34t-12 -28t-19.5 -18.5t-26.5 -4.5
q-41 2 -74.5 12.5t-56.5 21.5q-28 13 -41.5 30t-13.5 34q0 23 9 41t9 35q0 16 -16 26t-37 12l-1 -54q-3 -38 5 -73t25 -64q14 -26 30.5 -45.5t34.5 -39.5q23 -24 42 -49.5t33 -55.5q7 -18 14.5 -40.5t13.5 -45.5t10 -45.5t4 -41.5q0 -20 -8 -33.5t-25 -13.5h-712
q-18 0 -27 8t-12.5 21.5t-2 30.5t4.5 35q4 20 12 54t25 71q13 31 32 57t42 52q18 20 33.5 39t28.5 43q18 32 27 64.5t7 70.5l-3 55q-24 -1 -37 -10.5t-15 -26.5q-2 -10 -0.5 -16t2.5 -11q8 -20 11 -31t3 -19q1 -17 -11.5 -33.5t-41.5 -30.5q-23 -11 -57.5 -21.5t-73.5 -12.5
q-14 -2 -26 4.5t-20.5 18.5t-13 28.5t-3.5 34.5zM72 457q-4 -21 4 -30t25 -7q34 3 61 12t46 18q14 8 23 14.5t9 11.5q0 6 -3 15.5t-5 15.5l-5 10t-5 16q-2 31 24.5 59t82.5 32q11 2 18.5 -4.5t8.5 -17.5q1 -5 1.5 -16.5t1 -26.5t1 -32.5t0.5 -33.5q0 -33 -12 -64.5
t-29 -60.5q-11 -18 -27.5 -38.5t-30.5 -35.5q-17 -17 -36 -41t-30 -48q-17 -35 -27.5 -73t-15.5 -74q-2 -20 1 -26.5t22 -6.5h651q20 1 20.5 11t-1.5 31q-2 30 -12 69.5t-28 74.5q-13 22 -31 44t-35 39q-15 17 -30.5 35.5t-27.5 38.5q-17 27 -29 59t-12 66q0 15 0.5 31t1 31
t1 27.5t1.5 19.5q0 10 8 17t19 5q27 -1 47.5 -9.5t34 -21.5t20 -29t5.5 -31q-2 -10 -5 -16t-6 -11q-5 -14 -5 -26q0 -11 8 -18t22 -15q18 -9 45 -16.5t62 -10.5q14 -2 23 7t5 30q-11 66 -52.5 106.5t-107.5 66.5q-56 21 -128 32t-140 11q-72 0 -141.5 -7t-124.5 -31
q-66 -26 -107.5 -68.5t-53.5 -109.5zM315 239q0 40 14.5 72.5t39.5 56t58.5 36.5t71.5 13t72 -13t59 -36.5t39.5 -56t14.5 -72.5q0 -42 -15.5 -75.5t-41.5 -56.5t-59 -35.5t-69 -12.5q-35 0 -68 12.5t-59 35.5t-41.5 56.5t-15.5 75.5zM356 239q0 -31 11 -57t30 -44.5
t45.5 -28.5t56.5 -10q63 0 103 38.5t40 101.5q0 32 -11 58t-30 44t-45.5 28t-56.5 10t-56 -10t-45.5 -28t-30.5 -44t-11 -58zM375 628q32 -3 64 -9t67 -6q23 0 53 1.5t66 9.5v-93q0 -21 -8 -32.5t-19 -17t-24.5 -7t-23.5 -1.5h-104q-11 0 -23.5 2t-23 8t-17.5 17t-7 30v98z
" />
    <glyph glyph-name="uni261C" unicode="&#x261c;" horiz-adv-x="1000" 
d="M183 397q-21 1 -45 1.5t-45 5.5t-34.5 16t-13.5 32q0 22 17.5 34t41.5 18t47.5 7t35.5 1h309h69.5t66.5 -2q33 -2 62.5 -15t60.5 -29l16 -8q11 -7 19.5 -11t22.5 -4h18v34h124v-285h-125v25h-16q-27 -20 -64.5 -33t-79.5 -21t-85.5 -11.5t-82.5 -3.5q-64 0 -107 8
q-23 3 -36 11t-18.5 19t-4 24t8.5 25q-17 11 -24 30t-1 36q-14 7 -24 17.5t-10 24.5q0 32 31 45l-71 4zM416 403q15 -2 24 -0.5t15 4.5t10.5 8t9.5 11q8 8 18 12.5t18 2.5q2 -2 5 -7t1 -13q19 -3 31 -1.5t26 9.5q8 6 17 5t10 -9q-1 -8 -2.5 -17.5t-5.5 -18.5q8 -11 30.5 -22
t39.5 -15q11 -4 22.5 -5.5t24.5 -2.5q20 -4 35 -8.5t15 -15.5t-12.5 -14t-29.5 -1.5t-35.5 5.5t-31.5 8q-27 7 -55.5 23.5t-45.5 42.5q-7 -2 -12.5 -3t-11.5 -2q14 -14 14 -35q0 -6 -2.5 -13t-5.5 -13q12 -7 19.5 -17.5t7.5 -23.5q0 -9 -8 -20q30 -13 30 -39q0 -16 -7 -28
q35 1 70 6.5t66 13.5t56 20t41 27h24v149h-18q-20 0 -36.5 6.5t-31.5 15.5q-11 7 -26.5 15.5t-31.5 15.5t-31.5 12t-27.5 5q-5 0 -12.5 0.5t-13.5 0.5l-28 2t-27 1q-11 0 -21 -1t-22 -2q-20 -9 -33 -16.5t-23 -16t-17 -18.5t-15 -23zM86 454q0 -5 4 -7.5t15.5 -4t31 -3
t51.5 -3.5l63 -4l138 -6q5 11 16.5 24t25.5 27q-16 -1 -32 -1h-26q-46 -1 -94.5 -1.5t-90.5 -2.5q-51 -2 -76.5 -6t-25.5 -12zM896 231v209h-27v-209h27zM327 353q-7 -5 -1.5 -10.5t20.5 -7.5q11 -1 36 -3t50 -2q20 0 38 1t26 6q5 4 4 7.5t-5 7t-9.5 6t-9.5 3.5
q-16 2 -36.5 5t-40.5 3q-24 0 -42.5 -4t-29.5 -12zM388 198q8 -2 26.5 -4.5t42.5 -2.5q37 0 61 4t24 19q0 5 -1 7.5t-7 4t-18.5 1t-35.5 -1.5l-92 -1q-14 0 -15 -10.5t15 -15.5zM366 265q13 -2 35.5 -2.5t50.5 -0.5h18q5 0 13.5 1t17 3.5t14.5 6t6 8.5q0 8 -11 9.5t-28 1.5
h-113q-13 0 -15 -9.5t12 -17.5z" />
    </font>
</defs>
</svg>
